<?xml version="1.0" encoding="utf-8"?>
<!-- Generator: Adobe Illustrator 17.0.0, SVG Export Plug-In . SVG Version: 6.00 Build 0)  -->
<!DOCTYPE svg PUBLIC "-//W3C//DTD SVG 1.1//EN" "http://www.w3.org/Graphics/SVG/1.1/DTD/svg11.dtd">
<svg version="1.1" id="Capa_1" xmlns="http://www.w3.org/2000/svg" xmlns:xlink="http://www.w3.org/1999/xlink" x="0px" y="0px"
	 width="770px" height="523px" viewBox="0 0 770 523" enable-background="new 0 0 770 523" xml:space="preserve">
<rect x="4.128" y="87.822" fill="#1E120D" width="381.22" height="16.994"/>
<g>
	<path fill="#1E120D" d="M13.782,82.246c0.325,0,0.605-0.055,0.84-0.164s0.48-0.284,0.736-0.524l0.608,0.624
		c-0.592,0.656-1.311,0.984-2.156,0.984s-1.547-0.272-2.104-0.816s-0.836-1.232-0.836-2.064s0.284-1.525,0.852-2.08
		s1.285-0.832,2.152-0.832s1.591,0.32,2.172,0.96l-0.6,0.656c-0.267-0.256-0.519-0.435-0.756-0.536
		c-0.237-0.101-0.516-0.152-0.836-0.152c-0.565,0-1.04,0.183-1.424,0.548c-0.384,0.365-0.576,0.832-0.576,1.4
		s0.191,1.043,0.572,1.424C12.807,82.056,13.259,82.246,13.782,82.246z"/>
	<path fill="#1E120D" d="M21.798,82.33c-0.565,0.552-1.264,0.828-2.096,0.828s-1.531-0.276-2.096-0.828
		c-0.565-0.552-0.848-1.24-0.848-2.064c0-0.824,0.283-1.512,0.848-2.064c0.565-0.552,1.264-0.828,2.096-0.828
		s1.531,0.276,2.096,0.828c0.565,0.552,0.848,1.24,0.848,2.064C22.646,81.09,22.364,81.778,21.798,82.33z M21.106,78.83
		c-0.381-0.395-0.85-0.592-1.404-0.592s-1.022,0.197-1.404,0.592s-0.572,0.874-0.572,1.436s0.191,1.042,0.572,1.436
		s0.849,0.592,1.404,0.592s1.023-0.197,1.404-0.592c0.381-0.395,0.572-0.874,0.572-1.436S21.487,79.225,21.106,78.83z"/>
	<path fill="#1E120D" d="M23.838,83.102V77.51h0.944v4.696h2.552v0.896H23.838z"/>
	<path fill="#1E120D" d="M33.046,82.33c-0.565,0.552-1.264,0.828-2.096,0.828s-1.531-0.276-2.096-0.828
		c-0.565-0.552-0.848-1.24-0.848-2.064c0-0.824,0.283-1.512,0.848-2.064c0.565-0.552,1.264-0.828,2.096-0.828
		s1.531,0.276,2.096,0.828c0.565,0.552,0.848,1.24,0.848,2.064C33.894,81.09,33.611,81.778,33.046,82.33z M32.354,78.83
		c-0.381-0.395-0.85-0.592-1.404-0.592s-1.022,0.197-1.404,0.592s-0.572,0.874-0.572,1.436s0.191,1.042,0.572,1.436
		s0.849,0.592,1.404,0.592s1.023-0.197,1.404-0.592c0.381-0.395,0.572-0.874,0.572-1.436S32.735,79.225,32.354,78.83z"/>
	<path fill="#1E120D" d="M39.55,79.326c0,0.923-0.403,1.504-1.208,1.744l1.464,2.032h-1.2l-1.336-1.88h-1.24v1.88h-0.944V77.51h2.08
		c0.854,0,1.464,0.144,1.832,0.432S39.55,78.691,39.55,79.326z M38.294,80.118c0.192-0.166,0.288-0.431,0.288-0.796
		s-0.099-0.616-0.296-0.752c-0.197-0.136-0.549-0.204-1.056-0.204h-1.2v2h1.176C37.739,80.366,38.102,80.283,38.294,80.118z"/>
	<path fill="#1E120D" d="M47.334,78.242c0.539,0.488,0.808,1.167,0.808,2.036c0,0.87-0.261,1.558-0.784,2.064
		c-0.523,0.506-1.323,0.76-2.4,0.76h-1.856V77.51h1.92C46.025,77.51,46.795,77.754,47.334,78.242z M47.19,80.302
		c0-1.28-0.733-1.92-2.2-1.92h-0.944v3.832h1.048c0.677,0,1.196-0.161,1.556-0.484C47.01,81.407,47.19,80.932,47.19,80.302z"/>
	<path fill="#1E120D" d="M53.286,77.51v0.888h-2.984v1.48h2.68v0.84h-2.68v1.496h3.08v0.888h-4.024V77.51H53.286z"/>
	<path fill="#1E120D" d="M59.334,82.246c0.325,0,0.605-0.055,0.84-0.164s0.48-0.284,0.736-0.524l0.608,0.624
		c-0.592,0.656-1.311,0.984-2.156,0.984s-1.547-0.272-2.104-0.816s-0.836-1.232-0.836-2.064s0.284-1.525,0.852-2.08
		s1.285-0.832,2.152-0.832s1.591,0.32,2.172,0.96l-0.6,0.656c-0.267-0.256-0.519-0.435-0.756-0.536
		c-0.237-0.101-0.516-0.152-0.836-0.152c-0.565,0-1.04,0.183-1.424,0.548c-0.384,0.365-0.576,0.832-0.576,1.4
		s0.191,1.043,0.572,1.424C58.359,82.056,58.811,82.246,59.334,82.246z"/>
	<path fill="#1E120D" d="M63.462,81.83l-0.56,1.272h-1.008l2.464-5.592h1.008l2.464,5.592h-1.008l-0.56-1.272H63.462z
		 M65.878,80.958l-1.016-2.304l-1.016,2.304H65.878z"/>
	<path fill="#1E120D" d="M69.55,83.102h-0.944V77.51h1.472l1.688,3.512l1.688-3.512h1.464v5.592h-0.944v-4.368l-1.952,3.88h-0.528
		l-1.944-3.88V83.102z"/>
	<path fill="#1E120D" d="M76.47,77.51h0.944v5.592H76.47V77.51z"/>
	<path fill="#1E120D" d="M80.658,78.246c-0.274,0-0.5,0.056-0.676,0.168s-0.264,0.281-0.264,0.508c0,0.227,0.088,0.4,0.264,0.52
		c0.176,0.12,0.551,0.25,1.124,0.388s1.005,0.333,1.296,0.584c0.291,0.251,0.436,0.62,0.436,1.108c0,0.488-0.184,0.884-0.552,1.188
		c-0.368,0.304-0.851,0.456-1.448,0.456c-0.875,0-1.651-0.301-2.328-0.904l0.592-0.712c0.565,0.491,1.152,0.736,1.76,0.736
		c0.304,0,0.545-0.065,0.724-0.196c0.179-0.13,0.268-0.304,0.268-0.52c0-0.216-0.084-0.384-0.252-0.504
		c-0.168-0.12-0.458-0.229-0.868-0.328s-0.723-0.189-0.936-0.272c-0.213-0.083-0.403-0.19-0.568-0.324
		c-0.331-0.25-0.496-0.635-0.496-1.152c0-0.518,0.188-0.916,0.564-1.196c0.376-0.28,0.841-0.42,1.396-0.42
		c0.357,0,0.712,0.059,1.064,0.176c0.352,0.117,0.656,0.283,0.912,0.496l-0.504,0.712c-0.166-0.149-0.39-0.272-0.672-0.368
		C81.211,78.294,80.933,78.246,80.658,78.246z"/>
	<path fill="#1E120D" d="M87.934,77.51v0.888H84.95v1.48h2.68v0.84h-2.68v1.496h3.08v0.888h-4.024V77.51H87.934z"/>
	<path fill="#1E120D" d="M91.35,78.374v4.728h-0.944v-4.728H88.71V77.51h4.336v0.864H91.35z"/>
	<path fill="#1E120D" d="M94.862,81.83l-0.56,1.272h-1.008l2.464-5.592h1.008l2.464,5.592h-1.008l-0.56-1.272H94.862z
		 M97.278,80.958l-1.016-2.304l-1.016,2.304H97.278z"/>
	<path fill="#1E120D" d="M99.978,81.03c-0.115-0.118-0.172-0.259-0.172-0.424c0-0.165,0.057-0.305,0.172-0.42
		s0.254-0.172,0.42-0.172c0.165,0,0.307,0.057,0.424,0.172c0.118,0.115,0.176,0.255,0.176,0.42c0,0.166-0.059,0.307-0.176,0.424
		c-0.117,0.117-0.259,0.176-0.424,0.176C100.232,81.206,100.093,81.147,99.978,81.03z M99.978,82.99
		c-0.115-0.118-0.172-0.259-0.172-0.424c0-0.165,0.057-0.305,0.172-0.42s0.254-0.172,0.42-0.172c0.165,0,0.307,0.057,0.424,0.172
		c0.118,0.115,0.176,0.255,0.176,0.42c0,0.166-0.059,0.307-0.176,0.424c-0.117,0.117-0.259,0.176-0.424,0.176
		C100.232,83.166,100.093,83.107,99.978,82.99z"/>
</g>
<g>
	<g>
		<path fill="#1E120D" d="M296.479,78.374v4.728h-0.944v-4.728h-1.696V77.51h4.336v0.864H296.479z"/>
		<path fill="#1E120D" d="M299.991,81.83l-0.56,1.272h-1.008l2.464-5.592h1.008l2.464,5.592h-1.008l-0.56-1.272H299.991z
			 M302.407,80.958l-1.016-2.304l-1.016,2.304H302.407z"/>
		<path fill="#1E120D" d="M309.599,79.326c0,0.923-0.403,1.504-1.208,1.744l1.464,2.032h-1.2l-1.336-1.88h-1.24v1.88h-0.944V77.51
			h2.08c0.854,0,1.464,0.144,1.832,0.432S309.599,78.691,309.599,79.326z M308.343,80.118c0.192-0.166,0.288-0.431,0.288-0.796
			s-0.099-0.616-0.296-0.752c-0.197-0.136-0.549-0.204-1.056-0.204h-1.2v2h1.176C307.788,80.366,308.151,80.283,308.343,80.118z"/>
		<path fill="#1E120D" d="M311.143,78.358V77.51h2.72v3.688c0,0.65-0.166,1.139-0.496,1.464c-0.331,0.325-0.755,0.488-1.272,0.488
			c-0.651,0-1.206-0.229-1.664-0.688l0.536-0.744c0.362,0.347,0.717,0.52,1.064,0.52c0.245,0,0.455-0.083,0.628-0.248
			c0.173-0.166,0.26-0.414,0.26-0.744v-2.888H311.143z"/>
		<path fill="#1E120D" d="M319.295,77.51v0.888h-2.984v1.48h2.68v0.84h-2.68v1.496h3.08v0.888h-4.024V77.51H319.295z"/>
		<path fill="#1E120D" d="M322.711,78.374v4.728h-0.944v-4.728h-1.696V77.51h4.336v0.864H322.711z"/>
		<path fill="#1E120D" d="M326.223,81.83l-0.56,1.272h-1.008l2.464-5.592h1.008l2.464,5.592h-1.008l-0.56-1.272H326.223z
			 M328.639,80.958l-1.016-2.304l-1.016,2.304H328.639z"/>
		<path fill="#1E120D" d="M333.059,78.246c-0.274,0-0.5,0.056-0.676,0.168s-0.264,0.281-0.264,0.508c0,0.227,0.088,0.4,0.264,0.52
			c0.176,0.12,0.551,0.25,1.124,0.388s1.005,0.333,1.296,0.584c0.291,0.251,0.436,0.62,0.436,1.108c0,0.488-0.184,0.884-0.552,1.188
			c-0.368,0.304-0.851,0.456-1.448,0.456c-0.875,0-1.651-0.301-2.328-0.904l0.592-0.712c0.565,0.491,1.152,0.736,1.76,0.736
			c0.304,0,0.545-0.065,0.724-0.196c0.179-0.13,0.268-0.304,0.268-0.52c0-0.216-0.084-0.384-0.252-0.504
			c-0.168-0.12-0.458-0.229-0.868-0.328s-0.723-0.189-0.936-0.272c-0.213-0.083-0.403-0.19-0.568-0.324
			c-0.331-0.25-0.496-0.635-0.496-1.152c0-0.518,0.188-0.916,0.564-1.196c0.376-0.28,0.841-0.42,1.396-0.42
			c0.357,0,0.712,0.059,1.064,0.176c0.352,0.117,0.656,0.283,0.912,0.496l-0.504,0.712c-0.166-0.149-0.39-0.272-0.672-0.368
			C333.612,78.294,333.333,78.246,333.059,78.246z"/>
	</g>
</g>
<g>
	<g>
		<path fill="#FFFFFF" d="M14.318,93.387h1.448v6.488h-1.448l-3.091-4.065v4.065H9.779v-6.488h1.355l3.184,4.177V93.387z"/>
		<path fill="#FFFFFF" d="M19.757,94.547c0,0.365-0.13,0.673-0.39,0.924s-0.586,0.376-0.979,0.376s-0.719-0.127-0.979-0.381
			c-0.26-0.253-0.39-0.562-0.39-0.923s0.13-0.67,0.39-0.924c0.26-0.253,0.586-0.38,0.979-0.38s0.72,0.127,0.979,0.38
			C19.627,93.873,19.757,94.183,19.757,94.547z M17.91,94.543c0,0.17,0.045,0.308,0.135,0.413c0.09,0.105,0.204,0.158,0.343,0.158
			c0.14,0,0.254-0.052,0.344-0.158c0.089-0.105,0.134-0.243,0.134-0.413c0-0.17-0.045-0.31-0.134-0.417
			c-0.09-0.108-0.204-0.163-0.344-0.163c-0.139,0-0.253,0.054-0.343,0.163C17.955,94.233,17.91,94.373,17.91,94.543z"/>
	</g>
</g>
<g>
	<g>
		<path fill="#FFFFFF" d="M72.473,93.387h1.448v6.488h-1.448l-3.091-4.065v4.065h-1.448v-6.488h1.355l3.184,4.177V93.387z"/>
		<path fill="#FFFFFF" d="M80.372,97.378c0,0.724-0.25,1.334-0.752,1.829c-0.501,0.495-1.131,0.743-1.889,0.743
			c-0.758,0-1.388-0.248-1.889-0.743c-0.501-0.495-0.752-1.104-0.752-1.829c0-0.724,0.251-1.335,0.752-1.833
			c0.501-0.498,1.131-0.747,1.889-0.747c0.758,0,1.388,0.249,1.889,0.747C80.121,96.043,80.372,96.655,80.372,97.378z
			 M76.492,97.378c0,0.409,0.116,0.741,0.348,0.998c0.232,0.257,0.529,0.385,0.891,0.385c0.362,0,0.659-0.128,0.891-0.385
			c0.232-0.257,0.348-0.589,0.348-0.998c0-0.408-0.116-0.742-0.348-1.002c-0.232-0.26-0.529-0.39-0.891-0.39
			c-0.362,0-0.659,0.13-0.891,0.39C76.607,96.636,76.492,96.97,76.492,97.378z"/>
		<path fill="#FFFFFF" d="M85.987,97.184v2.692h-1.401v-2.729c0-0.396-0.061-0.687-0.181-0.873s-0.315-0.278-0.584-0.278
			c-0.27,0-0.508,0.101-0.715,0.302c-0.208,0.201-0.311,0.497-0.311,0.886v2.692h-1.392v-4.994h1.392v0.566
			c0.384-0.433,0.823-0.649,1.318-0.649c0.315,0,0.602,0.093,0.858,0.278s0.45,0.412,0.58,0.678c0.192-0.303,0.45-0.539,0.775-0.706
			c0.325-0.167,0.651-0.25,0.979-0.25c0.588,0,1.061,0.175,1.42,0.524s0.539,0.855,0.539,1.518v3.035h-1.402v-2.729
			c0-0.767-0.281-1.151-0.844-1.151c-0.279,0-0.52,0.101-0.724,0.302S85.987,96.794,85.987,97.184z"/>
		<path fill="#FFFFFF" d="M93.403,94.798c0.606,0,1.135,0.236,1.587,0.71c0.452,0.473,0.678,1.082,0.678,1.824
			c0,0.743-0.232,1.365-0.696,1.866c-0.464,0.501-0.992,0.752-1.583,0.752s-1.081-0.244-1.471-0.733v0.659h-1.392v-6.887h1.392v2.45
			C92.302,95.012,92.797,94.798,93.403,94.798z M91.899,97.383c0,0.405,0.113,0.736,0.339,0.993c0.226,0.257,0.5,0.385,0.821,0.385
			s0.604-0.128,0.845-0.385s0.362-0.586,0.362-0.989c0-0.402-0.118-0.739-0.353-1.012c-0.235-0.272-0.517-0.408-0.845-0.408
			s-0.605,0.135-0.831,0.404C92.012,96.641,91.899,96.978,91.899,97.383z"/>
		<path fill="#FFFFFF" d="M99.334,96.107c-0.415,0-0.724,0.147-0.928,0.441c-0.204,0.294-0.306,0.682-0.306,1.165v2.163h-1.392
			v-4.994H98.1v0.659c0.18-0.204,0.404-0.377,0.673-0.52c0.27-0.142,0.543-0.217,0.822-0.223l0.009,1.309H99.334z"/>
		<path fill="#FFFFFF" d="M104.848,99.151c-0.563,0.532-1.224,0.798-1.981,0.798c-0.758,0-1.385-0.233-1.88-0.701
			s-0.743-1.094-0.743-1.88c0-0.786,0.252-1.411,0.757-1.875c0.504-0.464,1.1-0.696,1.787-0.696s1.27,0.207,1.75,0.622
			c0.479,0.415,0.72,0.984,0.72,1.708v0.743h-3.639c0.043,0.272,0.186,0.495,0.427,0.668c0.242,0.173,0.514,0.26,0.817,0.26
			c0.489,0,0.891-0.164,1.207-0.492L104.848,99.151z M103.511,96.19c-0.192-0.161-0.426-0.241-0.701-0.241
			c-0.275,0-0.528,0.083-0.757,0.25s-0.362,0.393-0.399,0.678h2.19C103.814,96.581,103.703,96.352,103.511,96.19z"/>
	</g>
</g>
<g>
	<g>
		<path fill="#FFFFFF" d="M270.269,96.571h1.458v2.302c-0.644,0.718-1.535,1.077-2.673,1.077c-0.953,0-1.753-0.315-2.399-0.947
			s-0.97-1.428-0.97-2.39c0-0.962,0.33-1.765,0.989-2.409s1.454-0.965,2.385-0.965c0.932,0,1.741,0.306,2.427,0.919l-0.751,1.086
			c-0.291-0.253-0.559-0.428-0.803-0.524c-0.244-0.096-0.509-0.144-0.793-0.144c-0.551,0-1.015,0.188-1.392,0.562
			c-0.378,0.374-0.566,0.868-0.566,1.48c0,0.612,0.181,1.103,0.543,1.471s0.793,0.552,1.295,0.552c0.501,0,0.919-0.096,1.253-0.288
			V96.571z"/>
		<path fill="#FFFFFF" d="M277.871,97.378c0,0.724-0.25,1.334-0.752,1.829c-0.501,0.495-1.131,0.743-1.889,0.743
			c-0.758,0-1.388-0.248-1.889-0.743c-0.501-0.495-0.752-1.104-0.752-1.829c0-0.724,0.251-1.335,0.752-1.833
			c0.501-0.498,1.131-0.747,1.889-0.747c0.758,0,1.388,0.249,1.889,0.747C277.621,96.043,277.871,96.655,277.871,97.378z
			 M273.991,97.378c0,0.409,0.116,0.741,0.348,0.998c0.232,0.257,0.529,0.385,0.891,0.385c0.362,0,0.659-0.128,0.891-0.385
			c0.232-0.257,0.348-0.589,0.348-0.998c0-0.408-0.116-0.742-0.348-1.002c-0.232-0.26-0.529-0.39-0.891-0.39
			c-0.362,0-0.659,0.13-0.891,0.39C274.107,96.636,273.991,96.97,273.991,97.378z"/>
		<path fill="#FFFFFF" d="M280.293,99.875h-1.392v-6.887h1.392V99.875z"/>
	</g>
</g>
<g>
	<g>
		<path fill="#FFFFFF" d="M206.135,93.387v1.272h-3.007v1.401h2.859v1.271h-2.859v2.543h-1.448v-6.488H206.135z"/>
		<path fill="#FFFFFF" d="M207.337,94.246c-0.158-0.158-0.236-0.351-0.236-0.58s0.079-0.422,0.236-0.581
			c0.158-0.158,0.351-0.236,0.58-0.236s0.422,0.079,0.581,0.236c0.158,0.158,0.236,0.352,0.236,0.581s-0.079,0.422-0.236,0.58
			c-0.158,0.158-0.352,0.236-0.581,0.236S207.495,94.404,207.337,94.246z M208.613,99.875h-1.392v-4.994h1.392V99.875z"/>
		<path fill="#FFFFFF" d="M212.558,96.107c-0.415,0-0.724,0.147-0.928,0.441c-0.204,0.294-0.306,0.682-0.306,1.165v2.163h-1.392
			v-4.994h1.392v0.659c0.18-0.204,0.404-0.377,0.673-0.52c0.27-0.142,0.543-0.217,0.822-0.223l0.009,1.309H212.558z"/>
		<path fill="#FFFFFF" d="M218.332,97.184v2.692h-1.401v-2.729c0-0.396-0.061-0.687-0.181-0.873s-0.315-0.278-0.584-0.278
			c-0.27,0-0.508,0.101-0.715,0.302c-0.208,0.201-0.311,0.497-0.311,0.886v2.692h-1.392v-4.994h1.392v0.566
			c0.384-0.433,0.823-0.649,1.318-0.649c0.315,0,0.602,0.093,0.858,0.278s0.45,0.412,0.58,0.678c0.192-0.303,0.45-0.539,0.775-0.706
			c0.325-0.167,0.651-0.25,0.979-0.25c0.588,0,1.061,0.175,1.42,0.524s0.539,0.855,0.539,1.518v3.035h-1.402v-2.729
			c0-0.767-0.281-1.151-0.844-1.151c-0.279,0-0.52,0.101-0.724,0.302S218.332,96.794,218.332,97.184z"/>
		<path fill="#FFFFFF" d="M227.112,99.875h-1.309v-0.604c-0.359,0.452-0.803,0.678-1.332,0.678c-0.529,0-0.973-0.153-1.332-0.459
			s-0.539-0.715-0.539-1.225c0-0.511,0.186-0.893,0.557-1.146c0.371-0.253,0.878-0.38,1.522-0.38h1.04V96.71
			c0-0.532-0.282-0.798-0.845-0.798c-0.241,0-0.497,0.048-0.766,0.144c-0.269,0.096-0.497,0.215-0.682,0.357l-0.622-0.9
			c0.656-0.476,1.404-0.714,2.246-0.714c0.606,0,1.102,0.151,1.485,0.455c0.383,0.303,0.575,0.783,0.575,1.439V99.875z
			 M225.711,97.973v-0.241h-0.873c-0.557,0-0.835,0.173-0.835,0.52c0,0.18,0.066,0.317,0.2,0.413
			c0.133,0.096,0.323,0.144,0.571,0.144c0.247,0,0.465-0.076,0.654-0.228C225.616,98.429,225.711,98.227,225.711,97.973z"/>
	</g>
</g>
<g>
	<g>
		<path fill="#FFFFFF" d="M297.997,99.875l-0.604-1.401h-2.72l-0.603,1.401h-1.541l2.803-6.488h1.401l2.803,6.488H297.997z
			 M296.038,95.318l-0.817,1.884h1.624L296.038,95.318z"/>
		<path fill="#FFFFFF" d="M304.735,97.184v2.692h-1.401v-2.729c0-0.396-0.061-0.687-0.181-0.873s-0.315-0.278-0.584-0.278
			c-0.27,0-0.508,0.101-0.715,0.302c-0.208,0.201-0.311,0.497-0.311,0.886v2.692h-1.392v-4.994h1.392v0.566
			c0.384-0.433,0.823-0.649,1.318-0.649c0.315,0,0.602,0.093,0.858,0.278s0.45,0.412,0.58,0.678c0.192-0.303,0.45-0.539,0.775-0.706
			c0.325-0.167,0.651-0.25,0.979-0.25c0.588,0,1.061,0.175,1.42,0.524s0.539,0.855,0.539,1.518v3.035h-1.402v-2.729
			c0-0.767-0.281-1.151-0.844-1.151c-0.279,0-0.52,0.101-0.724,0.302S304.735,96.794,304.735,97.184z"/>
	</g>
</g>
<g>
	<g>
		<path fill="#FFFFFF" d="M328.275,95.541c0,1.04-0.412,1.711-1.234,2.015l1.643,2.32h-1.782l-1.439-2.07h-1.002v2.07h-1.448v-6.488
			h2.459c1.009,0,1.728,0.17,2.158,0.511S328.275,94.786,328.275,95.541z M326.531,96.311c0.179-0.161,0.269-0.416,0.269-0.766
			s-0.093-0.589-0.279-0.719c-0.186-0.13-0.51-0.195-0.975-0.195h-1.086v1.921h1.058C326.014,96.553,326.351,96.472,326.531,96.311z
			"/>
		<path fill="#FFFFFF" d="M334.615,97.378c0,0.724-0.25,1.334-0.752,1.829c-0.501,0.495-1.131,0.743-1.889,0.743
			c-0.758,0-1.388-0.248-1.889-0.743c-0.501-0.495-0.752-1.104-0.752-1.829c0-0.724,0.251-1.335,0.752-1.833
			c0.501-0.498,1.131-0.747,1.889-0.747c0.758,0,1.388,0.249,1.889,0.747C334.365,96.043,334.615,96.655,334.615,97.378z
			 M330.735,97.378c0,0.409,0.116,0.741,0.348,0.998c0.232,0.257,0.529,0.385,0.891,0.385c0.362,0,0.659-0.128,0.891-0.385
			c0.232-0.257,0.348-0.589,0.348-0.998c0-0.408-0.116-0.742-0.348-1.002c-0.232-0.26-0.529-0.39-0.891-0.39
			c-0.362,0-0.659,0.13-0.891,0.39C330.851,96.636,330.735,96.97,330.735,97.378z"/>
	</g>
</g>
<line fill="none" stroke="#1E120D" stroke-width="0.25" stroke-miterlimit="10" x1="169.201" y1="104.868" x2="169.201" y2="520.5"/>
<line fill="none" stroke="#1E120D" stroke-width="0.25" stroke-miterlimit="10" x1="286.357" y1="104.868" x2="286.357" y2="520.5"/>
<line fill="none" stroke="#1E120D" stroke-width="0.25" stroke-miterlimit="10" x1="313.935" y1="104.868" x2="313.935" y2="520.5"/>
<line fill="none" stroke="#1E120D" stroke-width="0.25" stroke-miterlimit="10" x1="341.935" y1="104.868" x2="341.935" y2="520.5"/>
<line fill="none" stroke="#1E120D" stroke-width="2.9563" stroke-miterlimit="10" x1="385.513" y1="40.866" x2="385.513" y2="521.5"/>
<line fill="none" stroke="#1E120D" stroke-width="0.25" stroke-miterlimit="10" x1="3.762" y1="70.848" x2="766.713" y2="70.848"/>
<rect x="2.359" y="41.706" fill="none" stroke="#1E120D" stroke-width="2.9947" stroke-miterlimit="10" width="765.656" height="478.781"/>
<g>
	<circle fill="#FFFFFF" stroke="#1E120D" stroke-width="2.9563" stroke-miterlimit="10" cx="385.924" cy="56.235" r="13.057"/>
	<g>
		<path fill="#1E120D" d="M381.586,60.603l-2.773-7.018h2.031l1.745,4.414l1.745-4.414h2.031l-2.773,7.018H381.586z"/>
		<path fill="#1E120D" d="M392.601,58.422c0,0.69-0.254,1.243-0.762,1.66c-0.508,0.417-1.152,0.625-1.934,0.625
			c-0.52,0-1.062-0.093-1.627-0.28s-1.072-0.462-1.523-0.827l0.859-1.224c0.73,0.564,1.506,0.846,2.33,0.846
			c0.252,0,0.453-0.05,0.6-0.149c0.148-0.1,0.221-0.232,0.221-0.397c0-0.165-0.102-0.317-0.305-0.456
			c-0.205-0.139-0.5-0.269-0.885-0.391c-0.387-0.121-0.682-0.226-0.887-0.312c-0.203-0.086-0.436-0.212-0.695-0.377
			c-0.531-0.33-0.795-0.818-0.795-1.465c0-0.646,0.26-1.174,0.781-1.582c0.521-0.408,1.193-0.612,2.018-0.612
			s1.648,0.278,2.475,0.833l-0.73,1.302c-0.607-0.417-1.213-0.625-1.816-0.625c-0.602,0-0.904,0.165-0.904,0.495
			c0,0.182,0.096,0.325,0.287,0.429c0.191,0.104,0.508,0.226,0.949,0.365c0.443,0.139,0.758,0.246,0.945,0.319
			c0.186,0.074,0.41,0.189,0.67,0.345C392.358,57.239,392.601,57.731,392.601,58.422z"/>
	</g>
</g>
<g>
	<line fill="none" stroke="#1E120D" stroke-width="0.25" stroke-miterlimit="10" x1="23.307" y1="104.868" x2="23.307" y2="520.5"/>
	
		<line fill="none" stroke="#FFFFFF" stroke-width="0.4927" stroke-miterlimit="10" x1="23.526" y1="86.072" x2="23.526" y2="104.979"/>
</g>
<g>
	
		<line fill="none" stroke="#1E120D" stroke-width="0.379" stroke-miterlimit="10" x1="2.751" y1="143.768" x2="766.908" y2="143.768"/>
	
		<line fill="none" stroke="#1E120D" stroke-width="0.379" stroke-miterlimit="10" x1="3.203" y1="185.797" x2="766.908" y2="185.797"/>
	
		<line fill="none" stroke="#1E120D" stroke-width="0.379" stroke-miterlimit="10" x1="3.203" y1="227.826" x2="766.908" y2="227.826"/>
	
		<line fill="none" stroke="#1E120D" stroke-width="0.379" stroke-miterlimit="10" x1="3.203" y1="269.855" x2="766.908" y2="269.855"/>
	
		<line fill="none" stroke="#1E120D" stroke-width="0.379" stroke-miterlimit="10" x1="3.203" y1="311.884" x2="766.908" y2="311.884"/>
	
		<line fill="none" stroke="#1E120D" stroke-width="0.379" stroke-miterlimit="10" x1="3.203" y1="353.912" x2="766.908" y2="353.912"/>
	
		<line fill="none" stroke="#1E120D" stroke-width="0.379" stroke-miterlimit="10" x1="3.203" y1="395.941" x2="766.908" y2="395.941"/>
	
		<line fill="none" stroke="#1E120D" stroke-width="0.379" stroke-miterlimit="10" x1="3.203" y1="437.97" x2="766.908" y2="437.97"/>
	
		<line fill="none" stroke="#1E120D" stroke-width="0.379" stroke-miterlimit="10" x1="3.203" y1="479.999" x2="766.908" y2="479.999"/>
	
		<line fill="none" stroke="#1E120D" stroke-width="0.379" stroke-miterlimit="10" x1="2.751" y1="122.753" x2="766.908" y2="122.753"/>
	
		<line fill="none" stroke="#1E120D" stroke-width="0.379" stroke-miterlimit="10" x1="3.203" y1="164.782" x2="766.908" y2="164.782"/>
	
		<line fill="none" stroke="#1E120D" stroke-width="0.379" stroke-miterlimit="10" x1="3.203" y1="206.811" x2="766.908" y2="206.811"/>
	
		<line fill="none" stroke="#1E120D" stroke-width="0.379" stroke-miterlimit="10" x1="3.203" y1="248.84" x2="766.908" y2="248.84"/>
	
		<line fill="none" stroke="#1E120D" stroke-width="0.379" stroke-miterlimit="10" x1="3.203" y1="290.869" x2="766.908" y2="290.869"/>
	
		<line fill="none" stroke="#1E120D" stroke-width="0.379" stroke-miterlimit="10" x1="3.203" y1="332.898" x2="766.908" y2="332.898"/>
	
		<line fill="none" stroke="#1E120D" stroke-width="0.379" stroke-miterlimit="10" x1="3.203" y1="374.927" x2="766.908" y2="374.927"/>
	
		<line fill="none" stroke="#1E120D" stroke-width="0.379" stroke-miterlimit="10" x1="3.203" y1="416.956" x2="766.908" y2="416.956"/>
	
		<line fill="none" stroke="#1E120D" stroke-width="0.379" stroke-miterlimit="10" x1="3.203" y1="458.985" x2="766.908" y2="458.985"/>
	
		<line fill="none" stroke="#1E120D" stroke-width="0.379" stroke-miterlimit="10" x1="3.203" y1="501.014" x2="766.908" y2="501.014"/>
</g>
<g>
	
		<line fill="none" stroke="#1E120D" stroke-width="0.25" stroke-miterlimit="10" x1="286.328" y1="71.516" x2="286.328" y2="42.257"/>
</g>
<g>
	
		<line fill="none" stroke="#1E120D" stroke-width="0.25" stroke-miterlimit="10" x1="485.078" y1="71.64" x2="485.078" y2="42.257"/>
</g>
<g>
	
		<line fill="none" stroke="#FFFFFF" stroke-width="0.2464" stroke-miterlimit="10" x1="169.288" y1="88.072" x2="169.288" y2="104.979"/>
	
		<line fill="none" stroke="#1E120D" stroke-width="0.25" stroke-miterlimit="10" x1="258.704" y1="104.868" x2="258.704" y2="520.5"/>
	
		<line fill="none" stroke="#FFFFFF" stroke-width="0.2464" stroke-miterlimit="10" x1="258.666" y1="87.087" x2="258.666" y2="104.979"/>
	
		<line fill="none" stroke="#FFFFFF" stroke-width="0.2464" stroke-miterlimit="10" x1="286.477" y1="87.087" x2="286.477" y2="105.979"/>
	<g>
		<g>
			
				<line fill="none" stroke="#FFFFFF" stroke-width="0.2464" stroke-miterlimit="10" x1="313.757" y1="87.087" x2="313.757" y2="87.599"/>
			
				<line fill="none" stroke="#FFFFFF" stroke-width="0.2464" stroke-miterlimit="10" stroke-dasharray="1.051,1.051" x1="313.757" y1="88.65" x2="313.757" y2="104.941"/>
			
				<line fill="none" stroke="#FFFFFF" stroke-width="0.2464" stroke-miterlimit="10" x1="313.757" y1="105.467" x2="313.757" y2="105.979"/>
		</g>
	</g>
	
		<line fill="none" stroke="#FFFFFF" stroke-width="0.2464" stroke-miterlimit="10" x1="341.757" y1="87.087" x2="341.757" y2="105.979"/>
</g>
<g>
	<g>
		<path fill="#FFFFFF" d="M348.772,94.237c0.619,0.566,0.928,1.354,0.928,2.362s-0.301,1.807-0.904,2.395s-1.524,0.882-2.762,0.882
			h-2.219v-6.488h2.293C347.265,93.387,348.153,93.67,348.772,94.237z M347.709,98.093c0.355-0.334,0.533-0.819,0.533-1.457
			s-0.178-1.128-0.533-1.472c-0.356-0.343-0.902-0.515-1.639-0.515h-0.808v3.944h0.919
			C346.844,98.594,347.353,98.427,347.709,98.093z"/>
		<path fill="#FFFFFF" d="M355.807,97.378c0,0.725-0.25,1.334-0.751,1.829c-0.502,0.495-1.132,0.742-1.89,0.742
			s-1.388-0.247-1.889-0.742s-0.752-1.104-0.752-1.829c0-0.724,0.251-1.335,0.752-1.833s1.131-0.747,1.889-0.747
			s1.388,0.249,1.89,0.747C355.557,96.043,355.807,96.655,355.807,97.378z M351.927,97.378c0,0.408,0.116,0.741,0.349,0.998
			c0.231,0.257,0.529,0.385,0.891,0.385c0.362,0,0.659-0.128,0.892-0.385c0.231-0.257,0.348-0.59,0.348-0.998
			s-0.116-0.742-0.348-1.002c-0.232-0.26-0.529-0.391-0.892-0.391c-0.361,0-0.659,0.131-0.891,0.391
			C352.043,96.636,351.927,96.97,351.927,97.378z"/>
		<path fill="#FFFFFF" d="M359.233,98.715c0.464,0,0.882-0.232,1.253-0.696l0.826,0.929c-0.644,0.668-1.34,1.002-2.088,1.002
			c-0.749,0-1.382-0.236-1.898-0.71s-0.775-1.092-0.775-1.856s0.262-1.386,0.784-1.866c0.523-0.479,1.144-0.719,1.861-0.719
			c0.358,0,0.723,0.074,1.091,0.223s0.691,0.368,0.97,0.659l-0.724,0.946c-0.161-0.191-0.357-0.34-0.59-0.445
			c-0.231-0.105-0.463-0.158-0.691-0.158c-0.365,0-0.679,0.12-0.942,0.357c-0.263,0.238-0.395,0.569-0.395,0.993
			c0,0.425,0.132,0.754,0.395,0.989C358.573,98.598,358.88,98.715,359.233,98.715z"/>
		<path fill="#FFFFFF" d="M370.093,95.541c0,1.04-0.412,1.711-1.234,2.015l1.643,2.32h-1.782l-1.438-2.07h-1.003v2.07h-1.448v-6.488
			h2.46c1.009,0,1.729,0.17,2.158,0.511C369.877,94.238,370.093,94.786,370.093,95.541z M368.348,96.311
			c0.179-0.161,0.269-0.416,0.269-0.766s-0.093-0.59-0.278-0.72s-0.511-0.194-0.975-0.194h-1.086v1.921h1.059
			C367.832,96.552,368.168,96.472,368.348,96.311z"/>
		<path fill="#FFFFFF" d="M375.764,99.152c-0.563,0.532-1.224,0.798-1.981,0.798s-1.385-0.233-1.88-0.701
			c-0.495-0.467-0.742-1.094-0.742-1.879c0-0.786,0.252-1.411,0.756-1.875c0.505-0.465,1.101-0.696,1.787-0.696
			s1.271,0.207,1.75,0.622c0.479,0.414,0.719,0.983,0.719,1.708v0.742h-3.639c0.044,0.272,0.187,0.495,0.428,0.668
			c0.241,0.174,0.514,0.26,0.816,0.26c0.489,0,0.892-0.163,1.207-0.491L375.764,99.152z M374.427,96.191
			c-0.191-0.161-0.425-0.242-0.7-0.242s-0.528,0.084-0.757,0.251s-0.362,0.394-0.399,0.678h2.191
			C374.731,96.581,374.62,96.351,374.427,96.191z"/>
		<path fill="#FFFFFF" d="M377.612,99.23c-0.477-0.479-0.715-1.095-0.715-1.847s0.231-1.37,0.696-1.856
			c0.464-0.485,0.98-0.729,1.55-0.729s1.067,0.213,1.494,0.641v-0.558h1.401v6.795h-1.401v-2.2
			c-0.396,0.315-0.848,0.474-1.355,0.474C378.645,99.95,378.087,99.71,377.612,99.23z M378.298,97.383
			c0,0.405,0.12,0.736,0.362,0.993c0.241,0.257,0.522,0.385,0.845,0.385c0.321,0,0.594-0.128,0.816-0.385s0.334-0.588,0.334-0.993
			s-0.111-0.742-0.334-1.012s-0.498-0.404-0.826-0.404s-0.609,0.135-0.845,0.404S378.298,96.978,378.298,97.383z"/>
	</g>
</g>
<rect x="3.426" y="1.579" fill="#1E120D" width="66.933" height="16.805"/>
<rect x="3.426" y="20.66" fill="#1E120D" width="66.933" height="16.805"/>
<rect x="254.84" y="1.579" fill="#1E120D" width="66.933" height="16.805"/>
<rect x="254.84" y="20.66" fill="#1E120D" width="66.933" height="16.805"/>
<g>
	<g>
		<path fill="#FFFFFF" d="M264.748,8.101c-0.12,0.099-0.18,0.23-0.18,0.393c0,0.163,0.073,0.293,0.22,0.389s0.486,0.209,1.018,0.34
			c0.532,0.131,0.944,0.328,1.238,0.589s0.441,0.644,0.441,1.146c0,0.502-0.188,0.91-0.565,1.223
			c-0.377,0.312-0.873,0.469-1.487,0.469c-0.887,0-1.686-0.329-2.396-0.986l0.746-0.914c0.604,0.529,1.162,0.793,1.675,0.793
			c0.229,0,0.41-0.049,0.541-0.148c0.131-0.099,0.196-0.232,0.196-0.401c0-0.168-0.069-0.302-0.208-0.4
			c-0.139-0.099-0.414-0.199-0.826-0.301c-0.652-0.155-1.129-0.357-1.431-0.605c-0.302-0.249-0.453-0.639-0.453-1.17
			s0.191-0.942,0.573-1.23c0.382-0.289,0.859-0.433,1.431-0.433c0.374,0,0.748,0.064,1.122,0.192c0.374,0.128,0.7,0.31,0.978,0.545
			l-0.633,0.914c-0.486-0.369-0.989-0.553-1.507-0.553C265.033,7.952,264.868,8.002,264.748,8.101z"/>
		<path fill="#FFFFFF" d="M272.591,6.982v1.114h-2.79v1.154h2.509v1.066h-2.509v1.163h2.877v1.106h-4.128V6.982H272.591z"/>
		<path fill="#FFFFFF" d="M278.074,7.716c0.534,0.489,0.802,1.169,0.802,2.04s-0.261,1.561-0.782,2.068
			c-0.521,0.508-1.316,0.762-2.385,0.762h-1.916V6.982h1.98C276.772,6.982,277.54,7.227,278.074,7.716z M277.156,11.046
			c0.308-0.289,0.461-0.708,0.461-1.258s-0.153-0.974-0.461-1.271c-0.307-0.297-0.779-0.445-1.415-0.445h-0.697v3.407h0.793
			C276.409,11.479,276.849,11.335,277.156,11.046z"/>
		<path fill="#FFFFFF" d="M283.998,6.982v1.114h-2.79v1.154h2.509v1.066h-2.509v1.163h2.877v1.106h-4.128V6.982H283.998z"/>
	</g>
</g>
<g>
	<g>
		<path fill="#FFFFFF" d="M12.954,26.276h1.25v5.603h-1.25v-2.204h-2.228v2.204h-1.25v-5.603h1.25v2.341h2.228V26.276z"/>
		<path fill="#FFFFFF" d="M20.297,31.105c-0.567,0.553-1.264,0.83-2.092,0.83c-0.829,0-1.526-0.276-2.092-0.83
			s-0.85-1.241-0.85-2.064c0-0.823,0.283-1.511,0.85-2.064c0.566-0.553,1.264-0.83,2.092-0.83c0.828,0,1.525,0.277,2.092,0.83
			c0.566,0.553,0.85,1.241,0.85,2.064C21.146,29.864,20.863,30.552,20.297,31.105z M19.872,29.045c0-0.5-0.161-0.926-0.481-1.279
			c-0.321-0.353-0.715-0.529-1.183-0.529s-0.862,0.176-1.182,0.529c-0.321,0.353-0.481,0.779-0.481,1.279s0.16,0.924,0.481,1.274
			c0.32,0.35,0.714,0.525,1.182,0.525s0.862-0.175,1.183-0.525C19.711,29.97,19.872,29.545,19.872,29.045z"/>
		<path fill="#FFFFFF" d="M26.75,28.136c0,0.897-0.355,1.478-1.066,1.739l1.419,2.004h-1.539l-1.242-1.788h-0.866v1.788h-1.25
			v-5.603h2.124c0.871,0,1.492,0.147,1.864,0.441C26.563,27.011,26.75,27.483,26.75,28.136z M25.243,28.801
			c0.155-0.139,0.232-0.359,0.232-0.661s-0.081-0.509-0.241-0.621c-0.16-0.112-0.441-0.168-0.842-0.168h-0.938v1.659h0.914
			C24.796,29.009,25.087,28.94,25.243,28.801z"/>
		<path fill="#FFFFFF" d="M32.023,31.879l-0.521-1.21h-2.349l-0.521,1.21h-1.331l2.421-5.603h1.21l2.42,5.603H32.023z
			 M30.332,27.943l-0.705,1.627h1.403L30.332,27.943z"/>
	</g>
</g>
<g>
	<g>
		<path fill="#FFFFFF" d="M266.01,30.773c0.615,0,1.117-0.243,1.507-0.729l0.801,0.826c-0.636,0.716-1.385,1.074-2.248,1.074
			c-0.863,0-1.574-0.272-2.132-0.817c-0.559-0.545-0.838-1.233-0.838-2.064s0.285-1.524,0.854-2.08
			c0.569-0.556,1.265-0.834,2.088-0.834c0.919,0,1.688,0.35,2.309,1.05l-0.777,0.882c-0.396-0.492-0.887-0.738-1.475-0.738
			c-0.47,0-0.873,0.154-1.207,0.461c-0.334,0.308-0.501,0.722-0.501,1.243s0.158,0.939,0.473,1.254S265.562,30.773,266.01,30.773z"
			/>
		<path fill="#FFFFFF" d="M273.297,31.879l-0.521-1.21h-2.349l-0.521,1.21h-1.331l2.421-5.603h1.21l2.42,5.603H273.297z
			 M271.605,27.944l-0.705,1.627h1.403L271.605,27.944z"/>
		<path fill="#FFFFFF" d="M279.196,26.276h1.25v5.603h-1.25l-2.669-3.511v3.511h-1.25v-5.603h1.17l2.749,3.607V26.276z"/>
		<path fill="#FFFFFF" d="M284.398,30.773c0.615,0,1.117-0.243,1.507-0.729l0.801,0.826c-0.636,0.716-1.385,1.074-2.248,1.074
			c-0.863,0-1.574-0.272-2.132-0.817c-0.559-0.545-0.838-1.233-0.838-2.064s0.285-1.524,0.854-2.08
			c0.569-0.556,1.265-0.834,2.088-0.834c0.919,0,1.688,0.35,2.309,1.05l-0.777,0.882c-0.396-0.492-0.887-0.738-1.475-0.738
			c-0.47,0-0.873,0.154-1.207,0.461c-0.334,0.308-0.501,0.722-0.501,1.243s0.158,0.939,0.473,1.254S283.95,30.773,284.398,30.773z"
			/>
		<path fill="#FFFFFF" d="M291.172,26.276h1.25v5.603h-1.25v-2.204h-2.228v2.204h-1.25v-5.603h1.25v2.341h2.228V26.276z"/>
		<path fill="#FFFFFF" d="M297.793,31.879l-0.521-1.21h-2.349l-0.521,1.21h-1.331l2.421-5.603h1.21l2.42,5.603H297.793z
			 M296.102,27.944l-0.705,1.627h1.403L296.102,27.944z"/>
		<path fill="#FFFFFF" d="M305.809,26.276h1.25v5.603h-1.25l-2.669-3.511v3.511h-1.25v-5.603h1.17l2.749,3.607V26.276z"/>
		<path fill="#FFFFFF" d="M310.506,27.278c0,0.315-0.112,0.581-0.336,0.797c-0.225,0.217-0.506,0.325-0.846,0.325
			s-0.621-0.109-0.846-0.329c-0.225-0.219-0.337-0.485-0.337-0.797s0.112-0.579,0.337-0.798c0.225-0.219,0.506-0.329,0.846-0.329
			s0.621,0.11,0.846,0.329C310.394,26.696,310.506,26.963,310.506,27.278z M308.911,27.274c0,0.147,0.039,0.266,0.116,0.356
			c0.078,0.091,0.177,0.136,0.297,0.136s0.219-0.045,0.296-0.136c0.078-0.091,0.116-0.209,0.116-0.356s-0.039-0.267-0.116-0.361
			c-0.078-0.093-0.176-0.14-0.296-0.14s-0.219,0.047-0.297,0.14C308.95,27.007,308.911,27.127,308.911,27.274z"/>
	</g>
</g>
<rect x="511.063" y="1.579" fill="#1E120D" width="66.933" height="16.805"/>
<rect x="511.063" y="20.66" fill="#1E120D" width="66.933" height="16.805"/>
<g>
	<g>
		<path fill="#FFFFFF" d="M519.869,8.057V6.982h2.918v3.655c0,0.668-0.172,1.167-0.517,1.499c-0.345,0.331-0.787,0.497-1.327,0.497
			c-0.673,0-1.261-0.259-1.764-0.777l0.649-0.898c0.337,0.364,0.689,0.545,1.059,0.545c0.176,0,0.327-0.068,0.453-0.205
			c0.125-0.136,0.188-0.341,0.188-0.613V8.057H519.869z"/>
		<path fill="#FFFFFF" d="M528.831,11.812c-0.566,0.553-1.264,0.83-2.092,0.83s-1.525-0.276-2.092-0.83s-0.85-1.241-0.85-2.064
			c0-0.823,0.283-1.511,0.85-2.064c0.566-0.553,1.264-0.83,2.092-0.83s1.525,0.277,2.092,0.83c0.566,0.553,0.85,1.241,0.85,2.064
			C529.681,10.571,529.397,11.259,528.831,11.812z M528.406,9.752c0-0.5-0.16-0.926-0.48-1.279
			c-0.321-0.353-0.715-0.529-1.183-0.529s-0.861,0.176-1.183,0.529c-0.32,0.353-0.48,0.779-0.48,1.279s0.16,0.924,0.48,1.274
			c0.321,0.35,0.715,0.525,1.183,0.525s0.861-0.175,1.183-0.525C528.246,10.676,528.406,10.251,528.406,9.752z"/>
		<path fill="#FFFFFF" d="M535.284,8.842c0,0.897-0.355,1.478-1.066,1.739l1.419,2.004h-1.539l-1.242-1.788h-0.866v1.788h-1.25
			V6.982h2.124c0.871,0,1.492,0.147,1.863,0.441C535.099,7.717,535.284,8.19,535.284,8.842z M533.777,9.507
			c0.154-0.139,0.232-0.359,0.232-0.661s-0.08-0.509-0.24-0.621c-0.161-0.112-0.441-0.168-0.842-0.168h-0.938v1.659h0.914
			C533.331,9.716,533.622,9.646,533.777,9.507z"/>
		<path fill="#FFFFFF" d="M540.486,6.982h1.25v5.603h-1.25l-2.67-3.511v3.511h-1.25V6.982h1.17l2.75,3.607V6.982z"/>
		<path fill="#FFFFFF" d="M547.107,12.585l-0.521-1.21h-2.349l-0.521,1.21h-1.331l2.421-5.603h1.21l2.421,5.603H547.107z
			 M545.416,8.65l-0.706,1.627h1.403L545.416,8.65z"/>
		<path fill="#FFFFFF" d="M553.367,7.716c0.534,0.489,0.802,1.169,0.802,2.04s-0.261,1.561-0.781,2.068
			c-0.521,0.508-1.316,0.762-2.385,0.762h-1.916V6.982h1.979C552.066,6.982,552.833,7.227,553.367,7.716z M552.449,11.046
			c0.308-0.289,0.461-0.708,0.461-1.258s-0.153-0.974-0.461-1.271c-0.308-0.297-0.778-0.445-1.415-0.445h-0.697v3.407h0.794
			C551.702,11.479,552.142,11.335,552.449,11.046z"/>
		<path fill="#FFFFFF" d="M559.243,12.585l-0.521-1.21h-2.349l-0.521,1.21h-1.331l2.421-5.603h1.21l2.421,5.603H559.243z
			 M557.552,8.65l-0.706,1.627h1.403L557.552,8.65z"/>
		<path fill="#FFFFFF" d="M567.259,6.982h1.25v5.603h-1.25l-2.67-3.511v3.511h-1.25V6.982h1.17l2.75,3.607V6.982z"/>
		<path fill="#FFFFFF" d="M571.956,7.984c0,0.315-0.112,0.581-0.337,0.797c-0.225,0.217-0.507,0.325-0.846,0.325
			c-0.34,0-0.621-0.109-0.846-0.329c-0.225-0.219-0.337-0.485-0.337-0.797s0.112-0.579,0.337-0.798
			c0.225-0.219,0.506-0.329,0.846-0.329c0.339,0,0.621,0.11,0.846,0.329C571.844,7.402,571.956,7.669,571.956,7.984z M570.36,7.98
			c0,0.147,0.039,0.266,0.116,0.356c0.077,0.091,0.177,0.136,0.297,0.136s0.219-0.045,0.297-0.136
			c0.077-0.091,0.116-0.209,0.116-0.356s-0.039-0.267-0.116-0.361c-0.078-0.093-0.177-0.14-0.297-0.14s-0.22,0.047-0.297,0.14
			C570.399,7.713,570.36,7.833,570.36,7.98z"/>
	</g>
</g>
<g>
	<g>
		<path fill="#FFFFFF" d="M523.653,31.879l-0.521-1.21h-2.349l-0.521,1.21h-1.331l2.421-5.603h1.21l2.421,5.603H523.653z
			 M521.962,27.944l-0.706,1.627h1.403L521.962,27.944z"/>
		<path fill="#FFFFFF" d="M530.178,28.136c0,0.897-0.355,1.478-1.066,1.739l1.419,2.004h-1.539l-1.242-1.788h-0.866v1.788h-1.25
			v-5.603h2.124c0.871,0,1.492,0.147,1.863,0.441C529.992,27.011,530.178,27.484,530.178,28.136z M528.671,28.801
			c0.154-0.139,0.232-0.359,0.232-0.661s-0.08-0.509-0.24-0.621c-0.161-0.112-0.441-0.168-0.842-0.168h-0.938v1.659h0.914
			C528.225,29.01,528.516,28.94,528.671,28.801z"/>
		<path fill="#FFFFFF" d="M533.913,31.879h-2.453v-5.603h2.181c0.379,0,0.706,0.045,0.981,0.136s0.482,0.214,0.621,0.369
			c0.251,0.289,0.377,0.615,0.377,0.978c0,0.438-0.142,0.764-0.425,0.978c-0.097,0.075-0.163,0.122-0.2,0.14
			c-0.038,0.019-0.104,0.049-0.201,0.092c0.348,0.075,0.624,0.231,0.83,0.469s0.309,0.533,0.309,0.886c0,0.39-0.134,0.735-0.4,1.034
			C535.222,31.706,534.683,31.879,533.913,31.879z M532.71,28.545h0.594c0.347,0,0.604-0.038,0.773-0.112
			c0.168-0.075,0.252-0.236,0.252-0.485s-0.077-0.413-0.232-0.493c-0.154-0.08-0.416-0.12-0.785-0.12h-0.602V28.545z M532.71,30.821
			h0.858c0.357,0,0.626-0.044,0.806-0.132c0.179-0.088,0.269-0.262,0.269-0.521s-0.096-0.43-0.285-0.513
			c-0.189-0.083-0.493-0.124-0.909-0.124h-0.738V30.821z"/>
		<path fill="#FFFFFF" d="M536.982,26.276h1.25v5.603h-1.25V26.276z"/>
		<path fill="#FFFFFF" d="M541.984,27.358v4.521h-1.251v-4.521h-1.587v-1.082h4.425v1.082H541.984z"/>
		<path fill="#FFFFFF" d="M549.029,28.136c0,0.897-0.355,1.478-1.066,1.739l1.419,2.004h-1.539l-1.242-1.788h-0.866v1.788h-1.25
			v-5.603h2.124c0.871,0,1.492,0.147,1.863,0.441C548.844,27.011,549.029,27.484,549.029,28.136z M547.522,28.801
			c0.154-0.139,0.232-0.359,0.232-0.661s-0.08-0.509-0.24-0.621c-0.161-0.112-0.441-0.168-0.842-0.168h-0.938v1.659h0.914
			C547.076,29.01,547.367,28.94,547.522,28.801z"/>
		<path fill="#FFFFFF" d="M555.024,31.106c-0.566,0.553-1.264,0.83-2.092,0.83s-1.525-0.276-2.092-0.83s-0.85-1.241-0.85-2.064
			c0-0.823,0.283-1.511,0.85-2.064c0.566-0.553,1.264-0.83,2.092-0.83s1.525,0.277,2.092,0.83c0.566,0.553,0.85,1.241,0.85,2.064
			C555.874,29.865,555.591,30.553,555.024,31.106z M554.6,29.046c0-0.5-0.16-0.926-0.48-1.279c-0.321-0.353-0.715-0.529-1.183-0.529
			s-0.861,0.176-1.183,0.529c-0.32,0.353-0.48,0.779-0.48,1.279s0.16,0.924,0.48,1.274c0.321,0.35,0.715,0.525,1.183,0.525
			s0.861-0.175,1.183-0.525C554.439,29.97,554.6,29.545,554.6,29.046z"/>
	</g>
</g>
<g>
	<path fill="#FFFFFF" d="M13.323,6.982v1.098h-2.597v1.21h2.469v1.098h-2.469v2.196h-1.25V6.982H13.323z"/>
	<path fill="#FFFFFF" d="M18.229,6.982v1.114h-2.79v1.154h2.509v1.066h-2.509v1.163h2.877v1.106h-4.128V6.982H18.229z"/>
	<path fill="#FFFFFF" d="M22.004,11.479c0.615,0,1.117-0.243,1.507-0.729l0.801,0.826c-0.636,0.716-1.385,1.074-2.248,1.074
		c-0.863,0-1.574-0.272-2.132-0.817c-0.559-0.545-0.838-1.233-0.838-2.064s0.285-1.524,0.854-2.08
		c0.569-0.556,1.265-0.834,2.088-0.834c0.919,0,1.688,0.35,2.309,1.05l-0.777,0.882c-0.396-0.492-0.887-0.738-1.475-0.738
		c-0.47,0-0.873,0.154-1.207,0.461c-0.334,0.308-0.501,0.722-0.501,1.243s0.158,0.939,0.473,1.254S21.555,11.479,22.004,11.479z"/>
	<path fill="#FFFFFF" d="M28.777,6.982h1.25v5.603h-1.25v-2.204h-2.228v2.204h-1.25V6.982h1.25v2.341h2.228V6.982z"/>
	<path fill="#FFFFFF" d="M35.398,12.585l-0.521-1.21h-2.349l-0.521,1.21h-1.331l2.421-5.603h1.21l2.42,5.603H35.398z M33.707,8.65
		l-0.705,1.627h1.403L33.707,8.65z"/>
</g>
<line fill="none" stroke="#1E120D" stroke-width="0.25" stroke-miterlimit="10" x1="286.411" y1="70.897" x2="286.411" y2="87.999"/>
<line fill="none" stroke="#1E120D" stroke-width="0.25" stroke-miterlimit="10" x1="341.638" y1="70.897" x2="341.638" y2="87.999"/>
<rect x="386.795" y="87.822" fill="#1E120D" width="381.22" height="16.994"/>
<g>
	<path fill="#1E120D" d="M396.449,82.246c0.325,0,0.604-0.055,0.84-0.164c0.234-0.109,0.479-0.284,0.735-0.524l0.608,0.624
		c-0.592,0.656-1.311,0.984-2.156,0.984c-0.845,0-1.547-0.272-2.104-0.816c-0.558-0.544-0.836-1.232-0.836-2.064
		s0.284-1.525,0.852-2.08c0.568-0.555,1.285-0.832,2.152-0.832c0.866,0,1.591,0.32,2.172,0.96l-0.6,0.656
		c-0.268-0.256-0.52-0.435-0.757-0.536c-0.237-0.101-0.516-0.152-0.836-0.152c-0.565,0-1.04,0.183-1.424,0.548
		s-0.576,0.832-0.576,1.4s0.191,1.043,0.572,1.424C395.474,82.056,395.926,82.246,396.449,82.246z"/>
	<path fill="#1E120D" d="M404.465,82.33c-0.565,0.552-1.264,0.828-2.096,0.828s-1.531-0.276-2.096-0.828
		c-0.565-0.552-0.849-1.24-0.849-2.064c0-0.824,0.283-1.512,0.849-2.064c0.564-0.552,1.264-0.828,2.096-0.828
		s1.53,0.276,2.096,0.828c0.565,0.552,0.849,1.24,0.849,2.064C405.313,81.09,405.03,81.778,404.465,82.33z M403.773,78.83
		c-0.382-0.395-0.85-0.592-1.404-0.592s-1.022,0.197-1.404,0.592c-0.381,0.395-0.572,0.874-0.572,1.436s0.191,1.042,0.572,1.436
		c0.382,0.395,0.85,0.592,1.404,0.592s1.022-0.197,1.404-0.592c0.381-0.395,0.571-0.874,0.571-1.436S404.154,79.225,403.773,78.83z"
		/>
	<path fill="#1E120D" d="M406.505,83.102V77.51h0.944v4.696h2.552v0.896H406.505z"/>
	<path fill="#1E120D" d="M415.713,82.33c-0.565,0.552-1.265,0.828-2.097,0.828s-1.53-0.276-2.096-0.828
		c-0.565-0.552-0.848-1.24-0.848-2.064c0-0.824,0.282-1.512,0.848-2.064c0.565-0.552,1.264-0.828,2.096-0.828
		s1.531,0.276,2.097,0.828c0.565,0.552,0.848,1.24,0.848,2.064C416.561,81.09,416.278,81.778,415.713,82.33z M415.021,78.83
		c-0.381-0.395-0.85-0.592-1.404-0.592s-1.022,0.197-1.403,0.592c-0.382,0.395-0.572,0.874-0.572,1.436s0.19,1.042,0.572,1.436
		c0.381,0.395,0.849,0.592,1.403,0.592s1.023-0.197,1.404-0.592s0.572-0.874,0.572-1.436S415.401,79.225,415.021,78.83z"/>
	<path fill="#1E120D" d="M422.217,79.326c0,0.923-0.402,1.504-1.208,1.744l1.464,2.032h-1.2l-1.336-1.88h-1.239v1.88h-0.944V77.51
		h2.08c0.854,0,1.464,0.144,1.832,0.432S422.217,78.691,422.217,79.326z M420.961,80.118c0.191-0.166,0.288-0.431,0.288-0.796
		s-0.099-0.616-0.296-0.752c-0.197-0.136-0.55-0.204-1.057-0.204h-1.199v2h1.176C420.406,80.366,420.769,80.283,420.961,80.118z"/>
	<path fill="#1E120D" d="M430.001,78.242c0.538,0.488,0.808,1.167,0.808,2.036c0,0.87-0.261,1.558-0.783,2.064
		c-0.523,0.506-1.323,0.76-2.4,0.76h-1.856V77.51h1.92C428.691,77.51,429.462,77.754,430.001,78.242z M429.856,80.302
		c0-1.28-0.732-1.92-2.199-1.92h-0.944v3.832h1.048c0.678,0,1.196-0.161,1.557-0.484C429.677,81.407,429.856,80.932,429.856,80.302z
		"/>
	<path fill="#1E120D" d="M435.953,77.51v0.888h-2.984v1.48h2.68v0.84h-2.68v1.496h3.08v0.888h-4.024V77.51H435.953z"/>
	<path fill="#1E120D" d="M442.001,82.246c0.325,0,0.604-0.055,0.84-0.164c0.234-0.109,0.479-0.284,0.735-0.524l0.608,0.624
		c-0.592,0.656-1.311,0.984-2.156,0.984c-0.845,0-1.547-0.272-2.104-0.816c-0.558-0.544-0.836-1.232-0.836-2.064
		s0.284-1.525,0.852-2.08c0.568-0.555,1.285-0.832,2.152-0.832c0.866,0,1.591,0.32,2.172,0.96l-0.6,0.656
		c-0.268-0.256-0.52-0.435-0.757-0.536c-0.237-0.101-0.516-0.152-0.836-0.152c-0.565,0-1.04,0.183-1.424,0.548
		s-0.576,0.832-0.576,1.4s0.191,1.043,0.572,1.424C441.025,82.056,441.478,82.246,442.001,82.246z"/>
	<path fill="#1E120D" d="M446.129,81.83l-0.561,1.272h-1.008l2.464-5.592h1.009l2.464,5.592h-1.008l-0.561-1.272H446.129z
		 M448.545,80.958l-1.017-2.304l-1.016,2.304H448.545z"/>
	<path fill="#1E120D" d="M452.217,83.102h-0.944V77.51h1.473l1.688,3.512l1.688-3.512h1.464v5.592h-0.944v-4.368l-1.952,3.88h-0.527
		l-1.944-3.88V83.102z"/>
	<path fill="#1E120D" d="M459.137,77.51h0.944v5.592h-0.944V77.51z"/>
	<path fill="#1E120D" d="M463.324,78.246c-0.274,0-0.5,0.056-0.676,0.168s-0.264,0.281-0.264,0.508c0,0.227,0.088,0.4,0.264,0.52
		c0.176,0.12,0.551,0.25,1.124,0.388s1.006,0.333,1.296,0.584c0.291,0.251,0.437,0.62,0.437,1.108c0,0.488-0.185,0.884-0.552,1.188
		c-0.368,0.304-0.852,0.456-1.448,0.456c-0.875,0-1.651-0.301-2.328-0.904l0.592-0.712c0.565,0.491,1.152,0.736,1.76,0.736
		c0.305,0,0.546-0.065,0.725-0.196c0.179-0.13,0.268-0.304,0.268-0.52c0-0.216-0.084-0.384-0.252-0.504
		c-0.168-0.12-0.457-0.229-0.868-0.328c-0.41-0.099-0.723-0.189-0.936-0.272c-0.214-0.083-0.403-0.19-0.568-0.324
		c-0.33-0.25-0.496-0.635-0.496-1.152c0-0.518,0.188-0.916,0.564-1.196c0.376-0.28,0.841-0.42,1.396-0.42
		c0.357,0,0.712,0.059,1.064,0.176c0.352,0.117,0.656,0.283,0.912,0.496l-0.504,0.712c-0.166-0.149-0.39-0.272-0.672-0.368
		C463.878,78.294,463.6,78.246,463.324,78.246z"/>
	<path fill="#1E120D" d="M470.601,77.51v0.888h-2.983v1.48h2.68v0.84h-2.68v1.496h3.079v0.888h-4.023V77.51H470.601z"/>
	<path fill="#1E120D" d="M474.017,78.374v4.728h-0.944v-4.728h-1.695V77.51h4.336v0.864H474.017z"/>
	<path fill="#1E120D" d="M477.528,81.83l-0.56,1.272h-1.008l2.464-5.592h1.008l2.464,5.592h-1.008l-0.56-1.272H477.528z
		 M479.944,80.958l-1.016-2.304l-1.016,2.304H479.944z"/>
	<path fill="#1E120D" d="M482.645,81.03c-0.114-0.118-0.172-0.259-0.172-0.424c0-0.165,0.058-0.305,0.172-0.42
		c0.115-0.115,0.255-0.172,0.42-0.172s0.307,0.057,0.424,0.172c0.118,0.115,0.177,0.255,0.177,0.42c0,0.166-0.059,0.307-0.177,0.424
		c-0.117,0.117-0.259,0.176-0.424,0.176S482.76,81.147,482.645,81.03z M482.645,82.99c-0.114-0.118-0.172-0.259-0.172-0.424
		c0-0.165,0.058-0.305,0.172-0.42c0.115-0.115,0.255-0.172,0.42-0.172s0.307,0.057,0.424,0.172c0.118,0.115,0.177,0.255,0.177,0.42
		c0,0.166-0.059,0.307-0.177,0.424c-0.117,0.117-0.259,0.176-0.424,0.176S482.76,83.107,482.645,82.99z"/>
</g>
<g>
	<g>
		<path fill="#1E120D" d="M679.146,78.374v4.728h-0.944v-4.728h-1.695V77.51h4.336v0.864H679.146z"/>
		<path fill="#1E120D" d="M682.657,81.83l-0.56,1.272h-1.008l2.464-5.592h1.008l2.464,5.592h-1.008l-0.56-1.272H682.657z
			 M685.073,80.958l-1.016-2.304l-1.016,2.304H685.073z"/>
		<path fill="#1E120D" d="M692.266,79.326c0,0.923-0.402,1.504-1.208,1.744l1.464,2.032h-1.2l-1.336-1.88h-1.239v1.88h-0.944V77.51
			h2.08c0.854,0,1.464,0.144,1.832,0.432S692.266,78.691,692.266,79.326z M691.01,80.118c0.191-0.166,0.288-0.431,0.288-0.796
			s-0.099-0.616-0.296-0.752c-0.197-0.136-0.55-0.204-1.057-0.204h-1.199v2h1.176C690.455,80.366,690.817,80.283,691.01,80.118z"/>
		<path fill="#1E120D" d="M693.81,78.358V77.51h2.72v3.688c0,0.65-0.165,1.139-0.496,1.464s-0.755,0.488-1.271,0.488
			c-0.651,0-1.206-0.229-1.664-0.688l0.536-0.744c0.362,0.347,0.717,0.52,1.063,0.52c0.245,0,0.455-0.083,0.628-0.248
			c0.174-0.166,0.26-0.414,0.26-0.744v-2.888H693.81z"/>
		<path fill="#1E120D" d="M701.962,77.51v0.888h-2.984v1.48h2.68v0.84h-2.68v1.496h3.08v0.888h-4.024V77.51H701.962z"/>
		<path fill="#1E120D" d="M705.378,78.374v4.728h-0.944v-4.728h-1.696V77.51h4.336v0.864H705.378z"/>
		<path fill="#1E120D" d="M708.89,81.83l-0.561,1.272h-1.008l2.464-5.592h1.009l2.464,5.592h-1.008l-0.561-1.272H708.89z
			 M711.306,80.958l-1.017-2.304l-1.016,2.304H711.306z"/>
		<path fill="#1E120D" d="M715.726,78.246c-0.274,0-0.5,0.056-0.676,0.168s-0.265,0.281-0.265,0.508c0,0.227,0.089,0.4,0.265,0.52
			c0.176,0.12,0.551,0.25,1.124,0.388s1.005,0.333,1.296,0.584c0.29,0.251,0.436,0.62,0.436,1.108c0,0.488-0.184,0.884-0.552,1.188
			c-0.368,0.304-0.851,0.456-1.448,0.456c-0.874,0-1.65-0.301-2.328-0.904l0.593-0.712c0.564,0.491,1.151,0.736,1.76,0.736
			c0.304,0,0.545-0.065,0.724-0.196c0.179-0.13,0.269-0.304,0.269-0.52c0-0.216-0.084-0.384-0.252-0.504
			c-0.168-0.12-0.458-0.229-0.868-0.328c-0.411-0.099-0.723-0.189-0.937-0.272c-0.213-0.083-0.402-0.19-0.567-0.324
			c-0.331-0.25-0.496-0.635-0.496-1.152c0-0.518,0.188-0.916,0.563-1.196c0.376-0.28,0.842-0.42,1.396-0.42
			c0.357,0,0.712,0.059,1.063,0.176c0.353,0.117,0.656,0.283,0.912,0.496l-0.504,0.712c-0.165-0.149-0.39-0.272-0.672-0.368
			C716.279,78.294,716,78.246,715.726,78.246z"/>
	</g>
</g>
<g>
	<g>
		<path fill="#FFFFFF" d="M396.984,93.387h1.447v6.488h-1.447l-3.092-4.065v4.065h-1.447v-6.488h1.354l3.185,4.177V93.387z"/>
		<path fill="#FFFFFF" d="M402.423,94.547c0,0.365-0.13,0.673-0.39,0.924s-0.586,0.376-0.979,0.376
			c-0.393,0-0.719-0.127-0.979-0.381c-0.26-0.253-0.391-0.562-0.391-0.923s0.131-0.67,0.391-0.924c0.26-0.253,0.586-0.38,0.979-0.38
			c0.394,0,0.72,0.127,0.979,0.38C402.293,93.873,402.423,94.183,402.423,94.547z M400.576,94.543c0,0.17,0.045,0.308,0.135,0.413
			c0.09,0.105,0.204,0.158,0.343,0.158c0.14,0,0.254-0.052,0.344-0.158c0.09-0.105,0.135-0.243,0.135-0.413
			c0-0.17-0.045-0.31-0.135-0.417c-0.09-0.108-0.204-0.163-0.344-0.163c-0.139,0-0.253,0.054-0.343,0.163
			C400.621,94.233,400.576,94.373,400.576,94.543z"/>
	</g>
</g>
<g>
	<g>
		<path fill="#FFFFFF" d="M455.139,93.387h1.448v6.488h-1.448l-3.091-4.065v4.065H450.6v-6.488h1.355l3.184,4.177V93.387z"/>
		<path fill="#FFFFFF" d="M463.038,97.378c0,0.724-0.251,1.334-0.752,1.829c-0.501,0.495-1.131,0.743-1.889,0.743
			c-0.759,0-1.388-0.248-1.89-0.743c-0.501-0.495-0.752-1.104-0.752-1.829c0-0.724,0.251-1.335,0.752-1.833
			c0.502-0.498,1.131-0.747,1.89-0.747c0.758,0,1.388,0.249,1.889,0.747S463.038,96.655,463.038,97.378z M459.158,97.378
			c0,0.409,0.115,0.741,0.348,0.998s0.529,0.385,0.892,0.385c0.361,0,0.658-0.128,0.891-0.385s0.348-0.589,0.348-0.998
			c0-0.408-0.115-0.742-0.348-1.002c-0.232-0.26-0.529-0.39-0.891-0.39c-0.362,0-0.659,0.13-0.892,0.39
			C459.273,96.636,459.158,96.97,459.158,97.378z"/>
		<path fill="#FFFFFF" d="M468.653,97.184v2.692h-1.401v-2.729c0-0.396-0.061-0.687-0.182-0.873
			c-0.12-0.186-0.315-0.278-0.584-0.278c-0.27,0-0.508,0.101-0.715,0.302c-0.208,0.201-0.312,0.497-0.312,0.886v2.692h-1.392v-4.994
			h1.392v0.566c0.384-0.433,0.823-0.649,1.318-0.649c0.315,0,0.602,0.093,0.858,0.278s0.45,0.412,0.58,0.678
			c0.192-0.303,0.45-0.539,0.775-0.706s0.651-0.25,0.979-0.25c0.588,0,1.061,0.175,1.42,0.524c0.358,0.35,0.538,0.855,0.538,1.518
			v3.035h-1.401v-2.729c0-0.767-0.281-1.151-0.845-1.151c-0.278,0-0.52,0.101-0.724,0.302S468.653,96.794,468.653,97.184z"/>
		<path fill="#FFFFFF" d="M476.069,94.798c0.606,0,1.136,0.236,1.587,0.71c0.452,0.473,0.678,1.082,0.678,1.824
			c0,0.743-0.231,1.365-0.696,1.866c-0.464,0.501-0.991,0.752-1.582,0.752s-1.081-0.244-1.472-0.733v0.659h-1.392v-6.887h1.392v2.45
			C474.968,95.012,475.463,94.798,476.069,94.798z M474.565,97.383c0,0.405,0.113,0.736,0.339,0.993s0.5,0.385,0.821,0.385
			c0.322,0,0.604-0.128,0.845-0.385s0.362-0.586,0.362-0.989c0-0.402-0.117-0.739-0.353-1.012c-0.235-0.272-0.517-0.408-0.845-0.408
			s-0.605,0.135-0.831,0.404S474.565,96.978,474.565,97.383z"/>
		<path fill="#FFFFFF" d="M482,96.107c-0.414,0-0.724,0.147-0.928,0.441s-0.307,0.682-0.307,1.165v2.163h-1.392v-4.994h1.392v0.659
			c0.18-0.204,0.404-0.377,0.673-0.52c0.27-0.142,0.543-0.217,0.822-0.223l0.009,1.309H482z"/>
		<path fill="#FFFFFF" d="M487.514,99.151c-0.562,0.532-1.224,0.798-1.981,0.798s-1.385-0.233-1.88-0.701s-0.742-1.094-0.742-1.88
			c0-0.786,0.252-1.411,0.757-1.875c0.504-0.464,1.1-0.696,1.786-0.696c0.688,0,1.271,0.207,1.75,0.622
			c0.479,0.415,0.72,0.984,0.72,1.708v0.743h-3.639c0.043,0.272,0.186,0.495,0.427,0.668s0.514,0.26,0.816,0.26
			c0.489,0,0.892-0.164,1.207-0.492L487.514,99.151z M486.178,96.19c-0.192-0.161-0.426-0.241-0.701-0.241s-0.527,0.083-0.757,0.25
			c-0.229,0.167-0.361,0.393-0.398,0.678h2.19C486.48,96.581,486.369,96.352,486.178,96.19z"/>
	</g>
</g>
<g>
	<g>
		<path fill="#FFFFFF" d="M652.936,96.571h1.458v2.302c-0.644,0.718-1.535,1.077-2.674,1.077c-0.953,0-1.753-0.315-2.399-0.947
			s-0.97-1.428-0.97-2.39c0-0.962,0.329-1.765,0.988-2.409s1.454-0.965,2.386-0.965s1.74,0.306,2.427,0.919l-0.751,1.086
			c-0.291-0.253-0.559-0.428-0.804-0.524c-0.244-0.096-0.509-0.144-0.793-0.144c-0.551,0-1.016,0.188-1.393,0.562
			c-0.378,0.374-0.566,0.868-0.566,1.48c0,0.612,0.182,1.103,0.543,1.471c0.362,0.368,0.794,0.552,1.295,0.552
			s0.919-0.096,1.253-0.288V96.571z"/>
		<path fill="#FFFFFF" d="M660.538,97.378c0,0.724-0.251,1.334-0.752,1.829c-0.501,0.495-1.131,0.743-1.889,0.743
			c-0.759,0-1.388-0.248-1.89-0.743c-0.501-0.495-0.752-1.104-0.752-1.829c0-0.724,0.251-1.335,0.752-1.833
			c0.502-0.498,1.131-0.747,1.89-0.747c0.758,0,1.388,0.249,1.889,0.747S660.538,96.655,660.538,97.378z M656.658,97.378
			c0,0.409,0.115,0.741,0.348,0.998s0.529,0.385,0.892,0.385c0.361,0,0.658-0.128,0.891-0.385s0.348-0.589,0.348-0.998
			c0-0.408-0.115-0.742-0.348-1.002c-0.232-0.26-0.529-0.39-0.891-0.39c-0.362,0-0.659,0.13-0.892,0.39
			C656.773,96.636,656.658,96.97,656.658,97.378z"/>
		<path fill="#FFFFFF" d="M662.96,99.875h-1.392v-6.887h1.392V99.875z"/>
	</g>
</g>
<g>
	<g>
		<path fill="#FFFFFF" d="M588.802,93.387v1.272h-3.008v1.401h2.859v1.271h-2.859v2.543h-1.447v-6.488H588.802z"/>
		<path fill="#FFFFFF" d="M590.004,94.246c-0.158-0.158-0.236-0.351-0.236-0.58s0.078-0.422,0.236-0.581
			c0.157-0.158,0.351-0.236,0.58-0.236c0.229,0,0.422,0.079,0.58,0.236c0.158,0.158,0.236,0.352,0.236,0.581
			s-0.078,0.422-0.236,0.58c-0.158,0.158-0.352,0.236-0.58,0.236C590.354,94.482,590.161,94.404,590.004,94.246z M591.28,99.875
			h-1.393v-4.994h1.393V99.875z"/>
		<path fill="#FFFFFF" d="M595.225,96.107c-0.414,0-0.724,0.147-0.928,0.441s-0.307,0.682-0.307,1.165v2.163h-1.392v-4.994h1.392
			v0.659c0.18-0.204,0.404-0.377,0.673-0.52c0.27-0.142,0.543-0.217,0.822-0.223l0.009,1.309H595.225z"/>
		<path fill="#FFFFFF" d="M600.998,97.184v2.692h-1.401v-2.729c0-0.396-0.061-0.687-0.181-0.873
			c-0.121-0.186-0.315-0.278-0.585-0.278s-0.508,0.101-0.715,0.302s-0.311,0.497-0.311,0.886v2.692h-1.393v-4.994h1.393v0.566
			c0.384-0.433,0.822-0.649,1.318-0.649c0.315,0,0.602,0.093,0.858,0.278s0.45,0.412,0.58,0.678c0.191-0.303,0.45-0.539,0.774-0.706
			c0.325-0.167,0.651-0.25,0.979-0.25c0.588,0,1.062,0.175,1.42,0.524c0.359,0.35,0.539,0.855,0.539,1.518v3.035h-1.402v-2.729
			c0-0.767-0.281-1.151-0.844-1.151c-0.279,0-0.521,0.101-0.725,0.302S600.998,96.794,600.998,97.184z"/>
		<path fill="#FFFFFF" d="M609.779,99.875h-1.309v-0.604c-0.359,0.452-0.804,0.678-1.332,0.678c-0.529,0-0.974-0.153-1.332-0.459
			c-0.359-0.306-0.539-0.715-0.539-1.225c0-0.511,0.187-0.893,0.558-1.146c0.371-0.253,0.878-0.38,1.522-0.38h1.039V96.71
			c0-0.532-0.281-0.798-0.845-0.798c-0.241,0-0.496,0.048-0.766,0.144c-0.27,0.096-0.497,0.215-0.683,0.357l-0.621-0.9
			c0.655-0.476,1.404-0.714,2.246-0.714c0.606,0,1.102,0.151,1.485,0.455c0.383,0.303,0.575,0.783,0.575,1.439V99.875z
			 M608.378,97.973v-0.241h-0.873c-0.557,0-0.835,0.173-0.835,0.52c0,0.18,0.066,0.317,0.199,0.413
			c0.133,0.096,0.323,0.144,0.571,0.144c0.247,0,0.465-0.076,0.654-0.228C608.283,98.429,608.378,98.227,608.378,97.973z"/>
	</g>
</g>
<g>
	<g>
		<path fill="#FFFFFF" d="M680.663,99.875l-0.604-1.401h-2.72l-0.603,1.401h-1.541l2.803-6.488h1.401l2.804,6.488H680.663z
			 M678.705,95.318l-0.817,1.884h1.624L678.705,95.318z"/>
		<path fill="#FFFFFF" d="M687.401,97.184v2.692H686v-2.729c0-0.396-0.061-0.687-0.181-0.873c-0.121-0.186-0.315-0.278-0.585-0.278
			s-0.508,0.101-0.715,0.302s-0.311,0.497-0.311,0.886v2.692h-1.393v-4.994h1.393v0.566c0.384-0.433,0.822-0.649,1.318-0.649
			c0.315,0,0.602,0.093,0.858,0.278s0.45,0.412,0.58,0.678c0.191-0.303,0.45-0.539,0.774-0.706c0.325-0.167,0.651-0.25,0.979-0.25
			c0.588,0,1.062,0.175,1.42,0.524c0.359,0.35,0.539,0.855,0.539,1.518v3.035h-1.402v-2.729c0-0.767-0.281-1.151-0.844-1.151
			c-0.279,0-0.521,0.101-0.725,0.302S687.401,96.794,687.401,97.184z"/>
	</g>
</g>
<g>
	<g>
		<path fill="#FFFFFF" d="M710.941,95.541c0,1.04-0.411,1.711-1.234,2.015l1.644,2.32h-1.782l-1.439-2.07h-1.002v2.07h-1.448v-6.488
			h2.46c1.009,0,1.728,0.17,2.158,0.511C710.727,94.238,710.941,94.786,710.941,95.541z M709.197,96.311
			c0.179-0.161,0.269-0.416,0.269-0.766s-0.093-0.589-0.278-0.719s-0.511-0.195-0.975-0.195h-1.086v1.921h1.058
			C708.68,96.553,709.018,96.472,709.197,96.311z"/>
		<path fill="#FFFFFF" d="M717.281,97.378c0,0.724-0.25,1.334-0.752,1.829c-0.501,0.495-1.131,0.743-1.889,0.743
			s-1.388-0.248-1.889-0.743c-0.501-0.495-0.752-1.104-0.752-1.829c0-0.724,0.251-1.335,0.752-1.833s1.131-0.747,1.889-0.747
			s1.388,0.249,1.889,0.747C717.031,96.043,717.281,96.655,717.281,97.378z M713.401,97.378c0,0.409,0.116,0.741,0.349,0.998
			c0.231,0.257,0.528,0.385,0.891,0.385s0.659-0.128,0.892-0.385c0.231-0.257,0.348-0.589,0.348-0.998
			c0-0.408-0.116-0.742-0.348-1.002c-0.232-0.26-0.529-0.39-0.892-0.39s-0.659,0.13-0.891,0.39
			C713.518,96.636,713.401,96.97,713.401,97.378z"/>
	</g>
</g>
<line fill="none" stroke="#1E120D" stroke-width="0.25" stroke-miterlimit="10" x1="551.868" y1="104.868" x2="551.868" y2="520.5"/>
<line fill="none" stroke="#1E120D" stroke-width="0.25" stroke-miterlimit="10" x1="669.024" y1="104.868" x2="669.024" y2="520.5"/>
<line fill="none" stroke="#1E120D" stroke-width="0.25" stroke-miterlimit="10" x1="696.602" y1="104.868" x2="696.602" y2="520.5"/>
<line fill="none" stroke="#1E120D" stroke-width="0.25" stroke-miterlimit="10" x1="724.602" y1="104.868" x2="724.602" y2="520.5"/>
<g>
	
		<line fill="none" stroke="#1E120D" stroke-width="0.25" stroke-miterlimit="10" x1="405.974" y1="104.868" x2="405.974" y2="520.5"/>
	
		<line fill="none" stroke="#FFFFFF" stroke-width="0.4927" stroke-miterlimit="10" x1="406.193" y1="86.072" x2="406.193" y2="104.979"/>
</g>
<g>
	
		<line fill="none" stroke="#FFFFFF" stroke-width="0.2464" stroke-miterlimit="10" x1="551.955" y1="88.072" x2="551.955" y2="104.979"/>
	
		<line fill="none" stroke="#1E120D" stroke-width="0.25" stroke-miterlimit="10" x1="641.371" y1="104.868" x2="641.371" y2="520.5"/>
	
		<line fill="none" stroke="#FFFFFF" stroke-width="0.2464" stroke-miterlimit="10" x1="641.333" y1="87.087" x2="641.333" y2="104.979"/>
	
		<line fill="none" stroke="#FFFFFF" stroke-width="0.2464" stroke-miterlimit="10" x1="669.143" y1="87.087" x2="669.143" y2="105.979"/>
	<g>
		<g>
			
				<line fill="none" stroke="#FFFFFF" stroke-width="0.2464" stroke-miterlimit="10" x1="696.424" y1="87.087" x2="696.424" y2="87.599"/>
			
				<line fill="none" stroke="#FFFFFF" stroke-width="0.2464" stroke-miterlimit="10" stroke-dasharray="1.051,1.051" x1="696.424" y1="88.65" x2="696.424" y2="104.941"/>
			
				<line fill="none" stroke="#FFFFFF" stroke-width="0.2464" stroke-miterlimit="10" x1="696.424" y1="105.467" x2="696.424" y2="105.979"/>
		</g>
	</g>
	
		<line fill="none" stroke="#FFFFFF" stroke-width="0.2464" stroke-miterlimit="10" x1="724.424" y1="87.087" x2="724.424" y2="105.979"/>
</g>
<g>
	<g>
		<path fill="#FFFFFF" d="M731.438,94.237c0.619,0.566,0.928,1.354,0.928,2.362s-0.301,1.807-0.904,2.395s-1.524,0.882-2.762,0.882
			h-2.219v-6.488h2.293C729.932,93.387,730.819,93.67,731.438,94.237z M730.376,98.093c0.355-0.334,0.533-0.819,0.533-1.457
			s-0.178-1.128-0.533-1.472c-0.356-0.343-0.902-0.515-1.639-0.515h-0.808v3.944h0.919C729.511,98.594,730.02,98.427,730.376,98.093
			z"/>
		<path fill="#FFFFFF" d="M738.474,97.378c0,0.725-0.25,1.334-0.751,1.829c-0.502,0.495-1.132,0.742-1.89,0.742
			s-1.388-0.247-1.889-0.742s-0.752-1.104-0.752-1.829c0-0.724,0.251-1.335,0.752-1.833s1.131-0.747,1.889-0.747
			s1.388,0.249,1.89,0.747C738.224,96.043,738.474,96.655,738.474,97.378z M734.594,97.378c0,0.408,0.116,0.741,0.349,0.998
			c0.231,0.257,0.529,0.385,0.891,0.385c0.362,0,0.659-0.128,0.892-0.385c0.231-0.257,0.348-0.59,0.348-0.998
			s-0.116-0.742-0.348-1.002c-0.232-0.26-0.529-0.391-0.892-0.391c-0.361,0-0.659,0.131-0.891,0.391
			C734.71,96.636,734.594,96.97,734.594,97.378z"/>
		<path fill="#FFFFFF" d="M741.899,98.715c0.464,0,0.882-0.232,1.253-0.696l0.826,0.929c-0.644,0.668-1.34,1.002-2.088,1.002
			c-0.749,0-1.382-0.236-1.898-0.71s-0.775-1.092-0.775-1.856s0.262-1.386,0.784-1.866c0.523-0.479,1.144-0.719,1.861-0.719
			c0.358,0,0.723,0.074,1.091,0.223s0.691,0.368,0.97,0.659l-0.724,0.946c-0.161-0.191-0.357-0.34-0.59-0.445
			c-0.231-0.105-0.463-0.158-0.691-0.158c-0.365,0-0.679,0.12-0.942,0.357c-0.263,0.238-0.395,0.569-0.395,0.993
			c0,0.425,0.132,0.754,0.395,0.989C741.239,98.598,741.547,98.715,741.899,98.715z"/>
		<path fill="#FFFFFF" d="M752.76,95.541c0,1.04-0.412,1.711-1.234,2.015l1.643,2.32h-1.782l-1.438-2.07h-1.003v2.07h-1.448v-6.488
			h2.46c1.009,0,1.729,0.17,2.158,0.511C752.544,94.238,752.76,94.786,752.76,95.541z M751.015,96.311
			c0.179-0.161,0.269-0.416,0.269-0.766s-0.093-0.59-0.278-0.72s-0.511-0.194-0.975-0.194h-1.086v1.921h1.059
			C750.498,96.552,750.835,96.472,751.015,96.311z"/>
		<path fill="#FFFFFF" d="M758.431,99.152c-0.563,0.532-1.224,0.798-1.981,0.798s-1.385-0.233-1.88-0.701
			c-0.495-0.467-0.742-1.094-0.742-1.879c0-0.786,0.252-1.411,0.756-1.875c0.505-0.465,1.101-0.696,1.787-0.696
			s1.271,0.207,1.75,0.622c0.479,0.414,0.719,0.983,0.719,1.708v0.742H755.2c0.044,0.272,0.187,0.495,0.428,0.668
			c0.241,0.174,0.514,0.26,0.816,0.26c0.489,0,0.892-0.163,1.207-0.491L758.431,99.152z M757.094,96.191
			c-0.191-0.161-0.425-0.242-0.7-0.242s-0.528,0.084-0.757,0.251s-0.362,0.394-0.399,0.678h2.191
			C757.397,96.581,757.286,96.351,757.094,96.191z"/>
		<path fill="#FFFFFF" d="M760.278,99.23c-0.477-0.479-0.715-1.095-0.715-1.847s0.231-1.37,0.696-1.856
			c0.464-0.485,0.98-0.729,1.55-0.729s1.067,0.213,1.494,0.641v-0.558h1.401v6.795h-1.401v-2.2
			c-0.396,0.315-0.848,0.474-1.355,0.474C761.312,99.95,760.754,99.71,760.278,99.23z M760.965,97.383
			c0,0.405,0.12,0.736,0.362,0.993c0.241,0.257,0.522,0.385,0.845,0.385c0.321,0,0.594-0.128,0.816-0.385s0.334-0.588,0.334-0.993
			s-0.111-0.742-0.334-1.012s-0.498-0.404-0.826-0.404s-0.609,0.135-0.845,0.404S760.965,96.978,760.965,97.383z"/>
	</g>
</g>
<line fill="none" stroke="#1E120D" stroke-width="0.25" stroke-miterlimit="10" x1="669.077" y1="70.897" x2="669.077" y2="87.999"/>
<line fill="none" stroke="#1E120D" stroke-width="0.25" stroke-miterlimit="10" x1="724.304" y1="70.897" x2="724.304" y2="87.999"/>
</svg>
