<?xml version="1.0" encoding="utf-8"?>
<!-- Generator: Adobe Illustrator 17.0.0, SVG Export Plug-In . SVG Version: 6.00 Build 0)  -->
<!DOCTYPE svg PUBLIC "-//W3C//DTD SVG 1.1//EN" "http://www.w3.org/Graphics/SVG/1.1/DTD/svg11.dtd">
<svg version="1.1" id="Capa_1" xmlns="http://www.w3.org/2000/svg" xmlns:xlink="http://www.w3.org/1999/xlink" x="0px" y="0px"
	 width="770px" height="523px" viewBox="0 0 770 523" enable-background="new 0 0 770 523" xml:space="preserve">
<rect x="2.032" y="143.166" fill="none" stroke="#1E120D" stroke-width="1.0011" stroke-miterlimit="10" width="382.635" height="17.012"/>
<g>
	<g>
		<path fill="#1E120D" d="M458.361,45.715c0.615,0,1.118-0.243,1.509-0.73l0.803,0.826c-0.637,0.717-1.387,1.075-2.251,1.075
			s-1.575-0.272-2.135-0.818c-0.559-0.545-0.838-1.234-0.838-2.066c0-0.832,0.284-1.526,0.854-2.082
			c0.569-0.557,1.267-0.834,2.09-0.834c0.92,0,1.69,0.35,2.312,1.051l-0.778,0.883c-0.396-0.492-0.889-0.738-1.477-0.738
			c-0.471,0-0.874,0.154-1.208,0.461s-0.502,0.722-0.502,1.244c0,0.521,0.158,0.94,0.474,1.255
			C457.529,45.557,457.912,45.715,458.361,45.715z"/>
		<path fill="#1E120D" d="M465.656,46.822l-0.521-1.212h-2.352l-0.521,1.212h-1.332l2.423-5.609h1.212l2.424,5.609H465.656z
			 M463.963,42.882l-0.706,1.629h1.404L463.963,42.882z"/>
		<path fill="#1E120D" d="M471.562,41.213h1.252v5.609h-1.252l-2.672-3.515v3.515h-1.252v-5.609h1.171l2.753,3.611V41.213z"/>
		<path fill="#1E120D" d="M476.77,45.715c0.615,0,1.118-0.243,1.509-0.73l0.803,0.826c-0.637,0.717-1.387,1.075-2.251,1.075
			s-1.575-0.272-2.135-0.818c-0.559-0.545-0.838-1.234-0.838-2.066c0-0.832,0.284-1.526,0.854-2.082
			c0.569-0.557,1.267-0.834,2.09-0.834c0.92,0,1.69,0.35,2.312,1.051l-0.778,0.883c-0.396-0.492-0.889-0.738-1.477-0.738
			c-0.471,0-0.874,0.154-1.208,0.461s-0.502,0.722-0.502,1.244c0,0.521,0.158,0.94,0.474,1.255
			C475.938,45.557,476.32,45.715,476.77,45.715z"/>
		<path fill="#1E120D" d="M483.551,41.213h1.252v5.609h-1.252v-2.207h-2.23v2.207h-1.252v-5.609h1.252v2.343h2.23V41.213z"/>
		<path fill="#1E120D" d="M490.179,46.822l-0.521-1.212h-2.352l-0.521,1.212h-1.332l2.423-5.609h1.212l2.424,5.609H490.179z
			 M488.485,42.882l-0.706,1.629h1.404L488.485,42.882z"/>
		<path fill="#1E120D" d="M498.203,41.213h1.252v5.609h-1.252l-2.672-3.515v3.515h-1.252v-5.609h1.171l2.753,3.611V41.213z"/>
		<path fill="#1E120D" d="M502.905,42.216c0,0.315-0.112,0.582-0.337,0.798c-0.226,0.217-0.508,0.325-0.847,0.325
			c-0.34,0-0.622-0.11-0.847-0.329s-0.337-0.485-0.337-0.798s0.112-0.579,0.337-0.799c0.225-0.219,0.507-0.329,0.847-0.329
			c0.339,0,0.621,0.109,0.847,0.329C502.793,41.633,502.905,41.9,502.905,42.216z M501.308,42.212c0,0.147,0.039,0.266,0.117,0.357
			c0.077,0.091,0.176,0.136,0.297,0.136c0.12,0,0.219-0.045,0.297-0.136c0.077-0.091,0.116-0.21,0.116-0.357
			c0-0.147-0.039-0.268-0.116-0.361c-0.078-0.093-0.177-0.141-0.297-0.141c-0.121,0-0.22,0.047-0.297,0.141
			C501.347,41.945,501.308,42.065,501.308,42.212z"/>
		<path fill="#1E120D" d="M459.782,62.84l-0.521-1.212h-2.352l-0.521,1.212h-1.332l2.423-5.609h1.212l2.424,5.609H459.782z
			 M458.089,58.9l-0.706,1.629h1.404L458.089,58.9z M458.618,56.653h-1.147l1.02-1.42l1.243,0.522L458.618,56.653z"/>
		<path fill="#1E120D" d="M466.314,59.092c0,0.899-0.356,1.479-1.067,1.741l1.42,2.006h-1.54l-1.244-1.79h-0.866v1.79h-1.252v-5.609
			h2.126c0.872,0,1.494,0.147,1.866,0.441C466.128,57.966,466.314,58.44,466.314,59.092z M464.806,59.758
			c0.155-0.139,0.232-0.359,0.232-0.662c0-0.302-0.08-0.509-0.24-0.622c-0.161-0.112-0.441-0.168-0.843-0.168h-0.938v1.661h0.914
			C464.358,59.967,464.65,59.897,464.806,59.758z"/>
		<path fill="#1E120D" d="M470.054,62.84h-2.455v-5.609h2.183c0.38,0,0.707,0.045,0.982,0.136s0.483,0.214,0.622,0.369
			c0.252,0.289,0.377,0.615,0.377,0.979c0,0.438-0.142,0.765-0.425,0.979c-0.097,0.075-0.163,0.122-0.201,0.14
			c-0.037,0.019-0.104,0.05-0.2,0.092c0.348,0.075,0.624,0.231,0.83,0.47c0.206,0.238,0.31,0.534,0.31,0.887
			c0,0.391-0.134,0.735-0.401,1.035C471.364,62.666,470.824,62.84,470.054,62.84z M468.851,59.501h0.594
			c0.348,0,0.605-0.037,0.774-0.112c0.168-0.075,0.252-0.236,0.252-0.485c0-0.249-0.077-0.413-0.232-0.494
			c-0.155-0.08-0.417-0.12-0.786-0.12h-0.602V59.501z M468.851,61.781h0.858c0.358,0,0.627-0.044,0.807-0.132
			c0.179-0.088,0.269-0.262,0.269-0.522c0-0.259-0.095-0.43-0.285-0.513c-0.189-0.083-0.493-0.125-0.911-0.125h-0.737V61.781z"/>
		<path fill="#1E120D" d="M473.128,57.231h1.252v5.609h-1.252V57.231z"/>
		<path fill="#1E120D" d="M478.135,58.314v4.526h-1.252v-4.526h-1.589v-1.083h4.43v1.083H478.135z"/>
		<path fill="#1E120D" d="M485.188,59.092c0,0.899-0.356,1.479-1.067,1.741l1.42,2.006h-1.54l-1.244-1.79h-0.866v1.79h-1.252v-5.609
			h2.126c0.872,0,1.494,0.147,1.866,0.441C485.002,57.966,485.188,58.44,485.188,59.092z M483.68,59.758
			c0.155-0.139,0.232-0.359,0.232-0.662c0-0.302-0.08-0.509-0.24-0.622c-0.161-0.112-0.441-0.168-0.843-0.168h-0.938v1.661h0.914
			C483.232,59.967,483.524,59.897,483.68,59.758z"/>
		<path fill="#1E120D" d="M491.19,62.065c-0.566,0.554-1.265,0.831-2.094,0.831c-0.83,0-1.527-0.277-2.095-0.831
			s-0.851-1.242-0.851-2.066c0-0.824,0.283-1.513,0.851-2.066c0.567-0.554,1.265-0.831,2.095-0.831c0.829,0,1.527,0.277,2.094,0.831
			c0.567,0.553,0.851,1.242,0.851,2.066C492.041,60.823,491.758,61.512,491.19,62.065z M490.766,60.003
			c0-0.5-0.161-0.927-0.481-1.28c-0.321-0.353-0.716-0.529-1.184-0.529c-0.469,0-0.863,0.176-1.184,0.529
			c-0.321,0.353-0.481,0.78-0.481,1.28c0,0.5,0.16,0.925,0.481,1.276c0.32,0.35,0.715,0.525,1.184,0.525
			c0.468,0,0.862-0.175,1.184-0.525C490.604,60.929,490.766,60.503,490.766,60.003z"/>
	</g>
</g>
<g>
	<path fill="#1E120D" d="M12.697,136.582c0.326,0,0.606-0.055,0.841-0.164s0.48-0.284,0.737-0.525l0.609,0.625
		c-0.593,0.657-1.312,0.985-2.158,0.985c-0.847,0-1.549-0.272-2.106-0.817c-0.558-0.544-0.837-1.233-0.837-2.066
		c0-0.833,0.284-1.527,0.853-2.083c0.568-0.555,1.287-0.833,2.154-0.833s1.592,0.32,2.174,0.961l-0.601,0.656
		c-0.267-0.256-0.52-0.435-0.757-0.536c-0.238-0.102-0.517-0.152-0.837-0.152c-0.566,0-1.041,0.183-1.426,0.548
		c-0.384,0.366-0.577,0.833-0.577,1.402c0,0.568,0.191,1.044,0.573,1.425C11.721,136.391,12.173,136.582,12.697,136.582z"/>
	<path fill="#1E120D" d="M20.722,136.666c-0.566,0.553-1.265,0.829-2.098,0.829s-1.533-0.276-2.099-0.829
		c-0.566-0.552-0.849-1.241-0.849-2.066c0-0.825,0.283-1.514,0.849-2.066s1.266-0.829,2.099-0.829s1.532,0.276,2.098,0.829
		s0.849,1.241,0.849,2.066C21.571,135.425,21.288,136.114,20.722,136.666z M20.029,133.162c-0.382-0.395-0.85-0.592-1.405-0.592
		c-0.556,0-1.024,0.197-1.406,0.592c-0.382,0.396-0.572,0.875-0.572,1.438c0,0.563,0.19,1.042,0.572,1.438s0.85,0.592,1.406,0.592
		c0.555,0,1.023-0.197,1.405-0.592s0.573-0.875,0.573-1.438C20.602,134.037,20.411,133.558,20.029,133.162z"/>
	<path fill="#1E120D" d="M22.764,137.439v-5.598h0.945v4.701h2.555v0.897H22.764z"/>
	<path fill="#1E120D" d="M31.981,136.666c-0.566,0.553-1.265,0.829-2.098,0.829s-1.533-0.276-2.099-0.829
		c-0.566-0.552-0.849-1.241-0.849-2.066c0-0.825,0.283-1.514,0.849-2.066s1.266-0.829,2.099-0.829s1.532,0.276,2.098,0.829
		s0.849,1.241,0.849,2.066C32.831,135.425,32.547,136.114,31.981,136.666z M31.289,133.162c-0.382-0.395-0.85-0.592-1.405-0.592
		c-0.556,0-1.024,0.197-1.406,0.592c-0.382,0.396-0.572,0.875-0.572,1.438c0,0.563,0.19,1.042,0.572,1.438s0.85,0.592,1.406,0.592
		c0.555,0,1.023-0.197,1.405-0.592s0.573-0.875,0.573-1.438C31.861,134.037,31.67,133.558,31.289,133.162z"/>
	<path fill="#1E120D" d="M38.492,133.659c0,0.924-0.403,1.506-1.209,1.746l1.466,2.034h-1.201l-1.337-1.882h-1.242v1.882h-0.945
		v-5.598h2.082c0.854,0,1.466,0.144,1.834,0.433C38.308,132.562,38.492,133.023,38.492,133.659z M37.235,134.452
		c0.192-0.166,0.289-0.431,0.289-0.797s-0.099-0.617-0.296-0.753c-0.198-0.136-0.55-0.204-1.057-0.204h-1.202v2.002h1.177
		C36.68,134.7,37.042,134.617,37.235,134.452z"/>
	<path fill="#1E120D" d="M46.284,132.574c0.54,0.488,0.809,1.168,0.809,2.038c0,0.871-0.262,1.559-0.785,2.066
		c-0.523,0.507-1.324,0.761-2.403,0.761h-1.858v-5.598h1.922C44.974,131.841,45.745,132.085,46.284,132.574z M46.14,134.636
		c0-1.281-0.734-1.922-2.202-1.922h-0.945v3.836h1.049c0.678,0,1.197-0.161,1.558-0.484C45.96,135.743,46.14,135.266,46.14,134.636z
		"/>
	<path fill="#1E120D" d="M52.243,131.841v0.889h-2.987v1.481h2.683v0.841h-2.683v1.498h3.083v0.889h-4.028v-5.598H52.243z"/>
	<path fill="#1E120D" d="M58.297,136.582c0.326,0,0.606-0.055,0.841-0.164s0.48-0.284,0.737-0.525l0.609,0.625
		c-0.593,0.657-1.312,0.985-2.158,0.985c-0.847,0-1.549-0.272-2.106-0.817c-0.558-0.544-0.837-1.233-0.837-2.066
		c0-0.833,0.284-1.527,0.853-2.083c0.568-0.555,1.287-0.833,2.154-0.833s1.592,0.32,2.174,0.961l-0.601,0.656
		c-0.267-0.256-0.52-0.435-0.757-0.536c-0.238-0.102-0.517-0.152-0.837-0.152c-0.566,0-1.041,0.183-1.426,0.548
		c-0.384,0.366-0.577,0.833-0.577,1.402c0,0.568,0.191,1.044,0.573,1.425C57.322,136.391,57.774,136.582,58.297,136.582z"/>
	<path fill="#1E120D" d="M62.43,136.166l-0.561,1.273H60.86l2.467-5.598h1.009l2.467,5.598h-1.009l-0.561-1.273H62.43z
		 M64.849,135.292l-1.017-2.306l-1.017,2.306H64.849z"/>
	<path fill="#1E120D" d="M68.524,137.439H67.58v-5.598h1.474l1.69,3.516l1.689-3.516h1.466v5.598h-0.945v-4.373L71,136.95h-0.529
		l-1.946-3.884V137.439z"/>
	<path fill="#1E120D" d="M75.452,131.841h0.945v5.598h-0.945V131.841z"/>
	<path fill="#1E120D" d="M79.645,132.578c-0.275,0-0.5,0.056-0.677,0.168c-0.176,0.112-0.264,0.281-0.264,0.508
		s0.088,0.4,0.264,0.521s0.551,0.25,1.125,0.389c0.574,0.139,1.006,0.333,1.298,0.584c0.291,0.251,0.436,0.621,0.436,1.109
		c0,0.488-0.184,0.885-0.552,1.189c-0.369,0.305-0.852,0.457-1.45,0.457c-0.875,0-1.652-0.301-2.331-0.905l0.593-0.713
		c0.566,0.491,1.153,0.737,1.762,0.737c0.304,0,0.546-0.065,0.725-0.196c0.179-0.131,0.268-0.304,0.268-0.521
		s-0.084-0.384-0.252-0.504c-0.168-0.12-0.458-0.229-0.869-0.329c-0.411-0.099-0.724-0.189-0.937-0.272
		c-0.214-0.083-0.403-0.191-0.569-0.325c-0.331-0.25-0.497-0.635-0.497-1.153c0-0.518,0.188-0.917,0.565-1.197
		s0.842-0.42,1.397-0.42c0.357,0,0.713,0.059,1.065,0.176c0.353,0.118,0.657,0.283,0.913,0.497l-0.504,0.713
		c-0.166-0.149-0.39-0.272-0.673-0.369C80.198,132.626,79.919,132.578,79.645,132.578z"/>
	<path fill="#1E120D" d="M86.928,131.841v0.889h-2.987v1.481h2.683v0.841h-2.683v1.498h3.083v0.889h-4.028v-5.598H86.928z"/>
	<path fill="#1E120D" d="M90.348,132.706v4.733h-0.945v-4.733h-1.698v-0.865h4.341v0.865H90.348z"/>
	<path fill="#1E120D" d="M93.864,136.166l-0.561,1.273h-1.009l2.467-5.598h1.009l2.467,5.598h-1.009l-0.561-1.273H93.864z
		 M96.282,135.292l-1.017-2.306l-1.017,2.306H96.282z"/>
	<path fill="#1E120D" d="M98.985,135.365c-0.115-0.117-0.172-0.259-0.172-0.424s0.057-0.306,0.172-0.42
		c0.115-0.115,0.255-0.172,0.42-0.172c0.165,0,0.307,0.058,0.424,0.172c0.117,0.115,0.176,0.255,0.176,0.42
		s-0.059,0.307-0.176,0.424c-0.118,0.118-0.259,0.176-0.424,0.176C99.24,135.541,99.1,135.482,98.985,135.365z M98.985,137.327
		c-0.115-0.117-0.172-0.259-0.172-0.424s0.057-0.306,0.172-0.42c0.115-0.115,0.255-0.172,0.42-0.172
		c0.165,0,0.307,0.058,0.424,0.172c0.117,0.115,0.176,0.255,0.176,0.42s-0.059,0.307-0.176,0.424
		c-0.118,0.118-0.259,0.176-0.424,0.176C99.24,137.503,99.1,137.444,98.985,137.327z"/>
</g>
<g>
	<g>
		<path fill="#1E120D" d="M338.246,132.706v4.733h-0.945v-4.733h-1.698v-0.865h4.341v0.865H338.246z"/>
		<path fill="#1E120D" d="M341.762,136.166l-0.561,1.273h-1.009l2.467-5.598h1.009l2.467,5.598h-1.009l-0.561-1.273H341.762z
			 M344.18,135.292l-1.017-2.306l-1.017,2.306H344.18z"/>
		<path fill="#1E120D" d="M351.38,133.659c0,0.924-0.403,1.506-1.209,1.746l1.466,2.034h-1.201l-1.337-1.882h-1.242v1.882h-0.945
			v-5.598h2.082c0.854,0,1.466,0.144,1.834,0.433C351.196,132.562,351.38,133.023,351.38,133.659z M350.123,134.452
			c0.192-0.166,0.289-0.431,0.289-0.797s-0.099-0.617-0.296-0.753c-0.198-0.136-0.55-0.204-1.057-0.204h-1.202v2.002h1.177
			C349.567,134.7,349.93,134.617,350.123,134.452z"/>
		<path fill="#1E120D" d="M352.925,132.69v-0.849h2.723v3.692c0,0.652-0.166,1.14-0.497,1.466s-0.756,0.488-1.273,0.488
			c-0.651,0-1.207-0.229-1.666-0.688l0.537-0.745c0.363,0.347,0.718,0.521,1.065,0.521c0.246,0,0.455-0.083,0.628-0.249
			c0.174-0.166,0.26-0.414,0.26-0.745v-2.891H352.925z"/>
		<path fill="#1E120D" d="M361.086,131.841v0.889h-2.987v1.481h2.683v0.841h-2.683v1.498h3.083v0.889h-4.028v-5.598H361.086z"/>
		<path fill="#1E120D" d="M364.506,132.706v4.733h-0.945v-4.733h-1.698v-0.865h4.341v0.865H364.506z"/>
		<path fill="#1E120D" d="M368.021,136.166l-0.561,1.273h-1.009l2.467-5.598h1.009l2.467,5.598h-1.009l-0.561-1.273H368.021z
			 M370.44,135.292l-1.017-2.306l-1.017,2.306H370.44z"/>
		<path fill="#1E120D" d="M374.865,132.578c-0.275,0-0.5,0.056-0.677,0.168c-0.176,0.112-0.264,0.281-0.264,0.508
			s0.088,0.4,0.264,0.521s0.551,0.25,1.125,0.389c0.574,0.139,1.006,0.333,1.298,0.584c0.291,0.251,0.436,0.621,0.436,1.109
			c0,0.488-0.184,0.885-0.552,1.189c-0.369,0.305-0.852,0.457-1.45,0.457c-0.875,0-1.652-0.301-2.331-0.905l0.593-0.713
			c0.566,0.491,1.153,0.737,1.762,0.737c0.304,0,0.546-0.065,0.725-0.196c0.179-0.131,0.268-0.304,0.268-0.521
			s-0.084-0.384-0.252-0.504c-0.168-0.12-0.458-0.229-0.869-0.329c-0.411-0.099-0.724-0.189-0.937-0.272
			c-0.214-0.083-0.403-0.191-0.569-0.325c-0.331-0.25-0.497-0.635-0.497-1.153c0-0.518,0.188-0.917,0.565-1.197
			s0.842-0.42,1.397-0.42c0.357,0,0.713,0.059,1.065,0.176c0.353,0.118,0.657,0.283,0.913,0.497l-0.504,0.713
			c-0.166-0.149-0.39-0.272-0.673-0.369C375.418,132.626,375.14,132.578,374.865,132.578z"/>
	</g>
</g>
<g>
	<path fill="#1E120D" d="M13.232,148.737h1.45v6.495h-1.45l-3.094-4.07v4.07H8.689v-6.495h1.356l3.187,4.181V148.737z"/>
	<path fill="#1E120D" d="M18.677,149.898c0,0.365-0.13,0.673-0.39,0.924s-0.587,0.376-0.98,0.376c-0.393,0-0.72-0.127-0.98-0.381
		s-0.391-0.562-0.391-0.925s0.13-0.67,0.391-0.924s0.587-0.381,0.98-0.381c0.394,0,0.72,0.127,0.98,0.381
		S18.677,149.533,18.677,149.898z M16.828,149.894c0,0.17,0.045,0.308,0.135,0.414s0.205,0.158,0.344,0.158
		c0.14,0,0.254-0.052,0.344-0.158c0.089-0.105,0.135-0.243,0.135-0.414s-0.045-0.31-0.135-0.418
		c-0.09-0.108-0.205-0.163-0.344-0.163c-0.139,0-0.254,0.054-0.344,0.163S16.828,149.723,16.828,149.894z"/>
</g>
<g>
	<path fill="#1E120D" d="M66.445,148.737h1.45v6.495h-1.45l-3.094-4.07v4.07h-1.449v-6.495h1.356l3.187,4.181V148.737z"/>
	<path fill="#1E120D" d="M74.352,152.732c0,0.725-0.25,1.335-0.752,1.831s-1.132,0.743-1.891,0.743s-1.389-0.248-1.891-0.743
		c-0.502-0.496-0.753-1.106-0.753-1.831c0-0.725,0.251-1.336,0.753-1.835c0.501-0.499,1.132-0.748,1.891-0.748
		s1.389,0.25,1.891,0.748C74.102,151.396,74.352,152.007,74.352,152.732z M70.468,152.732c0,0.409,0.116,0.742,0.348,0.999
		c0.232,0.257,0.53,0.385,0.892,0.385c0.363,0,0.66-0.128,0.892-0.385c0.232-0.257,0.349-0.59,0.349-0.999s-0.116-0.744-0.349-1.003
		c-0.232-0.26-0.529-0.391-0.892-0.391c-0.362,0-0.66,0.13-0.892,0.391C70.584,151.989,70.468,152.324,70.468,152.732z"/>
	<path fill="#1E120D" d="M79.974,152.537v2.695h-1.403V152.5c0-0.396-0.061-0.688-0.182-0.874c-0.121-0.186-0.316-0.279-0.585-0.279
		c-0.27,0-0.508,0.101-0.716,0.302s-0.311,0.497-0.311,0.887v2.695h-1.394v-4.999h1.394v0.567c0.384-0.434,0.824-0.651,1.319-0.651
		c0.316,0,0.603,0.093,0.859,0.279c0.257,0.186,0.451,0.412,0.581,0.679c0.192-0.304,0.451-0.539,0.776-0.707
		c0.325-0.167,0.652-0.251,0.98-0.251c0.589,0,1.062,0.175,1.422,0.525s0.539,0.856,0.539,1.519v3.039h-1.403V152.5
		c0-0.768-0.282-1.152-0.846-1.152c-0.278,0-0.52,0.101-0.725,0.302S79.974,152.147,79.974,152.537z"/>
	<path fill="#1E120D" d="M87.398,150.149c0.607,0,1.136,0.237,1.589,0.711c0.452,0.474,0.678,1.083,0.678,1.826
		c0,0.743-0.232,1.366-0.697,1.868c-0.465,0.501-0.993,0.752-1.584,0.752c-0.592,0-1.083-0.245-1.473-0.734v0.66h-1.394v-6.895
		h1.394v2.453C86.295,150.363,86.791,150.149,87.398,150.149z M85.893,152.737c0,0.406,0.113,0.737,0.339,0.995
		c0.226,0.257,0.5,0.385,0.822,0.385c0.322,0,0.604-0.128,0.846-0.385c0.242-0.257,0.362-0.587,0.362-0.99s-0.118-0.74-0.353-1.013
		c-0.235-0.273-0.517-0.409-0.846-0.409c-0.328,0-0.605,0.135-0.832,0.404S85.893,152.332,85.893,152.737z"/>
	<path fill="#1E120D" d="M93.335,151.459c-0.415,0-0.725,0.147-0.929,0.441c-0.205,0.294-0.307,0.683-0.307,1.166v2.165h-1.394
		v-4.999H92.1v0.66c0.18-0.205,0.404-0.378,0.673-0.521c0.27-0.143,0.544-0.217,0.823-0.223l0.009,1.311H93.335z"/>
	<path fill="#1E120D" d="M98.854,154.507c-0.563,0.533-1.225,0.799-1.984,0.799s-1.386-0.233-1.881-0.702
		c-0.496-0.467-0.744-1.095-0.744-1.881s0.252-1.413,0.757-1.877c0.505-0.465,1.101-0.697,1.789-0.697
		c0.688,0,1.271,0.208,1.751,0.623c0.48,0.416,0.72,0.985,0.72,1.71v0.743h-3.643c0.043,0.273,0.186,0.496,0.427,0.669
		s0.514,0.26,0.818,0.26c0.489,0,0.892-0.164,1.208-0.492L98.854,154.507z M97.517,151.543c-0.192-0.161-0.426-0.242-0.702-0.242
		c-0.276,0-0.528,0.083-0.757,0.251s-0.362,0.394-0.399,0.678h2.193C97.82,151.933,97.708,151.704,97.517,151.543z"/>
</g>
<g>
	<path fill="#1E120D" d="M310.506,151.924h1.459v2.305c-0.645,0.719-1.536,1.078-2.676,1.078c-0.954,0-1.754-0.316-2.402-0.948
		s-0.971-1.429-0.971-2.393s0.33-1.767,0.99-2.412c0.66-0.644,1.456-0.966,2.388-0.966c0.932,0,1.742,0.307,2.43,0.92l-0.752,1.087
		c-0.292-0.254-0.559-0.429-0.804-0.525c-0.245-0.096-0.51-0.144-0.794-0.144c-0.552,0-1.016,0.188-1.394,0.562
		c-0.378,0.375-0.567,0.869-0.567,1.482s0.181,1.104,0.544,1.473c0.362,0.369,0.794,0.553,1.296,0.553
		c0.502,0,0.92-0.096,1.254-0.288V151.924z"/>
	<path fill="#1E120D" d="M318.116,152.732c0,0.725-0.25,1.335-0.752,1.831s-1.132,0.743-1.891,0.743s-1.389-0.248-1.891-0.743
		c-0.502-0.496-0.753-1.106-0.753-1.831c0-0.725,0.251-1.336,0.753-1.835c0.501-0.499,1.132-0.748,1.891-0.748
		s1.389,0.25,1.891,0.748C317.866,151.396,318.116,152.007,318.116,152.732z M314.232,152.732c0,0.409,0.116,0.742,0.348,0.999
		c0.232,0.257,0.53,0.385,0.892,0.385c0.363,0,0.66-0.128,0.892-0.385c0.232-0.257,0.349-0.59,0.349-0.999s-0.116-0.744-0.349-1.003
		c-0.232-0.26-0.529-0.391-0.892-0.391c-0.362,0-0.66,0.13-0.892,0.391C314.349,151.989,314.232,152.324,314.232,152.732z"/>
	<path fill="#1E120D" d="M320.542,155.232h-1.394v-6.895h1.394V155.232z"/>
</g>
<g>
	<path fill="#1E120D" d="M202.255,149.587c0.619,0.567,0.929,1.355,0.929,2.365c0,1.01-0.302,1.809-0.906,2.397
		c-0.604,0.589-1.525,0.883-2.764,0.883h-2.221v-6.495h2.295C200.747,148.737,201.636,149.02,202.255,149.587z M201.191,153.448
		c0.356-0.334,0.534-0.821,0.534-1.459c0-0.638-0.178-1.129-0.534-1.473c-0.356-0.344-0.903-0.516-1.64-0.516h-0.809v3.949h0.92
		C200.326,153.95,200.835,153.782,201.191,153.448z"/>
	<path fill="#1E120D" d="M208.982,148.737h1.45v6.495h-1.45l-3.094-4.07v4.07h-1.449v-6.495h1.356l3.187,4.181V148.737z"/>
	<path fill="#1E120D" d="M212.03,148.737h1.449v6.495h-1.449V148.737z"/>
</g>
<g>
	<path fill="#1E120D" d="M261.32,148.737v1.273h-3.011v1.403h2.862v1.273h-2.862v2.546h-1.449v-6.495H261.32z"/>
	<path fill="#1E120D" d="M262.523,149.596c-0.158-0.158-0.237-0.352-0.237-0.581s0.079-0.423,0.237-0.581
		c0.158-0.158,0.352-0.237,0.581-0.237c0.229,0,0.423,0.079,0.581,0.237c0.158,0.158,0.237,0.352,0.237,0.581
		s-0.079,0.423-0.237,0.581c-0.158,0.158-0.352,0.237-0.581,0.237C262.875,149.833,262.681,149.754,262.523,149.596z
		 M263.801,155.232h-1.394v-4.999h1.394V155.232z"/>
	<path fill="#1E120D" d="M267.75,151.459c-0.415,0-0.725,0.147-0.929,0.441c-0.205,0.294-0.307,0.683-0.307,1.166v2.165h-1.394
		v-4.999h1.394v0.66c0.18-0.205,0.404-0.378,0.673-0.521c0.27-0.143,0.544-0.217,0.823-0.223l0.009,1.311H267.75z"/>
	<path fill="#1E120D" d="M273.529,152.537v2.695h-1.403V152.5c0-0.396-0.061-0.688-0.182-0.874
		c-0.121-0.186-0.316-0.279-0.585-0.279c-0.27,0-0.508,0.101-0.716,0.302s-0.311,0.497-0.311,0.887v2.695h-1.394v-4.999h1.394v0.567
		c0.384-0.434,0.824-0.651,1.319-0.651c0.316,0,0.603,0.093,0.859,0.279c0.257,0.186,0.451,0.412,0.581,0.679
		c0.192-0.304,0.451-0.539,0.776-0.707c0.325-0.167,0.652-0.251,0.98-0.251c0.589,0,1.062,0.175,1.422,0.525
		s0.539,0.856,0.539,1.519v3.039h-1.403V152.5c0-0.768-0.282-1.152-0.846-1.152c-0.278,0-0.52,0.101-0.725,0.302
		S273.529,152.147,273.529,152.537z"/>
	<path fill="#1E120D" d="M282.319,155.232h-1.31v-0.604c-0.359,0.452-0.804,0.678-1.333,0.678s-0.974-0.153-1.333-0.46
		s-0.539-0.715-0.539-1.227c0-0.511,0.186-0.894,0.558-1.147s0.879-0.381,1.524-0.381h1.041v-0.028c0-0.533-0.282-0.799-0.845-0.799
		c-0.242,0-0.497,0.048-0.767,0.144s-0.497,0.215-0.683,0.358l-0.623-0.901c0.657-0.477,1.406-0.716,2.249-0.716
		c0.607,0,1.103,0.152,1.487,0.456s0.576,0.784,0.576,1.44V155.232z M280.916,153.327v-0.242h-0.873
		c-0.558,0-0.836,0.173-0.836,0.521c0,0.18,0.066,0.317,0.2,0.414c0.133,0.096,0.324,0.144,0.571,0.144
		c0.248,0,0.466-0.076,0.655-0.228C280.822,153.784,280.916,153.581,280.916,153.327z"/>
</g>
<g>
	<path fill="#1E120D" d="M339.265,155.232l-0.604-1.403h-2.723l-0.604,1.403h-1.542l2.806-6.495h1.403l2.806,6.495H339.265z
		 M337.304,150.669l-0.817,1.886h1.626L337.304,150.669z"/>
	<path fill="#1E120D" d="M346.01,152.537v2.695h-1.403V152.5c0-0.396-0.061-0.688-0.182-0.874c-0.121-0.186-0.316-0.279-0.585-0.279
		c-0.27,0-0.508,0.101-0.716,0.302s-0.311,0.497-0.311,0.887v2.695h-1.394v-4.999h1.394v0.567c0.384-0.434,0.824-0.651,1.319-0.651
		c0.316,0,0.603,0.093,0.859,0.279c0.257,0.186,0.451,0.412,0.581,0.679c0.192-0.304,0.451-0.539,0.776-0.707
		c0.325-0.167,0.652-0.251,0.98-0.251c0.589,0,1.062,0.175,1.422,0.525s0.539,0.856,0.539,1.519v3.039h-1.403V152.5
		c0-0.768-0.282-1.152-0.846-1.152c-0.278,0-0.52,0.101-0.725,0.302S346.01,152.147,346.01,152.537z"/>
</g>
<g>
	<path fill="#1E120D" d="M369.576,150.893c0,1.041-0.412,1.713-1.236,2.016l1.645,2.323h-1.784l-1.44-2.072h-1.004v2.072h-1.449
		v-6.495h2.462c1.009,0,1.729,0.17,2.16,0.511C369.361,149.588,369.576,150.137,369.576,150.893z M367.829,151.664
		c0.18-0.161,0.27-0.417,0.27-0.767c0-0.35-0.093-0.59-0.279-0.72c-0.186-0.13-0.511-0.195-0.976-0.195h-1.087v1.923h1.06
		C367.312,151.905,367.649,151.825,367.829,151.664z"/>
	<path fill="#1E120D" d="M375.922,152.732c0,0.725-0.25,1.335-0.752,1.831s-1.132,0.743-1.891,0.743s-1.389-0.248-1.891-0.743
		c-0.502-0.496-0.753-1.106-0.753-1.831c0-0.725,0.251-1.336,0.753-1.835c0.501-0.499,1.132-0.748,1.891-0.748
		s1.389,0.25,1.891,0.748C375.672,151.396,375.922,152.007,375.922,152.732z M372.039,152.732c0,0.409,0.116,0.742,0.348,0.999
		c0.232,0.257,0.53,0.385,0.892,0.385c0.363,0,0.66-0.128,0.892-0.385c0.232-0.257,0.349-0.59,0.349-0.999s-0.116-0.744-0.349-1.003
		c-0.232-0.26-0.529-0.391-0.892-0.391c-0.362,0-0.66,0.13-0.892,0.391C372.155,151.989,372.039,152.324,372.039,152.732z"/>
</g>
<g>
	<path fill="#1E120D" d="M232.269,42.289v-1.075h2.921v3.659c0,0.668-0.173,1.168-0.518,1.5c-0.345,0.332-0.788,0.498-1.328,0.498
		c-0.674,0-1.263-0.26-1.766-0.779l0.65-0.898c0.337,0.364,0.69,0.545,1.06,0.545c0.176,0,0.328-0.068,0.453-0.205
		c0.126-0.136,0.188-0.341,0.188-0.614v-2.632H232.269z"/>
	<path fill="#1E120D" d="M241.047,46.048c-0.567,0.554-1.266,0.831-2.095,0.831s-1.527-0.277-2.094-0.831s-0.851-1.242-0.851-2.066
		c0-0.824,0.284-1.513,0.851-2.066c0.567-0.554,1.265-0.831,2.094-0.831s1.527,0.277,2.095,0.831
		c0.567,0.553,0.851,1.242,0.851,2.066C241.898,44.806,241.614,45.494,241.047,46.048z M240.622,43.986
		c0-0.5-0.161-0.927-0.481-1.28c-0.321-0.353-0.716-0.529-1.184-0.529c-0.468,0-0.863,0.176-1.184,0.529
		c-0.321,0.353-0.481,0.78-0.481,1.28c0,0.5,0.161,0.925,0.481,1.276c0.321,0.35,0.716,0.525,1.184,0.525
		c0.468,0,0.862-0.175,1.184-0.525C240.461,44.911,240.622,44.486,240.622,43.986z"/>
	<path fill="#1E120D" d="M247.313,43.075c0,0.899-0.355,1.479-1.067,1.741l1.42,2.006h-1.541l-1.244-1.79h-0.867v1.79h-1.252v-5.609
		h2.126c0.872,0,1.494,0.147,1.866,0.441C247.128,41.949,247.313,42.422,247.313,43.075z M245.805,43.741
		c0.155-0.139,0.232-0.359,0.232-0.662c0-0.302-0.08-0.509-0.241-0.622c-0.16-0.112-0.441-0.168-0.842-0.168h-0.939v1.661h0.915
		C245.358,43.95,245.65,43.88,245.805,43.741z"/>
	<path fill="#1E120D" d="M252.329,41.213h1.251v5.609h-1.251l-2.672-3.515v3.515h-1.252v-5.609h1.172l2.752,3.611V41.213z"/>
	<path fill="#1E120D" d="M258.764,46.822l-0.522-1.212h-2.351l-0.521,1.212h-1.332l2.423-5.609h1.211l2.424,5.609H258.764z
		 M257.071,42.882l-0.706,1.629h1.404L257.071,42.882z"/>
	<path fill="#1E120D" d="M264.838,41.947c0.535,0.49,0.803,1.17,0.803,2.042s-0.261,1.562-0.783,2.07s-1.317,0.762-2.387,0.762
		h-1.918v-5.609h1.982C263.536,41.213,264.303,41.458,264.838,41.947z M263.919,45.282c0.308-0.289,0.461-0.709,0.461-1.26
		c0-0.551-0.154-0.975-0.461-1.271s-0.779-0.445-1.416-0.445h-0.698v3.41h0.794C263.172,45.715,263.612,45.57,263.919,45.282z"/>
	<path fill="#1E120D" d="M270.528,46.822l-0.522-1.212h-2.351l-0.521,1.212h-1.332l2.423-5.609h1.211l2.424,5.609H270.528z
		 M268.834,42.882l-0.706,1.629h1.404L268.834,42.882z"/>
	<path fill="#1E120D" d="M278.167,41.213h1.251v5.609h-1.251l-2.672-3.515v3.515h-1.252v-5.609h1.172l2.752,3.611V41.213z"/>
	<path fill="#1E120D" d="M282.676,42.216c0,0.315-0.112,0.582-0.337,0.798s-0.507,0.325-0.847,0.325s-0.622-0.11-0.846-0.329
		c-0.225-0.219-0.337-0.485-0.337-0.798s0.112-0.579,0.337-0.799c0.225-0.219,0.506-0.329,0.846-0.329s0.622,0.109,0.847,0.329
		C282.563,41.633,282.676,41.9,282.676,42.216z M281.079,42.212c0,0.147,0.039,0.266,0.116,0.357s0.177,0.136,0.297,0.136
		c0.121,0,0.219-0.045,0.297-0.136s0.117-0.21,0.117-0.357c0-0.147-0.039-0.268-0.117-0.361c-0.078-0.093-0.176-0.141-0.297-0.141
		c-0.12,0-0.219,0.047-0.297,0.141C281.118,41.945,281.079,42.065,281.079,42.212z"/>
	<path fill="#1E120D" d="M233.372,58.35c-0.12,0.099-0.18,0.23-0.18,0.393c0,0.164,0.073,0.293,0.22,0.389
		c0.147,0.097,0.487,0.21,1.02,0.341c0.532,0.131,0.945,0.328,1.24,0.59c0.294,0.262,0.441,0.645,0.441,1.147
		s-0.189,0.911-0.566,1.224s-0.874,0.469-1.489,0.469c-0.888,0-1.688-0.329-2.399-0.987l0.746-0.915
		c0.604,0.529,1.164,0.794,1.677,0.794c0.23,0,0.41-0.05,0.542-0.148c0.131-0.099,0.197-0.233,0.197-0.401s-0.07-0.302-0.209-0.401
		c-0.139-0.099-0.415-0.199-0.826-0.301c-0.653-0.155-1.13-0.357-1.433-0.606c-0.302-0.249-0.453-0.639-0.453-1.171
		s0.191-0.943,0.574-1.232c0.382-0.289,0.86-0.433,1.432-0.433c0.375,0,0.749,0.064,1.124,0.192s0.701,0.311,0.979,0.546
		l-0.634,0.915c-0.487-0.369-0.99-0.554-1.509-0.554C233.657,58.202,233.492,58.251,233.372,58.35z"/>
	<path fill="#1E120D" d="M241.224,57.231v1.115h-2.792v1.155h2.512v1.067h-2.512v1.164h2.881v1.107h-4.133v-5.609H241.224z"/>
	<path fill="#1E120D" d="M246.712,57.965c0.535,0.49,0.803,1.17,0.803,2.042s-0.261,1.562-0.783,2.07s-1.317,0.762-2.387,0.762
		h-1.918v-5.609h1.982C245.41,57.231,246.177,57.476,246.712,57.965z M245.793,61.299c0.308-0.289,0.461-0.709,0.461-1.26
		c0-0.551-0.154-0.975-0.461-1.271s-0.779-0.445-1.416-0.445h-0.698v3.41h0.794C245.046,61.732,245.486,61.588,245.793,61.299z"/>
	<path fill="#1E120D" d="M252.643,57.231v1.115h-2.792v1.155h2.512v1.067h-2.512v1.164h2.881v1.107h-4.133v-5.609H252.643z"/>
</g>
<g>
	<g>
		<path fill="#1E120D" d="M6.101,41.214v1.099h-2.6v1.212h2.472v1.099H3.501v2.199H2.249v-5.609H6.101z"/>
		<path fill="#1E120D" d="M11.012,41.214v1.115H8.22v1.155h2.512v1.067H8.22v1.164h2.881v1.107H6.968v-5.609H11.012z"/>
		<path fill="#1E120D" d="M14.792,45.715c0.615,0,1.118-0.243,1.508-0.73l0.803,0.826c-0.637,0.717-1.387,1.075-2.251,1.075
			c-0.864,0-1.576-0.272-2.135-0.818c-0.559-0.545-0.838-1.234-0.838-2.066c0-0.832,0.285-1.526,0.854-2.082
			c0.57-0.557,1.267-0.834,2.09-0.834c0.92,0,1.69,0.35,2.311,1.051l-0.778,0.883c-0.396-0.492-0.888-0.738-1.477-0.738
			c-0.471,0-0.873,0.154-1.208,0.461s-0.501,0.722-0.501,1.244c0,0.521,0.158,0.94,0.474,1.255
			C13.96,45.558,14.342,45.715,14.792,45.715z"/>
		<path fill="#1E120D" d="M21.573,41.214h1.251v5.609h-1.251v-2.207h-2.231v2.207H18.09v-5.609h1.252v2.343h2.231V41.214z"/>
		<path fill="#1E120D" d="M28.201,46.823l-0.522-1.212h-2.351l-0.521,1.212h-1.332l2.423-5.609h1.211l2.424,5.609H28.201z
			 M26.508,42.883l-0.706,1.629h1.404L26.508,42.883z"/>
		<path fill="#1E120D" d="M5.732,57.231h1.251v5.609H5.732v-2.207H3.501v2.207H2.249v-5.609h1.252v2.343h2.231V57.231z"/>
		<path fill="#1E120D" d="M13.083,62.066c-0.567,0.554-1.266,0.831-2.095,0.831S9.46,62.62,8.894,62.066S8.043,60.824,8.043,60
			c0-0.824,0.284-1.513,0.851-2.066c0.567-0.554,1.265-0.831,2.094-0.831s1.527,0.277,2.095,0.831
			c0.567,0.553,0.851,1.242,0.851,2.066C13.933,60.824,13.649,61.512,13.083,62.066z M12.657,60.004c0-0.5-0.161-0.927-0.481-1.28
			c-0.321-0.353-0.716-0.529-1.184-0.529c-0.468,0-0.863,0.176-1.184,0.529c-0.321,0.353-0.481,0.78-0.481,1.28
			c0,0.5,0.161,0.925,0.481,1.276c0.321,0.35,0.716,0.525,1.184,0.525c0.468,0,0.862-0.175,1.184-0.525
			C12.497,60.929,12.657,60.504,12.657,60.004z"/>
		<path fill="#1E120D" d="M19.542,59.093c0,0.899-0.355,1.479-1.067,1.741l1.42,2.006h-1.541l-1.244-1.79h-0.867v1.79h-1.252v-5.609
			h2.126c0.872,0,1.494,0.147,1.866,0.441C19.356,57.967,19.542,58.44,19.542,59.093z M18.033,59.759
			c0.155-0.139,0.232-0.359,0.232-0.662c0-0.302-0.08-0.509-0.241-0.622c-0.16-0.112-0.441-0.168-0.842-0.168h-0.939v1.661h0.915
			C17.586,59.968,17.878,59.898,18.033,59.759z"/>
		<path fill="#1E120D" d="M24.822,62.84L24.3,61.628h-2.351l-0.521,1.212h-1.332l2.423-5.609h1.211l2.424,5.609H24.822z
			 M23.128,58.9l-0.706,1.629h1.404L23.128,58.9z"/>
	</g>
</g>
<line fill="none" stroke="#1E120D" stroke-width="0.2503" stroke-miterlimit="10" x1="170.287" y1="160.23" x2="170.287" y2="481.669"/>
<line fill="none" stroke="#1E120D" stroke-width="0.2503" stroke-miterlimit="10" x1="239.532" y1="160.23" x2="239.532" y2="481.669"/>
<line fill="none" stroke="#1E120D" stroke-width="0.2503" stroke-miterlimit="10" x1="327.614" y1="75.154" x2="327.614" y2="481.669"/>
<line fill="none" stroke="#1E120D" stroke-width="0.2503" stroke-miterlimit="10" x1="356.222" y1="160.23" x2="356.222" y2="481.669"/>
<line fill="none" stroke="#1E120D" stroke-width="2.9595" stroke-miterlimit="10" x1="384.831" y1="100.151" x2="384.831" y2="481.349"/>
<line fill="none" stroke="#1E120D" stroke-width="0.2503" stroke-miterlimit="10" x1="2.666" y1="126.173" x2="766.444" y2="126.173"/>
<rect x="1.262" y="73.992" fill="none" stroke="#1E120D" stroke-width="2.998" stroke-miterlimit="10" width="766.487" height="407.844"/>
<g>
	<circle fill="#FFFFFF" stroke="#1E120D" stroke-width="2.9595" stroke-miterlimit="10" cx="385.242" cy="111.541" r="13.071"/>
	<g>
		<path fill="#1E120D" d="M380.899,115.913l-2.776-7.025h2.033l1.747,4.418l1.747-4.418h2.033l-2.776,7.025H380.899z"/>
		<path fill="#1E120D" d="M391.926,113.73c0,0.691-0.254,1.245-0.763,1.662c-0.508,0.417-1.153,0.626-1.936,0.626
			c-0.521,0-1.064-0.094-1.629-0.28c-0.565-0.187-1.073-0.463-1.525-0.828l0.86-1.226c0.73,0.565,1.508,0.847,2.333,0.847
			c0.252,0,0.452-0.05,0.6-0.15c0.148-0.1,0.222-0.232,0.222-0.397c0-0.165-0.102-0.317-0.306-0.456
			c-0.205-0.139-0.5-0.269-0.887-0.391c-0.387-0.122-0.683-0.226-0.887-0.313c-0.204-0.086-0.437-0.212-0.697-0.378
			c-0.53-0.33-0.795-0.819-0.795-1.466c0-0.647,0.261-1.175,0.782-1.583c0.521-0.408,1.194-0.613,2.021-0.613
			c0.825,0,1.65,0.278,2.477,0.834l-0.73,1.303c-0.608-0.417-1.214-0.625-1.818-0.625c-0.604,0-0.905,0.165-0.905,0.495
			c0,0.183,0.096,0.326,0.286,0.43c0.191,0.104,0.509,0.226,0.952,0.365c0.443,0.139,0.758,0.246,0.944,0.319
			c0.188,0.074,0.411,0.189,0.672,0.345C391.683,112.546,391.926,113.039,391.926,113.73z"/>
	</g>
</g>
<g>
	
		<line fill="none" stroke="#1E120D" stroke-width="0.2503" stroke-miterlimit="10" x1="22.233" y1="143.212" x2="22.233" y2="481.669"/>
</g>
<line fill="none" stroke="#1E120D" stroke-width="0.36" stroke-miterlimit="10" x1="1.654" y1="191.08" x2="766.639" y2="191.08"/>
<line fill="none" stroke="#1E120D" stroke-width="0.36" stroke-miterlimit="10" x1="2.107" y1="219.831" x2="766.639" y2="219.831"/>
<line fill="none" stroke="#1E120D" stroke-width="0.36" stroke-miterlimit="10" x1="2.107" y1="248.582" x2="766.639" y2="248.582"/>
<line fill="none" stroke="#1E120D" stroke-width="0.36" stroke-miterlimit="10" x1="2.107" y1="277.333" x2="766.639" y2="277.333"/>
<line fill="none" stroke="#1E120D" stroke-width="0.36" stroke-miterlimit="10" x1="2.107" y1="306.085" x2="766.639" y2="306.085"/>
<line fill="none" stroke="#1E120D" stroke-width="0.36" stroke-miterlimit="10" x1="2.107" y1="334.836" x2="766.639" y2="334.836"/>
<line fill="none" stroke="#1E120D" stroke-width="0.36" stroke-miterlimit="10" x1="2.107" y1="363.587" x2="766.639" y2="363.587"/>
<line fill="none" stroke="#1E120D" stroke-width="0.36" stroke-miterlimit="10" x1="2.107" y1="392.338" x2="766.639" y2="392.338"/>
<line fill="none" stroke="#1E120D" stroke-width="0.36" stroke-miterlimit="10" x1="2.107" y1="421.089" x2="766.639" y2="421.089"/>
<line fill="none" stroke="#1E120D" stroke-width="0.36" stroke-miterlimit="10" x1="2.107" y1="449.84" x2="766.639" y2="449.84"/>
<line fill="none" stroke="#1E120D" stroke-width="0.36" stroke-miterlimit="10" x1="1.654" y1="176.48" x2="766.639" y2="176.48"/>
<line fill="none" stroke="#1E120D" stroke-width="0.36" stroke-miterlimit="10" x1="2.107" y1="205.231" x2="766.639" y2="205.231"/>
<line fill="none" stroke="#1E120D" stroke-width="0.36" stroke-miterlimit="10" x1="2.107" y1="233.983" x2="766.639" y2="233.983"/>
<line fill="none" stroke="#1E120D" stroke-width="0.36" stroke-miterlimit="10" x1="2.107" y1="262.734" x2="766.639" y2="262.734"/>
<line fill="none" stroke="#1E120D" stroke-width="0.36" stroke-miterlimit="10" x1="2.107" y1="291.485" x2="766.639" y2="291.485"/>
<line fill="none" stroke="#1E120D" stroke-width="0.36" stroke-miterlimit="10" x1="2.107" y1="320.236" x2="766.639" y2="320.236"/>
<line fill="none" stroke="#1E120D" stroke-width="0.36" stroke-miterlimit="10" x1="2.107" y1="348.987" x2="766.639" y2="348.987"/>
<line fill="none" stroke="#1E120D" stroke-width="0.36" stroke-miterlimit="10" x1="2.107" y1="377.738" x2="766.639" y2="377.738"/>
<line fill="none" stroke="#1E120D" stroke-width="0.36" stroke-miterlimit="10" x1="2.107" y1="406.489" x2="766.639" y2="406.489"/>
<line fill="none" stroke="#1E120D" stroke-width="0.36" stroke-miterlimit="10" x1="2.107" y1="435.24" x2="766.639" y2="435.24"/>
<line fill="none" stroke="#1E120D" stroke-width="0.36" stroke-miterlimit="10" x1="2.107" y1="463.992" x2="766.639" y2="463.992"/>
<rect x="386.115" y="143.166" fill="none" stroke="#1E120D" stroke-width="1.0011" stroke-miterlimit="10" width="381.634" height="17.012"/>
<g>
	<path fill="#1E120D" d="M395.778,136.582c0.325,0,0.605-0.055,0.841-0.164c0.234-0.109,0.48-0.284,0.736-0.525l0.608,0.625
		c-0.592,0.657-1.312,0.985-2.158,0.985c-0.846,0-1.548-0.272-2.106-0.817c-0.558-0.544-0.837-1.233-0.837-2.066
		c0-0.833,0.285-1.527,0.854-2.083s1.286-0.833,2.154-0.833c0.867,0,1.592,0.32,2.174,0.961l-0.601,0.656
		c-0.267-0.256-0.519-0.435-0.757-0.536c-0.237-0.102-0.517-0.152-0.837-0.152c-0.565,0-1.041,0.183-1.425,0.548
		c-0.385,0.366-0.577,0.833-0.577,1.402c0,0.568,0.191,1.044,0.573,1.425C394.802,136.391,395.255,136.582,395.778,136.582z"/>
	<path fill="#1E120D" d="M403.803,136.666c-0.566,0.553-1.266,0.829-2.099,0.829s-1.532-0.276-2.098-0.829
		c-0.566-0.552-0.85-1.241-0.85-2.066c0-0.825,0.283-1.514,0.85-2.066c0.565-0.553,1.265-0.829,2.098-0.829s1.532,0.276,2.099,0.829
		c0.565,0.553,0.849,1.241,0.849,2.066C404.651,135.425,404.368,136.114,403.803,136.666z M403.11,133.162
		c-0.382-0.395-0.851-0.592-1.406-0.592c-0.555,0-1.023,0.197-1.405,0.592c-0.382,0.396-0.572,0.875-0.572,1.438
		c0,0.563,0.19,1.042,0.572,1.438s0.851,0.592,1.405,0.592c0.556,0,1.024-0.197,1.406-0.592c0.381-0.395,0.572-0.875,0.572-1.438
		C403.683,134.037,403.491,133.558,403.11,133.162z"/>
	<path fill="#1E120D" d="M405.845,137.439v-5.598h0.945v4.701h2.555v0.897H405.845z"/>
	<path fill="#1E120D" d="M415.063,136.666c-0.566,0.553-1.266,0.829-2.099,0.829s-1.532-0.276-2.098-0.829
		c-0.566-0.552-0.85-1.241-0.85-2.066c0-0.825,0.283-1.514,0.85-2.066c0.565-0.553,1.265-0.829,2.098-0.829s1.532,0.276,2.099,0.829
		c0.565,0.553,0.849,1.241,0.849,2.066C415.912,135.425,415.629,136.114,415.063,136.666z M414.371,133.162
		c-0.382-0.395-0.851-0.592-1.406-0.592c-0.555,0-1.023,0.197-1.405,0.592c-0.382,0.396-0.572,0.875-0.572,1.438
		c0,0.563,0.19,1.042,0.572,1.438s0.851,0.592,1.405,0.592c0.556,0,1.024-0.197,1.406-0.592c0.381-0.395,0.572-0.875,0.572-1.438
		C414.943,134.037,414.752,133.558,414.371,133.162z"/>
	<path fill="#1E120D" d="M421.575,133.659c0,0.924-0.403,1.506-1.21,1.746l1.466,2.034h-1.201l-1.338-1.882h-1.241v1.882h-0.945
		v-5.598h2.083c0.854,0,1.465,0.144,1.834,0.433C421.391,132.562,421.575,133.023,421.575,133.659z M420.317,134.452
		c0.192-0.166,0.288-0.431,0.288-0.797s-0.099-0.617-0.296-0.753c-0.197-0.136-0.55-0.204-1.058-0.204h-1.201v2.002h1.178
		C419.762,134.7,420.125,134.617,420.317,134.452z"/>
	<path fill="#1E120D" d="M429.367,132.574c0.539,0.488,0.809,1.168,0.809,2.038c0,0.871-0.262,1.559-0.785,2.066
		s-1.324,0.761-2.402,0.761h-1.858v-5.598h1.923C428.056,131.841,428.827,132.085,429.367,132.574z M429.223,134.636
		c0-1.281-0.734-1.922-2.202-1.922h-0.945v3.836h1.05c0.678,0,1.197-0.161,1.558-0.484
		C429.043,135.743,429.223,135.266,429.223,134.636z"/>
	<path fill="#1E120D" d="M435.325,131.841v0.889h-2.987v1.481h2.683v0.841h-2.683v1.498h3.084v0.889h-4.029v-5.598H435.325z"/>
	<path fill="#1E120D" d="M441.38,136.582c0.325,0,0.605-0.055,0.841-0.164c0.234-0.109,0.48-0.284,0.736-0.525l0.608,0.625
		c-0.592,0.657-1.312,0.985-2.158,0.985c-0.846,0-1.548-0.272-2.106-0.817c-0.558-0.544-0.837-1.233-0.837-2.066
		c0-0.833,0.285-1.527,0.854-2.083s1.286-0.833,2.154-0.833c0.867,0,1.592,0.32,2.174,0.961l-0.601,0.656
		c-0.267-0.256-0.519-0.435-0.757-0.536c-0.237-0.102-0.517-0.152-0.837-0.152c-0.565,0-1.041,0.183-1.425,0.548
		c-0.385,0.366-0.577,0.833-0.577,1.402c0,0.568,0.191,1.044,0.573,1.425C440.403,136.391,440.856,136.582,441.38,136.582z"/>
	<path fill="#1E120D" d="M445.512,136.166l-0.561,1.273h-1.009l2.467-5.598h1.009l2.467,5.598h-1.009l-0.561-1.273H445.512z
		 M447.931,135.292l-1.017-2.306l-1.018,2.306H447.931z"/>
	<path fill="#1E120D" d="M451.606,137.439h-0.945v-5.598h1.474l1.69,3.516l1.689-3.516h1.466v5.598h-0.945v-4.373l-1.954,3.884
		h-0.528l-1.946-3.884V137.439z"/>
	<path fill="#1E120D" d="M458.533,131.841h0.945v5.598h-0.945V131.841z"/>
	<path fill="#1E120D" d="M462.727,132.578c-0.275,0-0.501,0.056-0.677,0.168c-0.176,0.112-0.265,0.281-0.265,0.508
		s0.089,0.4,0.265,0.521s0.551,0.25,1.125,0.389c0.574,0.139,1.007,0.333,1.298,0.584s0.437,0.621,0.437,1.109
		c0,0.488-0.185,0.885-0.553,1.189c-0.368,0.305-0.852,0.457-1.45,0.457c-0.875,0-1.652-0.301-2.33-0.905l0.593-0.713
		c0.565,0.491,1.153,0.737,1.762,0.737c0.305,0,0.546-0.065,0.725-0.196s0.269-0.304,0.269-0.521s-0.084-0.384-0.252-0.504
		c-0.169-0.12-0.458-0.229-0.869-0.329c-0.411-0.099-0.724-0.189-0.938-0.272c-0.213-0.083-0.402-0.191-0.568-0.325
		c-0.331-0.25-0.496-0.635-0.496-1.153c0-0.518,0.188-0.917,0.564-1.197c0.376-0.28,0.842-0.42,1.397-0.42
		c0.357,0,0.713,0.059,1.065,0.176c0.352,0.118,0.656,0.283,0.912,0.497l-0.504,0.713c-0.166-0.149-0.39-0.272-0.673-0.369
		C463.28,132.626,463.001,132.578,462.727,132.578z"/>
	<path fill="#1E120D" d="M470.01,131.841v0.889h-2.987v1.481h2.683v0.841h-2.683v1.498h3.084v0.889h-4.029v-5.598H470.01z"/>
	<path fill="#1E120D" d="M473.43,132.706v4.733h-0.945v-4.733h-1.698v-0.865h4.341v0.865H473.43z"/>
	<path fill="#1E120D" d="M476.944,136.166l-0.561,1.273h-1.009l2.467-5.598h1.009l2.467,5.598h-1.009l-0.561-1.273H476.944z
		 M479.363,135.292l-1.017-2.306l-1.018,2.306H479.363z"/>
	<path fill="#1E120D" d="M482.066,135.365c-0.115-0.117-0.173-0.259-0.173-0.424s0.058-0.306,0.173-0.42
		c0.114-0.115,0.255-0.172,0.42-0.172c0.166,0,0.308,0.058,0.425,0.172s0.176,0.255,0.176,0.42s-0.059,0.307-0.176,0.424
		c-0.117,0.118-0.259,0.176-0.425,0.176C482.321,135.541,482.181,135.482,482.066,135.365z M482.066,137.327
		c-0.115-0.117-0.173-0.259-0.173-0.424s0.058-0.306,0.173-0.42c0.114-0.115,0.255-0.172,0.42-0.172
		c0.166,0,0.308,0.058,0.425,0.172s0.176,0.255,0.176,0.42s-0.059,0.307-0.176,0.424c-0.117,0.118-0.259,0.176-0.425,0.176
		C482.321,137.503,482.181,137.444,482.066,137.327z"/>
</g>
<g>
	<g>
		<path fill="#1E120D" d="M721.328,132.706v4.733h-0.945v-4.733h-1.698v-0.865h4.341v0.865H721.328z"/>
		<path fill="#1E120D" d="M724.843,136.166l-0.561,1.273h-1.009l2.467-5.598h1.009l2.467,5.598h-1.009l-0.561-1.273H724.843z
			 M727.262,135.292l-1.017-2.306l-1.018,2.306H727.262z"/>
		<path fill="#1E120D" d="M734.462,133.659c0,0.924-0.403,1.506-1.21,1.746l1.466,2.034h-1.201l-1.338-1.882h-1.241v1.882h-0.945
			v-5.598h2.083c0.854,0,1.465,0.144,1.834,0.433C734.277,132.562,734.462,133.023,734.462,133.659z M733.204,134.452
			c0.192-0.166,0.288-0.431,0.288-0.797s-0.099-0.617-0.296-0.753c-0.197-0.136-0.55-0.204-1.058-0.204h-1.201v2.002h1.178
			C732.648,134.7,733.012,134.617,733.204,134.452z"/>
		<path fill="#1E120D" d="M736.007,132.69v-0.849h2.723v3.692c0,0.652-0.165,1.14-0.496,1.466s-0.756,0.488-1.273,0.488
			c-0.651,0-1.207-0.229-1.666-0.688l0.537-0.745c0.362,0.347,0.718,0.521,1.064,0.521c0.246,0,0.455-0.083,0.629-0.249
			s0.261-0.414,0.261-0.745v-2.891H736.007z"/>
		<path fill="#1E120D" d="M744.168,131.841v0.889h-2.987v1.481h2.683v0.841h-2.683v1.498h3.084v0.889h-4.029v-5.598H744.168z"/>
		<path fill="#1E120D" d="M747.588,132.706v4.733h-0.945v-4.733h-1.698v-0.865h4.341v0.865H747.588z"/>
		<path fill="#1E120D" d="M751.103,136.166l-0.561,1.273h-1.009l2.467-5.598h1.009l2.467,5.598h-1.009l-0.561-1.273H751.103z
			 M753.521,135.292l-1.017-2.306l-1.018,2.306H753.521z"/>
		<path fill="#1E120D" d="M757.946,132.578c-0.275,0-0.501,0.056-0.677,0.168c-0.176,0.112-0.265,0.281-0.265,0.508
			s0.089,0.4,0.265,0.521s0.551,0.25,1.125,0.389c0.574,0.139,1.007,0.333,1.298,0.584s0.437,0.621,0.437,1.109
			c0,0.488-0.185,0.885-0.553,1.189c-0.368,0.305-0.852,0.457-1.45,0.457c-0.875,0-1.652-0.301-2.33-0.905l0.593-0.713
			c0.565,0.491,1.153,0.737,1.762,0.737c0.305,0,0.546-0.065,0.725-0.196s0.269-0.304,0.269-0.521s-0.084-0.384-0.252-0.504
			c-0.169-0.12-0.458-0.229-0.869-0.329c-0.411-0.099-0.724-0.189-0.938-0.272c-0.213-0.083-0.402-0.191-0.568-0.325
			c-0.331-0.25-0.496-0.635-0.496-1.153c0-0.518,0.188-0.917,0.564-1.197c0.376-0.28,0.842-0.42,1.397-0.42
			c0.357,0,0.713,0.059,1.065,0.176c0.352,0.118,0.656,0.283,0.912,0.497l-0.504,0.713c-0.166-0.149-0.39-0.272-0.673-0.369
			C758.5,132.626,758.221,132.578,757.946,132.578z"/>
	</g>
</g>
<g>
	<path fill="#1E120D" d="M396.313,148.737h1.45v6.495h-1.45l-3.094-4.07v4.07h-1.45v-6.495h1.357l3.187,4.181V148.737z"/>
	<path fill="#1E120D" d="M401.759,149.898c0,0.365-0.13,0.673-0.39,0.924c-0.261,0.251-0.588,0.376-0.98,0.376
		c-0.394,0-0.721-0.127-0.98-0.381c-0.261-0.254-0.391-0.562-0.391-0.925s0.13-0.67,0.391-0.924c0.26-0.254,0.587-0.381,0.98-0.381
		c0.393,0,0.72,0.127,0.98,0.381C401.629,149.223,401.759,149.533,401.759,149.898z M399.91,149.894c0,0.17,0.045,0.308,0.135,0.414
		s0.204,0.158,0.344,0.158c0.139,0,0.254-0.052,0.344-0.158s0.135-0.243,0.135-0.414s-0.045-0.31-0.135-0.418
		s-0.205-0.163-0.344-0.163c-0.14,0-0.254,0.054-0.344,0.163S399.91,149.723,399.91,149.894z"/>
</g>
<g>
	<path fill="#1E120D" d="M449.526,148.737h1.45v6.495h-1.45l-3.094-4.07v4.07h-1.45v-6.495h1.357l3.187,4.181V148.737z"/>
	<path fill="#1E120D" d="M457.435,152.732c0,0.725-0.251,1.335-0.753,1.831s-1.132,0.743-1.891,0.743s-1.39-0.248-1.892-0.743
		c-0.501-0.496-0.752-1.106-0.752-1.831c0-0.725,0.251-1.336,0.752-1.835c0.502-0.499,1.133-0.748,1.892-0.748
		s1.389,0.25,1.891,0.748C457.184,151.396,457.435,152.007,457.435,152.732z M453.55,152.732c0,0.409,0.116,0.742,0.349,0.999
		c0.232,0.257,0.53,0.385,0.893,0.385s0.659-0.128,0.892-0.385c0.232-0.257,0.349-0.59,0.349-0.999s-0.116-0.744-0.349-1.003
		c-0.232-0.26-0.529-0.391-0.892-0.391s-0.66,0.13-0.893,0.391C453.666,151.989,453.55,152.324,453.55,152.732z"/>
	<path fill="#1E120D" d="M463.056,152.537v2.695h-1.403V152.5c0-0.396-0.061-0.688-0.181-0.874
		c-0.121-0.186-0.316-0.279-0.586-0.279s-0.508,0.101-0.715,0.302c-0.208,0.201-0.312,0.497-0.312,0.887v2.695h-1.394v-4.999h1.394
		v0.567c0.384-0.434,0.823-0.651,1.319-0.651c0.316,0,0.603,0.093,0.859,0.279c0.257,0.186,0.451,0.412,0.581,0.679
		c0.191-0.304,0.45-0.539,0.775-0.707c0.325-0.167,0.652-0.251,0.98-0.251c0.589,0,1.062,0.175,1.422,0.525s0.539,0.856,0.539,1.519
		v3.039h-1.403V152.5c0-0.768-0.282-1.152-0.846-1.152c-0.278,0-0.521,0.101-0.725,0.302S463.056,152.147,463.056,152.537z"/>
	<path fill="#1E120D" d="M470.479,150.149c0.607,0,1.137,0.237,1.589,0.711c0.452,0.474,0.679,1.083,0.679,1.826
		c0,0.743-0.232,1.366-0.697,1.868c-0.464,0.501-0.992,0.752-1.584,0.752s-1.083-0.245-1.473-0.734v0.66H467.6v-6.895h1.394v2.453
		C469.377,150.363,469.873,150.149,470.479,150.149z M468.975,152.737c0,0.406,0.112,0.737,0.339,0.995
		c0.227,0.257,0.5,0.385,0.822,0.385s0.604-0.128,0.846-0.385c0.241-0.257,0.362-0.587,0.362-0.99s-0.117-0.74-0.353-1.013
		c-0.236-0.273-0.518-0.409-0.846-0.409c-0.329,0-0.605,0.135-0.832,0.404S468.975,152.332,468.975,152.737z"/>
	<path fill="#1E120D" d="M476.417,151.459c-0.415,0-0.725,0.147-0.929,0.441c-0.204,0.294-0.307,0.683-0.307,1.166v2.165h-1.394
		v-4.999h1.394v0.66c0.18-0.205,0.404-0.378,0.674-0.521s0.543-0.217,0.822-0.223l0.009,1.311H476.417z"/>
	<path fill="#1E120D" d="M481.938,154.507c-0.564,0.533-1.226,0.799-1.984,0.799s-1.386-0.233-1.882-0.702
		c-0.495-0.467-0.743-1.095-0.743-1.881s0.253-1.413,0.758-1.877c0.505-0.465,1.101-0.697,1.788-0.697s1.271,0.208,1.752,0.623
		c0.479,0.416,0.72,0.985,0.72,1.71v0.743h-3.643c0.044,0.273,0.187,0.496,0.428,0.669s0.515,0.26,0.817,0.26
		c0.489,0,0.893-0.164,1.208-0.492L481.938,154.507z M480.599,151.543c-0.191-0.161-0.426-0.242-0.701-0.242
		s-0.528,0.083-0.757,0.251c-0.229,0.167-0.363,0.394-0.4,0.678h2.193C480.902,151.933,480.791,151.704,480.599,151.543z"/>
</g>
<g>
	<path fill="#1E120D" d="M693.588,151.924h1.459v2.305c-0.645,0.719-1.536,1.078-2.676,1.078c-0.954,0-1.755-0.316-2.402-0.948
		s-0.971-1.429-0.971-2.393s0.329-1.767,0.989-2.412c0.66-0.644,1.456-0.966,2.388-0.966c0.933,0,1.743,0.307,2.431,0.92
		l-0.753,1.087c-0.291-0.254-0.56-0.429-0.804-0.525c-0.245-0.096-0.51-0.144-0.795-0.144c-0.551,0-1.016,0.188-1.394,0.562
		c-0.378,0.375-0.566,0.869-0.566,1.482s0.181,1.104,0.543,1.473s0.795,0.553,1.297,0.553c0.501,0,0.92-0.096,1.254-0.288V151.924z"
		/>
	<path fill="#1E120D" d="M701.198,152.732c0,0.725-0.251,1.335-0.753,1.831s-1.132,0.743-1.891,0.743s-1.39-0.248-1.892-0.743
		c-0.501-0.496-0.752-1.106-0.752-1.831c0-0.725,0.251-1.336,0.752-1.835c0.502-0.499,1.133-0.748,1.892-0.748
		s1.389,0.25,1.891,0.748C700.947,151.396,701.198,152.007,701.198,152.732z M697.313,152.732c0,0.409,0.116,0.742,0.349,0.999
		c0.232,0.257,0.53,0.385,0.893,0.385s0.659-0.128,0.892-0.385c0.232-0.257,0.349-0.59,0.349-0.999s-0.116-0.744-0.349-1.003
		c-0.232-0.26-0.529-0.391-0.892-0.391s-0.66,0.13-0.893,0.391C697.43,151.989,697.313,152.324,697.313,152.732z"/>
	<path fill="#1E120D" d="M703.623,155.232h-1.394v-6.895h1.394V155.232z"/>
</g>
<g>
	<path fill="#1E120D" d="M585.336,149.587c0.62,0.567,0.93,1.355,0.93,2.365c0,1.01-0.302,1.809-0.906,2.397
		c-0.604,0.589-1.525,0.883-2.765,0.883h-2.221v-6.495h2.296C583.828,148.737,584.717,149.02,585.336,149.587z M584.272,153.448
		c0.356-0.334,0.534-0.821,0.534-1.459c0-0.638-0.178-1.129-0.534-1.473S583.369,150,582.632,150h-0.808v3.949h0.92
		C583.406,153.95,583.916,153.782,584.272,153.448z"/>
	<path fill="#1E120D" d="M592.063,148.737h1.45v6.495h-1.45l-3.094-4.07v4.07h-1.45v-6.495h1.357l3.187,4.181V148.737z"/>
	<path fill="#1E120D" d="M595.111,148.737h1.45v6.495h-1.45V148.737z"/>
</g>
<g>
	<path fill="#1E120D" d="M644.401,148.737v1.273h-3.011v1.403h2.861v1.273h-2.861v2.546h-1.45v-6.495H644.401z"/>
	<path fill="#1E120D" d="M645.604,149.596c-0.158-0.158-0.237-0.352-0.237-0.581s0.079-0.423,0.237-0.581
		c0.157-0.158,0.351-0.237,0.58-0.237s0.423,0.079,0.581,0.237c0.158,0.158,0.237,0.352,0.237,0.581s-0.079,0.423-0.237,0.581
		c-0.158,0.158-0.352,0.237-0.581,0.237S645.762,149.754,645.604,149.596z M646.882,155.232h-1.394v-4.999h1.394V155.232z"/>
	<path fill="#1E120D" d="M650.83,151.459c-0.415,0-0.725,0.147-0.929,0.441c-0.204,0.294-0.307,0.683-0.307,1.166v2.165h-1.394
		v-4.999h1.394v0.66c0.18-0.205,0.404-0.378,0.674-0.521s0.543-0.217,0.822-0.223l0.009,1.311H650.83z"/>
	<path fill="#1E120D" d="M656.61,152.537v2.695h-1.403V152.5c0-0.396-0.061-0.688-0.181-0.874c-0.121-0.186-0.316-0.279-0.586-0.279
		s-0.508,0.101-0.715,0.302c-0.208,0.201-0.312,0.497-0.312,0.887v2.695h-1.394v-4.999h1.394v0.567
		c0.384-0.434,0.823-0.651,1.319-0.651c0.316,0,0.603,0.093,0.859,0.279c0.257,0.186,0.451,0.412,0.581,0.679
		c0.191-0.304,0.45-0.539,0.775-0.707c0.325-0.167,0.652-0.251,0.98-0.251c0.589,0,1.062,0.175,1.422,0.525s0.539,0.856,0.539,1.519
		v3.039h-1.403V152.5c0-0.768-0.282-1.152-0.846-1.152c-0.278,0-0.521,0.101-0.725,0.302S656.61,152.147,656.61,152.537z"/>
	<path fill="#1E120D" d="M665.4,155.232h-1.311v-0.604c-0.359,0.452-0.804,0.678-1.333,0.678s-0.975-0.153-1.333-0.46
		c-0.359-0.307-0.539-0.715-0.539-1.227c0-0.511,0.186-0.894,0.558-1.147c0.371-0.254,0.879-0.381,1.523-0.381h1.041v-0.028
		c0-0.533-0.282-0.799-0.846-0.799c-0.242,0-0.497,0.048-0.767,0.144s-0.497,0.215-0.684,0.358l-0.622-0.901
		c0.656-0.477,1.406-0.716,2.249-0.716c0.606,0,1.103,0.152,1.486,0.456s0.576,0.784,0.576,1.44V155.232z M663.997,153.327v-0.242
		h-0.873c-0.558,0-0.837,0.173-0.837,0.521c0,0.18,0.067,0.317,0.2,0.414c0.133,0.096,0.323,0.144,0.571,0.144
		s0.466-0.076,0.655-0.228C663.902,153.784,663.997,153.581,663.997,153.327z"/>
</g>
<g>
	<path fill="#1E120D" d="M722.347,155.232l-0.604-1.403h-2.723l-0.604,1.403h-1.543l2.807-6.495h1.403l2.806,6.495H722.347z
		 M720.386,150.669l-0.817,1.886h1.626L720.386,150.669z"/>
	<path fill="#1E120D" d="M729.093,152.537v2.695h-1.403V152.5c0-0.396-0.061-0.688-0.181-0.874
		c-0.121-0.186-0.316-0.279-0.586-0.279s-0.508,0.101-0.715,0.302c-0.208,0.201-0.312,0.497-0.312,0.887v2.695h-1.394v-4.999h1.394
		v0.567c0.384-0.434,0.823-0.651,1.319-0.651c0.316,0,0.603,0.093,0.859,0.279c0.257,0.186,0.451,0.412,0.581,0.679
		c0.191-0.304,0.45-0.539,0.775-0.707c0.325-0.167,0.652-0.251,0.98-0.251c0.589,0,1.062,0.175,1.422,0.525s0.539,0.856,0.539,1.519
		v3.039h-1.403V152.5c0-0.768-0.282-1.152-0.846-1.152c-0.278,0-0.521,0.101-0.725,0.302S729.093,152.147,729.093,152.537z"/>
</g>
<g>
	<path fill="#1E120D" d="M752.657,150.893c0,1.041-0.412,1.713-1.235,2.016l1.645,2.323h-1.784l-1.44-2.072h-1.003v2.072h-1.45
		v-6.495h2.463c1.01,0,1.729,0.17,2.16,0.511C752.442,149.588,752.657,150.137,752.657,150.893z M750.911,151.664
		c0.179-0.161,0.269-0.417,0.269-0.767c0-0.35-0.093-0.59-0.278-0.72c-0.186-0.13-0.511-0.195-0.976-0.195h-1.087v1.923h1.059
		C750.394,151.905,750.73,151.825,750.911,151.664z"/>
	<path fill="#1E120D" d="M759.004,152.732c0,0.725-0.251,1.335-0.753,1.831s-1.132,0.743-1.891,0.743s-1.39-0.248-1.892-0.743
		c-0.501-0.496-0.752-1.106-0.752-1.831c0-0.725,0.251-1.336,0.752-1.835c0.502-0.499,1.133-0.748,1.892-0.748
		s1.389,0.25,1.891,0.748C758.753,151.396,759.004,152.007,759.004,152.732z M755.119,152.732c0,0.409,0.116,0.742,0.349,0.999
		c0.232,0.257,0.53,0.385,0.893,0.385s0.659-0.128,0.892-0.385c0.232-0.257,0.349-0.59,0.349-0.999s-0.116-0.744-0.349-1.003
		c-0.232-0.26-0.529-0.391-0.892-0.391s-0.66,0.13-0.893,0.391C755.235,151.989,755.119,152.324,755.119,152.732z"/>
</g>
<line fill="none" stroke="#1E120D" stroke-width="0.2503" stroke-miterlimit="10" x1="553.369" y1="160.23" x2="553.369" y2="481.669"/>
<line fill="none" stroke="#1E120D" stroke-width="0.2503" stroke-miterlimit="10" x1="622.613" y1="160.23" x2="622.613" y2="481.669"/>
<line fill="none" stroke="#1E120D" stroke-width="0.2503" stroke-miterlimit="10" x1="710.695" y1="126.193" x2="710.695" y2="481.669"/>
<line fill="none" stroke="#1E120D" stroke-width="0.2503" stroke-miterlimit="10" x1="739.304" y1="160.23" x2="739.304" y2="481.669"/>
<g>
	
		<line fill="none" stroke="#1E120D" stroke-width="0.2503" stroke-miterlimit="10" x1="405.314" y1="143.212" x2="405.314" y2="481.669"/>
</g>
<g>
	
		<line fill="none" stroke="#1E120D" stroke-width="0.2503" stroke-miterlimit="10" x1="441.458" y1="125.965" x2="441.458" y2="74.543"/>
</g>
<g>
	<g>
		<path fill="#1E120D" d="M3.493,508.28v1.537h2.483v0.873H3.493v2.307H2.548v-5.598H6.28l-0.008,0.881H3.493z"/>
		<path fill="#1E120D" d="M7.385,507.399H8.33v5.598H7.385V507.399z"/>
		<path fill="#1E120D" d="M14.353,509.217c0,0.924-0.403,1.506-1.209,1.746l1.466,2.034h-1.201l-1.337-1.882h-1.242v1.882H9.884
			v-5.598h2.082c0.854,0,1.466,0.144,1.834,0.432C14.168,508.12,14.353,508.582,14.353,509.217z M13.095,510.01
			c0.192-0.165,0.289-0.431,0.289-0.797c0-0.365-0.099-0.616-0.296-0.753c-0.198-0.136-0.55-0.204-1.057-0.204h-1.202v2.002h1.177
			C12.54,510.258,12.903,510.176,13.095,510.01z"/>
		<path fill="#1E120D" d="M16.659,512.997h-0.945v-5.598h1.474l1.69,3.516l1.689-3.516h1.466v5.598h-0.945v-4.373l-1.954,3.885
			h-0.529l-1.946-3.885V512.997z"/>
		<path fill="#1E120D" d="M24.379,511.724l-0.561,1.273H22.81l2.467-5.598h1.009l2.467,5.598h-1.009l-0.561-1.273H24.379z
			 M26.798,510.851l-1.017-2.307l-1.017,2.307H26.798z"/>
		<path fill="#1E120D" d="M35.959,508.132c0.54,0.488,0.809,1.168,0.809,2.038s-0.262,1.56-0.785,2.066
			c-0.523,0.507-1.324,0.761-2.403,0.761h-1.858v-5.598h1.922C34.649,507.399,35.42,507.644,35.959,508.132z M35.815,510.194
			c0-1.281-0.734-1.923-2.202-1.923h-0.945v3.837h1.049c0.678,0,1.197-0.162,1.558-0.484
			C35.635,511.301,35.815,510.824,35.815,510.194z"/>
		<path fill="#1E120D" d="M41.918,507.399v0.889h-2.987v1.481h2.683v0.841h-2.683v1.498h3.083v0.889h-4.028v-5.598H41.918z"/>
		<path fill="#1E120D" d="M43.224,512.997v-5.598h0.945v4.701h2.555v0.896H43.224z"/>
		<path fill="#1E120D" d="M51.688,507.399v0.889h-2.987v1.481h2.683v0.841h-2.683v1.498h3.083v0.889h-4.028v-5.598H51.688z"/>
		<path fill="#1E120D" d="M56.87,510.274h0.945v1.914c-0.529,0.582-1.284,0.873-2.267,0.873c-0.828,0-1.521-0.272-2.078-0.817
			c-0.558-0.545-0.837-1.233-0.837-2.066s0.284-1.526,0.853-2.082c0.568-0.555,1.256-0.833,2.062-0.833s1.476,0.235,2.01,0.705
			l-0.504,0.721c-0.219-0.187-0.439-0.316-0.661-0.389c-0.222-0.072-0.479-0.108-0.773-0.108c-0.566,0-1.041,0.184-1.426,0.549
			c-0.384,0.366-0.577,0.847-0.577,1.441c0,0.596,0.187,1.073,0.561,1.434c0.374,0.36,0.826,0.541,1.358,0.541
			c0.531,0,0.976-0.115,1.333-0.345V510.274z"/>
		<path fill="#1E120D" d="M59.85,511.724l-0.561,1.273H58.28l2.467-5.598h1.009l2.467,5.598h-1.009l-0.561-1.273H59.85z
			 M62.268,510.851l-1.017-2.307l-1.017,2.307H62.268z"/>
		<path fill="#1E120D" d="M69.235,508.132c0.54,0.488,0.809,1.168,0.809,2.038s-0.262,1.56-0.785,2.066
			c-0.523,0.507-1.324,0.761-2.403,0.761h-1.858v-5.598h1.922C67.925,507.399,68.696,507.644,69.235,508.132z M69.091,510.194
			c0-1.281-0.734-1.923-2.202-1.923h-0.945v3.837h1.049c0.678,0,1.197-0.162,1.558-0.484
			C68.911,511.301,69.091,510.824,69.091,510.194z"/>
		<path fill="#1E120D" d="M75.947,512.225c-0.566,0.552-1.265,0.828-2.098,0.828s-1.533-0.276-2.099-0.828
			c-0.566-0.553-0.849-1.242-0.849-2.066c0-0.825,0.283-1.514,0.849-2.066s1.266-0.829,2.099-0.829s1.532,0.276,2.098,0.829
			s0.849,1.241,0.849,2.066C76.796,510.982,76.513,511.672,75.947,512.225z M75.254,508.721c-0.382-0.396-0.85-0.593-1.405-0.593
			c-0.556,0-1.024,0.197-1.406,0.593c-0.382,0.395-0.572,0.874-0.572,1.438s0.19,1.042,0.572,1.438s0.85,0.593,1.406,0.593
			c0.555,0,1.023-0.197,1.405-0.593s0.573-0.874,0.573-1.438S75.636,509.115,75.254,508.721z"/>
	</g>
</g>
<g>
	<g>
		<path fill="#1E120D" d="M527.561,508.28v1.537h2.482v0.873h-2.482v2.307h-0.945v-5.598h3.732l-0.008,0.881H527.561z"/>
		<path fill="#1E120D" d="M531.452,507.399h0.945v5.598h-0.945V507.399z"/>
		<path fill="#1E120D" d="M538.421,509.217c0,0.924-0.403,1.506-1.21,1.746l1.466,2.034h-1.201l-1.338-1.882h-1.241v1.882h-0.945
			v-5.598h2.083c0.854,0,1.465,0.144,1.834,0.432C538.236,508.12,538.421,508.582,538.421,509.217z M537.163,510.01
			c0.192-0.165,0.288-0.431,0.288-0.797c0-0.365-0.099-0.616-0.296-0.753c-0.197-0.136-0.55-0.204-1.058-0.204h-1.201v2.002h1.178
			C536.607,510.258,536.971,510.176,537.163,510.01z"/>
		<path fill="#1E120D" d="M540.727,512.997h-0.945v-5.598h1.474l1.69,3.516l1.689-3.516h1.466v5.598h-0.945v-4.373l-1.954,3.885
			h-0.528l-1.946-3.885V512.997z"/>
		<path fill="#1E120D" d="M548.446,511.724l-0.561,1.273h-1.009l2.467-5.598h1.009l2.467,5.598h-1.009l-0.561-1.273H548.446z
			 M550.865,510.851l-1.017-2.307l-1.018,2.307H550.865z"/>
		<path fill="#1E120D" d="M560.027,508.132c0.539,0.488,0.809,1.168,0.809,2.038s-0.262,1.56-0.785,2.066s-1.324,0.761-2.402,0.761
			h-1.858v-5.598h1.923C558.716,507.399,559.487,507.644,560.027,508.132z M559.883,510.194c0-1.281-0.734-1.923-2.202-1.923h-0.945
			v3.837h1.05c0.678,0,1.197-0.162,1.558-0.484C559.703,511.301,559.883,510.824,559.883,510.194z"/>
		<path fill="#1E120D" d="M565.985,507.399v0.889h-2.987v1.481h2.683v0.841h-2.683v1.498h3.084v0.889h-4.029v-5.598H565.985z"/>
		<path fill="#1E120D" d="M567.29,512.997v-5.598h0.945v4.701h2.555v0.896H567.29z"/>
		<path fill="#1E120D" d="M575.756,507.399v0.889h-2.987v1.481h2.683v0.841h-2.683v1.498h3.084v0.889h-4.029v-5.598H575.756z"/>
		<path fill="#1E120D" d="M580.938,510.274h0.944v1.914c-0.528,0.582-1.284,0.873-2.266,0.873c-0.828,0-1.521-0.272-2.079-0.817
			c-0.558-0.545-0.837-1.233-0.837-2.066s0.285-1.526,0.854-2.082c0.568-0.555,1.256-0.833,2.062-0.833
			c0.806,0,1.476,0.235,2.01,0.705l-0.505,0.721c-0.219-0.187-0.438-0.316-0.66-0.389s-0.479-0.108-0.773-0.108
			c-0.565,0-1.041,0.184-1.425,0.549c-0.385,0.366-0.577,0.847-0.577,1.441c0,0.596,0.187,1.073,0.561,1.434
			s0.826,0.541,1.357,0.541s0.976-0.115,1.334-0.345V510.274z"/>
		<path fill="#1E120D" d="M583.916,511.724l-0.561,1.273h-1.009l2.467-5.598h1.009l2.467,5.598h-1.009l-0.561-1.273H583.916z
			 M586.335,510.851l-1.017-2.307l-1.018,2.307H586.335z"/>
		<path fill="#1E120D" d="M593.303,508.132c0.539,0.488,0.809,1.168,0.809,2.038s-0.262,1.56-0.785,2.066s-1.324,0.761-2.402,0.761
			h-1.858v-5.598h1.923C591.991,507.399,592.763,507.644,593.303,508.132z M593.158,510.194c0-1.281-0.734-1.923-2.202-1.923h-0.945
			v3.837h1.05c0.678,0,1.197-0.162,1.558-0.484C592.979,511.301,593.158,510.824,593.158,510.194z"/>
		<path fill="#1E120D" d="M600.014,512.225c-0.566,0.552-1.266,0.828-2.099,0.828s-1.532-0.276-2.098-0.828
			c-0.566-0.553-0.85-1.242-0.85-2.066c0-0.825,0.283-1.514,0.85-2.066c0.565-0.553,1.265-0.829,2.098-0.829
			s1.532,0.276,2.099,0.829c0.565,0.553,0.849,1.241,0.849,2.066C600.862,510.982,600.579,511.672,600.014,512.225z
			 M599.321,508.721c-0.382-0.396-0.851-0.593-1.406-0.593c-0.555,0-1.023,0.197-1.405,0.593c-0.382,0.395-0.572,0.874-0.572,1.438
			s0.19,1.042,0.572,1.438s0.851,0.593,1.405,0.593c0.556,0,1.024-0.197,1.406-0.593c0.381-0.396,0.572-0.874,0.572-1.438
			S599.702,509.115,599.321,508.721z"/>
	</g>
</g>
<g>
	<g>
		<path fill="#1E120D" d="M271.283,508.28v1.537h2.483v0.873h-2.483v2.307h-0.945v-5.598h3.732l-0.008,0.881H271.283z"/>
		<path fill="#1E120D" d="M275.175,507.399h0.945v5.598h-0.945V507.399z"/>
		<path fill="#1E120D" d="M282.143,509.217c0,0.924-0.403,1.506-1.209,1.746l1.466,2.034h-1.201l-1.337-1.882h-1.242v1.882h-0.945
			v-5.598h2.082c0.854,0,1.466,0.144,1.834,0.432C281.958,508.12,282.143,508.582,282.143,509.217z M280.885,510.01
			c0.192-0.165,0.289-0.431,0.289-0.797c0-0.365-0.099-0.616-0.296-0.753c-0.198-0.136-0.55-0.204-1.057-0.204h-1.202v2.002h1.177
			C280.33,510.258,280.693,510.176,280.885,510.01z"/>
		<path fill="#1E120D" d="M284.449,512.997h-0.945v-5.598h1.474l1.69,3.516l1.689-3.516h1.466v5.598h-0.945v-4.373l-1.954,3.885
			h-0.529l-1.946-3.885V512.997z"/>
		<path fill="#1E120D" d="M292.169,511.724l-0.561,1.273H290.6l2.467-5.598h1.009l2.467,5.598h-1.009l-0.561-1.273H292.169z
			 M294.588,510.851l-1.017-2.307l-1.017,2.307H294.588z"/>
		<path fill="#1E120D" d="M300.306,511.724l-0.561,1.273h-1.009l2.467-5.598h1.009l2.467,5.598h-1.009l-0.561-1.273H300.306z
			 M302.725,510.851l-1.017-2.307l-1.017,2.307H302.725z M302.14,506.927h-0.817l0.849-1.161l0.945,0.392L302.14,506.927z"/>
		<path fill="#1E120D" d="M309.924,509.217c0,0.924-0.403,1.506-1.209,1.746l1.466,2.034h-1.201l-1.337-1.882H306.4v1.882h-0.945
			v-5.598h2.082c0.854,0,1.466,0.144,1.834,0.432C309.74,508.12,309.924,508.582,309.924,509.217z M308.667,510.01
			c0.192-0.165,0.289-0.431,0.289-0.797c0-0.365-0.099-0.616-0.296-0.753c-0.198-0.136-0.55-0.204-1.057-0.204H306.4v2.002h1.177
			C308.112,510.258,308.475,510.176,308.667,510.01z"/>
		<path fill="#1E120D" d="M313.736,512.997h-2.451v-5.598h2.178c0.379,0,0.706,0.045,0.981,0.136
			c0.275,0.091,0.479,0.214,0.613,0.368c0.256,0.288,0.384,0.614,0.384,0.978c0,0.438-0.139,0.764-0.416,0.977
			c-0.102,0.075-0.171,0.122-0.208,0.141c-0.037,0.019-0.104,0.049-0.2,0.092c0.347,0.075,0.624,0.231,0.829,0.469
			c0.205,0.237,0.308,0.532,0.308,0.885c0,0.39-0.133,0.734-0.4,1.033C315.039,512.823,314.5,512.997,313.736,512.997z
			 M312.23,509.722h1.202c0.683,0,1.025-0.232,1.025-0.697c0-0.267-0.083-0.459-0.248-0.576c-0.166-0.117-0.422-0.177-0.769-0.177
			h-1.209V509.722z M312.23,512.124h1.482c0.347,0,0.612-0.055,0.797-0.164c0.184-0.109,0.276-0.316,0.276-0.621
			c0-0.496-0.398-0.744-1.193-0.744h-1.362V512.124z"/>
		<path fill="#1E120D" d="M316.94,507.399h0.945v5.598h-0.945V507.399z"/>
		<path fill="#1E120D" d="M321.553,508.264v4.733h-0.945v-4.733h-1.698v-0.864h4.341v0.864H321.553z"/>
		<path fill="#1E120D" d="M328.744,509.217c0,0.924-0.403,1.506-1.209,1.746l1.466,2.034h-1.201l-1.337-1.882h-1.242v1.882h-0.945
			v-5.598h2.082c0.854,0,1.466,0.144,1.834,0.432C328.56,508.12,328.744,508.582,328.744,509.217z M327.487,510.01
			c0.192-0.165,0.289-0.431,0.289-0.797c0-0.365-0.099-0.616-0.296-0.753c-0.198-0.136-0.55-0.204-1.057-0.204h-1.202v2.002h1.177
			C326.932,510.258,327.294,510.176,327.487,510.01z"/>
		<path fill="#1E120D" d="M334.791,512.225c-0.566,0.552-1.265,0.828-2.098,0.828s-1.533-0.276-2.099-0.828
			c-0.566-0.553-0.849-1.242-0.849-2.066c0-0.825,0.283-1.514,0.849-2.066s1.266-0.829,2.099-0.829s1.532,0.276,2.098,0.829
			s0.849,1.241,0.849,2.066C335.64,510.982,335.356,511.672,334.791,512.225z M334.098,508.721c-0.382-0.396-0.85-0.593-1.405-0.593
			c-0.556,0-1.024,0.197-1.406,0.593c-0.382,0.395-0.572,0.874-0.572,1.438s0.19,1.042,0.572,1.438s0.85,0.593,1.406,0.593
			c0.555,0,1.023-0.197,1.405-0.593s0.573-0.874,0.573-1.438S334.479,509.115,334.098,508.721z"/>
	</g>
</g>
<line fill="none" stroke="#1E120D" stroke-width="0.1656" stroke-miterlimit="10" x1="225.491" y1="36.262" x2="225.491" y2="69.467"/>
<line fill="none" stroke="#1E120D" stroke-width="0.1656" stroke-miterlimit="10" x1="449.215" y1="36.262" x2="449.215" y2="69.467"/>
<g>
	<g>
		<line fill="none" stroke="#1E120D" stroke-width="0.3596" stroke-miterlimit="10" x1="81.191" y1="515" x2="81.692" y2="515"/>
		
			<line fill="none" stroke="#1E120D" stroke-width="0.3596" stroke-miterlimit="10" stroke-dasharray="0.9979,0.9979" x1="82.69" y1="515" x2="237.863" y2="515"/>
		<line fill="none" stroke="#1E120D" stroke-width="0.3596" stroke-miterlimit="10" x1="238.361" y1="515" x2="238.862" y2="515"/>
	</g>
</g>
<g>
	<g>
		<line fill="none" stroke="#1E120D" stroke-width="0.3596" stroke-miterlimit="10" x1="341.139" y1="515" x2="341.64" y2="515"/>
		
			<line fill="none" stroke="#1E120D" stroke-width="0.3596" stroke-miterlimit="10" stroke-dasharray="0.9979,0.9979" x1="342.638" y1="515" x2="497.811" y2="515"/>
		<line fill="none" stroke="#1E120D" stroke-width="0.3596" stroke-miterlimit="10" x1="498.31" y1="515" x2="498.81" y2="515"/>
	</g>
</g>
<g>
	<g>
		<line fill="none" stroke="#1E120D" stroke-width="0.3596" stroke-miterlimit="10" x1="606.093" y1="515" x2="606.594" y2="515"/>
		
			<line fill="none" stroke="#1E120D" stroke-width="0.3596" stroke-miterlimit="10" stroke-dasharray="0.9979,0.9979" x1="607.591" y1="515" x2="762.764" y2="515"/>
		<line fill="none" stroke="#1E120D" stroke-width="0.3596" stroke-miterlimit="10" x1="763.263" y1="515" x2="763.764" y2="515"/>
	</g>
</g>
<g>
	
		<line fill="none" stroke="#1E120D" stroke-width="0.2466" stroke-miterlimit="10" x1="553.456" y1="143.416" x2="553.456" y2="160.341"/>
	
		<line fill="none" stroke="#1E120D" stroke-width="0.2466" stroke-miterlimit="10" x1="622.575" y1="143.431" x2="622.575" y2="160.341"/>
	
		<line fill="none" stroke="#1E120D" stroke-width="0.2503" stroke-miterlimit="10" x1="683.012" y1="160.23" x2="683.012" y2="481.669"/>
	
		<line fill="none" stroke="#1E120D" stroke-width="0.2466" stroke-miterlimit="10" x1="682.974" y1="143.431" x2="682.974" y2="160.341"/>
	<g>
		<g>
			
				<line fill="none" stroke="#1E120D" stroke-width="0.2466" stroke-miterlimit="10" x1="739.126" y1="143.431" x2="739.126" y2="143.943"/>
			
				<line fill="none" stroke="#1E120D" stroke-width="0.2466" stroke-miterlimit="10" stroke-dasharray="0.9933,0.9933" x1="739.126" y1="144.937" x2="739.126" y2="160.333"/>
			
				<line fill="none" stroke="#1E120D" stroke-width="0.2466" stroke-miterlimit="10" x1="739.126" y1="160.829" x2="739.126" y2="161.342"/>
		</g>
	</g>
</g>
<g>
	
		<line fill="none" stroke="#1E120D" stroke-width="0.2466" stroke-miterlimit="10" x1="170.374" y1="143.416" x2="170.374" y2="160.341"/>
	
		<line fill="none" stroke="#1E120D" stroke-width="0.2466" stroke-miterlimit="10" x1="239.493" y1="143.431" x2="239.493" y2="160.341"/>
	
		<line fill="none" stroke="#1E120D" stroke-width="0.2503" stroke-miterlimit="10" x1="299.93" y1="160.23" x2="299.93" y2="481.669"/>
	
		<line fill="none" stroke="#1E120D" stroke-width="0.2466" stroke-miterlimit="10" x1="299.892" y1="143.431" x2="299.892" y2="160.341"/>
	<g>
		<g>
			
				<line fill="none" stroke="#1E120D" stroke-width="0.2466" stroke-miterlimit="10" x1="356.044" y1="143.431" x2="356.044" y2="143.943"/>
			
				<line fill="none" stroke="#1E120D" stroke-width="0.2466" stroke-miterlimit="10" stroke-dasharray="1.059,1.059" x1="356.044" y1="145.002" x2="356.044" y2="159.299"/>
			
				<line fill="none" stroke="#1E120D" stroke-width="0.2466" stroke-miterlimit="10" x1="356.044" y1="159.828" x2="356.044" y2="160.341"/>
		</g>
	</g>
</g>
<g>
	<path fill-rule="evenodd" clip-rule="evenodd" d="M704.664,44.834c-2.391-2.313-5.167-3.47-8.482-3.47
		c-3.315,0-6.091,1.156-8.482,3.47c-2.39,2.39-3.546,5.243-3.546,8.482c0,3.316,1.156,6.168,3.546,8.558
		c2.39,2.313,5.167,3.47,8.482,3.547c3.316-0.078,6.092-1.235,8.482-3.547c2.313-2.39,3.47-5.243,3.47-8.558
		C708.134,50.077,706.977,47.224,704.664,44.834L704.664,44.834z M703.161,51.041l2.314,0.925l0.076,1.311
		c0,2.699-0.925,4.858-2.698,6.631l-2.39-0.616L703.161,51.041L703.161,51.041z M700.463,59.291l-0.077,2.467
		c-1.299,0.659-2.737,1.003-4.194,1.003c-0.015,0-0.033,0-0.047,0c-1.388,0-2.852-0.309-4.241-1.003l-0.077-2.467H700.463
		L700.463,59.291z M691.827,59.291l-2.39,0.616c-1.774-1.85-2.699-4.086-2.699-6.631l0.078-1.311l2.313-0.925l-1.388-2.082
		c1.465-2.776,3.701-4.395,6.862-4.935l1.542,1.928l1.543-1.928c3.084,0.54,5.397,2.159,6.863,4.935l-1.388,2.082v0l-7.016-5.089
		l-7.017,5.089L691.827,59.291L691.827,59.291z"/>
	<path d="M714.183,42.344v22.091h7.29v-6.817h4.858l2.941-6.186h-7.799v-2.714h8.875h0.214h8.956l-7.485,15.722h8.092l7.307-15.361
		v15.355h7.29v-6.533h1.704l4.544,6.533h8.016l-5.681-7.7c2.209-1.104,3.787-3.156,3.787-6.596c0-6.028-4.702-7.795-9.404-7.795
		h-6.896l0,0h-17.414v0H714.183L714.183,42.344z M754.722,48.277h2.809c1.42,0,2.241,0.852,2.241,2.083
		c0,1.231-0.82,2.083-2.241,2.083h-2.809V48.277L754.722,48.277z"/>
</g>
<line fill="none" stroke="#1E120D" stroke-miterlimit="10" x1="770" y1="31.349" x2="0" y2="31.349"/>
<g>
	<path fill="#1E120D" d="M146.58,83.207v1.39h-3.48v1.44h3.13v1.33h-3.13v1.45h3.59v1.38h-5.15v-6.99H146.58z"/>
	<path fill="#1E120D" d="M155.02,86.657c0,0.727-0.185,1.38-0.555,1.96s-0.869,1.014-1.495,1.3c0.06,0.1,0.155,0.185,0.285,0.255
		c0.13,0.07,0.265,0.105,0.405,0.105s0.277-0.022,0.41-0.065c0.133-0.043,0.24-0.095,0.32-0.155c0.173-0.14,0.297-0.276,0.37-0.41
		l0.81,0.97c-0.574,0.606-1.29,0.91-2.15,0.91c-0.4,0-0.793-0.11-1.18-0.33s-0.684-0.53-0.89-0.93c-1.033,0-1.903-0.345-2.61-1.035
		s-1.06-1.548-1.06-2.575c0-1.026,0.354-1.885,1.06-2.575c0.707-0.69,1.577-1.035,2.61-1.035s1.903,0.345,2.61,1.035
		C154.667,84.772,155.02,85.63,155.02,86.657z M153.43,86.662c0-0.623-0.2-1.155-0.6-1.595s-0.892-0.66-1.475-0.66
		c-0.583,0-1.075,0.22-1.475,0.66c-0.4,0.44-0.6,0.972-0.6,1.595c0,0.624,0.2,1.154,0.6,1.59c0.4,0.437,0.892,0.655,1.475,0.655
		c0.583,0,1.075-0.218,1.475-0.655S153.43,87.285,153.43,86.662z"/>
	<path fill="#1E120D" d="M158.2,88.392c0.26,0.324,0.61,0.485,1.05,0.485c0.44,0,0.789-0.162,1.045-0.485
		c0.256-0.323,0.385-0.765,0.385-1.325v-3.86h1.56v3.91c0,1.014-0.28,1.792-0.84,2.335c-0.56,0.543-1.277,0.815-2.15,0.815
		c-0.873,0-1.591-0.273-2.155-0.82c-0.563-0.546-0.845-1.323-0.845-2.33v-3.91h1.56v3.86C157.81,87.627,157.94,88.068,158.2,88.392z
		"/>
	<path fill="#1E120D" d="M163.86,83.207h1.56v6.99h-1.56V83.207z"/>
	<path fill="#1E120D" d="M171.955,83.832c0.49,0.417,0.735,1.057,0.735,1.92s-0.252,1.495-0.755,1.895
		c-0.503,0.4-1.271,0.6-2.305,0.6h-0.93v1.95h-1.56v-6.99h2.47C170.683,83.207,171.465,83.415,171.955,83.832z M170.81,86.582
		c0.187-0.21,0.28-0.516,0.28-0.92c0-0.403-0.122-0.69-0.365-0.86c-0.243-0.17-0.622-0.255-1.135-0.255h-0.89v2.35h1.05
		C170.27,86.897,170.623,86.792,170.81,86.582z"/>
	<path fill="#1E120D" d="M179.79,89.232c-0.707,0.69-1.577,1.035-2.61,1.035s-1.903-0.345-2.61-1.035s-1.06-1.548-1.06-2.575
		c0-1.026,0.354-1.885,1.06-2.575c0.707-0.69,1.577-1.035,2.61-1.035s1.903,0.345,2.61,1.035c0.707,0.69,1.06,1.549,1.06,2.575
		C180.85,87.684,180.497,88.542,179.79,89.232z M179.26,86.662c0-0.623-0.2-1.155-0.6-1.595s-0.892-0.66-1.475-0.66
		c-0.583,0-1.075,0.22-1.475,0.66c-0.4,0.44-0.6,0.972-0.6,1.595c0,0.624,0.2,1.154,0.6,1.59c0.4,0.437,0.892,0.655,1.475,0.655
		c0.583,0,1.075-0.218,1.475-0.655S179.26,87.285,179.26,86.662z"/>
	<path fill="#1E120D" d="M184.26,83.207h2.83v6.99h-1.5v-5.66h-1.33V83.207z"/>
</g>
<g>
	<path fill="#1E120D" d="M586.064,83.207v1.39h-3.479v1.44h3.13v1.33h-3.13v1.45h3.59v1.38h-5.15v-6.99H586.064z"/>
	<path fill="#1E120D" d="M594.505,86.657c0,0.727-0.185,1.38-0.555,1.96s-0.869,1.014-1.495,1.3c0.06,0.1,0.154,0.185,0.285,0.255
		c0.13,0.07,0.265,0.105,0.404,0.105c0.141,0,0.277-0.022,0.41-0.065c0.134-0.043,0.24-0.095,0.32-0.155
		c0.173-0.14,0.297-0.276,0.37-0.41l0.81,0.97c-0.573,0.606-1.29,0.91-2.149,0.91c-0.4,0-0.794-0.11-1.181-0.33
		s-0.684-0.53-0.89-0.93c-1.033,0-1.903-0.345-2.61-1.035c-0.706-0.69-1.06-1.548-1.06-2.575c0-1.026,0.354-1.885,1.06-2.575
		c0.707-0.69,1.577-1.035,2.61-1.035s1.903,0.345,2.61,1.035C594.151,84.772,594.505,85.63,594.505,86.657z M592.915,86.662
		c0-0.623-0.2-1.155-0.601-1.595c-0.399-0.44-0.892-0.66-1.475-0.66s-1.075,0.22-1.475,0.66c-0.4,0.44-0.601,0.972-0.601,1.595
		c0,0.624,0.2,1.154,0.601,1.59c0.399,0.437,0.892,0.655,1.475,0.655s1.075-0.218,1.475-0.655
		C592.715,87.815,592.915,87.285,592.915,86.662z"/>
	<path fill="#1E120D" d="M597.685,88.392c0.261,0.324,0.61,0.485,1.05,0.485c0.44,0,0.789-0.162,1.046-0.485
		c0.256-0.323,0.385-0.765,0.385-1.325v-3.86h1.56v3.91c0,1.014-0.279,1.792-0.84,2.335c-0.56,0.543-1.276,0.815-2.15,0.815
		c-0.873,0-1.591-0.273-2.154-0.82c-0.563-0.546-0.846-1.323-0.846-2.33v-3.91h1.561v3.86
		C597.295,87.627,597.425,88.068,597.685,88.392z"/>
	<path fill="#1E120D" d="M603.345,83.207h1.56v6.99h-1.56V83.207z"/>
	<path fill="#1E120D" d="M611.439,83.832c0.49,0.417,0.735,1.057,0.735,1.92s-0.252,1.495-0.756,1.895
		c-0.503,0.4-1.271,0.6-2.305,0.6h-0.93v1.95h-1.561v-6.99h2.471C610.168,83.207,610.949,83.415,611.439,83.832z M610.294,86.582
		c0.188-0.21,0.28-0.516,0.28-0.92c0-0.403-0.121-0.69-0.365-0.86c-0.243-0.17-0.621-0.255-1.135-0.255h-0.89v2.35h1.05
		C609.755,86.897,610.107,86.792,610.294,86.582z"/>
	<path fill="#1E120D" d="M619.274,89.232c-0.707,0.69-1.577,1.035-2.61,1.035s-1.903-0.345-2.609-1.035
		c-0.707-0.69-1.061-1.548-1.061-2.575c0-1.026,0.354-1.885,1.061-2.575c0.706-0.69,1.576-1.035,2.609-1.035s1.903,0.345,2.61,1.035
		c0.707,0.69,1.06,1.549,1.06,2.575C620.334,87.684,619.981,88.542,619.274,89.232z M618.744,86.662c0-0.623-0.2-1.155-0.6-1.595
		c-0.4-0.44-0.892-0.66-1.476-0.66c-0.583,0-1.074,0.22-1.475,0.66s-0.6,0.972-0.6,1.595c0,0.624,0.199,1.154,0.6,1.59
		s0.892,0.655,1.475,0.655c0.584,0,1.075-0.218,1.476-0.655C618.544,87.815,618.744,87.285,618.744,86.662z"/>
	<path fill="#1E120D" d="M626.949,85.932c0.177-0.25,0.265-0.491,0.265-0.725c0-0.233-0.076-0.428-0.229-0.585
		c-0.153-0.156-0.35-0.235-0.59-0.235c-0.44,0-0.856,0.313-1.25,0.94l-1.25-0.74c0.326-0.507,0.685-0.89,1.075-1.15
		c0.39-0.26,0.886-0.39,1.489-0.39s1.134,0.191,1.591,0.575c0.456,0.384,0.685,0.905,0.685,1.565c0,0.36-0.092,0.705-0.275,1.035
		c-0.183,0.33-0.521,0.752-1.015,1.265l-1.26,1.31h2.76v1.4h-4.93v-1.16l2.05-2.1C626.478,86.517,626.772,86.182,626.949,85.932z"/>
</g>
<g>
	<path fill="#1E120D" d="M359.881,85.527c0,1.12-0.443,1.843-1.33,2.17l1.77,2.5h-1.92l-1.55-2.23h-1.08v2.23h-1.56v-6.99h2.65
		c1.087,0,1.862,0.184,2.325,0.55S359.881,84.713,359.881,85.527z M358.001,86.357c0.193-0.173,0.29-0.448,0.29-0.825
		c0-0.376-0.1-0.635-0.3-0.775c-0.2-0.14-0.55-0.21-1.05-0.21h-1.17v2.07h1.14C357.445,86.617,357.808,86.53,358.001,86.357z"/>
	<path fill="#1E120D" d="M366.521,83.207v1.39h-3.48v1.44h3.13v1.33h-3.13v1.45h3.59v1.38h-5.15v-6.99H366.521z"/>
	<path fill="#1E120D" d="M369.657,84.602c-0.15,0.124-0.225,0.287-0.225,0.49c0,0.204,0.091,0.365,0.275,0.485
		s0.606,0.262,1.27,0.425c0.664,0.163,1.178,0.408,1.545,0.735s0.55,0.803,0.55,1.43c0,0.626-0.235,1.135-0.705,1.525
		c-0.47,0.39-1.088,0.585-1.855,0.585c-1.107,0-2.104-0.41-2.99-1.23l0.93-1.14c0.753,0.66,1.45,0.99,2.09,0.99
		c0.287,0,0.512-0.062,0.675-0.185c0.163-0.124,0.245-0.29,0.245-0.5s-0.086-0.376-0.26-0.5s-0.517-0.249-1.03-0.375
		c-0.813-0.193-1.408-0.445-1.785-0.755c-0.377-0.31-0.565-0.796-0.565-1.46c0-0.663,0.238-1.175,0.715-1.535
		c0.477-0.36,1.072-0.54,1.785-0.54c0.466,0,0.933,0.08,1.4,0.24c0.466,0.16,0.873,0.387,1.22,0.68l-0.79,1.14
		c-0.607-0.46-1.234-0.69-1.88-0.69C370.012,84.417,369.807,84.479,369.657,84.602z"/>
	<path fill="#1E120D" d="M376.251,88.392c0.26,0.324,0.61,0.485,1.05,0.485c0.44,0,0.789-0.162,1.045-0.485
		c0.256-0.323,0.385-0.765,0.385-1.325v-3.86h1.56v3.91c0,1.014-0.28,1.792-0.84,2.335c-0.56,0.543-1.277,0.815-2.15,0.815
		c-0.873,0-1.591-0.273-2.155-0.82c-0.563-0.546-0.845-1.323-0.845-2.33v-3.91h1.56v3.86
		C375.861,87.627,375.992,88.068,376.251,88.392z"/>
	<path fill="#1E120D" d="M381.911,90.197v-6.99h1.56v5.6h2.98v1.39H381.911z"/>
	<path fill="#1E120D" d="M390.552,84.557v5.64h-1.561v-5.64h-1.979v-1.35h5.52v1.35H390.552z"/>
	<path fill="#1E120D" d="M398.651,90.197l-0.649-1.51h-2.931l-0.649,1.51h-1.66l3.021-6.99h1.51l3.02,6.99H398.651z M396.542,85.287
		l-0.88,2.03h1.75L396.542,85.287z"/>
	<path fill="#1E120D" d="M406.462,84.122c0.667,0.61,1,1.458,1,2.545c0,1.086-0.325,1.946-0.975,2.58
		c-0.65,0.634-1.642,0.95-2.976,0.95h-2.39v-6.99h2.47C404.839,83.207,405.795,83.512,406.462,84.122z M405.317,88.277
		c0.383-0.36,0.574-0.883,0.574-1.57c0-0.687-0.191-1.215-0.574-1.585c-0.384-0.37-0.972-0.555-1.766-0.555h-0.87v4.25h0.99
		C404.385,88.817,404.934,88.637,405.317,88.277z"/>
	<path fill="#1E120D" d="M414.692,89.232c-0.707,0.69-1.577,1.035-2.61,1.035s-1.903-0.345-2.61-1.035
		c-0.706-0.69-1.06-1.548-1.06-2.575c0-1.026,0.354-1.885,1.06-2.575c0.707-0.69,1.577-1.035,2.61-1.035s1.903,0.345,2.61,1.035
		c0.706,0.69,1.06,1.549,1.06,2.575C415.752,87.684,415.398,88.542,414.692,89.232z M414.162,86.662c0-0.623-0.2-1.155-0.601-1.595
		c-0.399-0.44-0.892-0.66-1.475-0.66s-1.075,0.22-1.475,0.66c-0.4,0.44-0.601,0.972-0.601,1.595c0,0.624,0.2,1.154,0.601,1.59
		c0.399,0.437,0.892,0.655,1.475,0.655s1.075-0.218,1.475-0.655C413.962,87.815,414.162,87.285,414.162,86.662z"/>
</g>
<line fill="none" stroke="#1E120D" stroke-width="0.6482" stroke-miterlimit="10" x1="1.698" y1="97.349" x2="766.365" y2="97.349"/>
</svg>
