<?xml version="1.0" encoding="utf-8"?>
<svg version="1.1" id="Capa_1" x="0px" y="0px" width="523px" height="770.147px" viewBox="0 0 523 770.147" enable-background="new 0 0 523 770.147" xmlns="http://www.w3.org/2000/svg">
  <rect x="1.664" y="190.33" fill="none" stroke="#000000" stroke-width="2.7442" stroke-miterlimit="10" width="518.65" height="28.615"/>
  <g>
    <g>
      <path d="M189.323,52.508c-0.12,0.099-0.18,0.23-0.18,0.393c0,0.163,0.073,0.293,0.22,0.389s0.486,0.209,1.018,0.34 c0.532,0.131,0.944,0.328,1.238,0.589s0.441,0.644,0.441,1.146s-0.188,0.91-0.565,1.223c-0.377,0.312-0.873,0.469-1.487,0.469 c-0.887,0-1.686-0.329-2.396-0.986l0.746-0.914c0.604,0.529,1.162,0.793,1.675,0.793c0.229,0,0.41-0.049,0.541-0.148 s0.196-0.232,0.196-0.401c0-0.168-0.069-0.302-0.208-0.4c-0.139-0.099-0.414-0.199-0.826-0.301 c-0.652-0.155-1.129-0.357-1.431-0.605c-0.302-0.249-0.453-0.639-0.453-1.17s0.191-0.942,0.573-1.23 c0.382-0.289,0.859-0.433,1.431-0.433c0.374,0,0.748,0.064,1.122,0.192c0.374,0.128,0.7,0.31,0.978,0.545l-0.633,0.914 c-0.486-0.369-0.989-0.553-1.507-0.553C189.607,52.36,189.443,52.409,189.323,52.508z"/>
      <path d="M197.166,51.39v1.114h-2.79v1.154h2.509v1.066h-2.509v1.163h2.877v1.106h-4.128V51.39H197.166z"/>
      <path d="M202.648,52.123c0.534,0.489,0.802,1.169,0.802,2.04s-0.261,1.561-0.782,2.068c-0.521,0.508-1.316,0.762-2.385,0.762 h-1.916V51.39h1.98C201.347,51.39,202.114,51.634,202.648,52.123z M201.73,55.454c0.308-0.289,0.461-0.708,0.461-1.258 s-0.153-0.974-0.461-1.271c-0.307-0.297-0.779-0.445-1.415-0.445h-0.697v3.407h0.793C200.984,55.887,201.423,55.742,201.73,55.454 z"/>
      <path d="M208.572,51.39v1.114h-2.79v1.154h2.509v1.066h-2.509v1.163h2.877v1.106h-4.128V51.39H208.572z"/>
    </g>
  </g>
  <g>
    <g>
      <path d="M9.528,75.683h1.25v5.603h-1.25v-2.204H7.3v2.204H6.05v-5.603H7.3v2.341h2.228V75.683z"/>
      <path d="M16.871,80.513c-0.567,0.553-1.264,0.83-2.092,0.83c-0.829,0-1.526-0.276-2.092-0.83s-0.85-1.241-0.85-2.064 c0-0.823,0.283-1.511,0.85-2.064c0.566-0.553,1.264-0.83,2.092-0.83s1.525,0.277,2.092,0.83c0.566,0.553,0.85,1.241,0.85,2.064 S17.438,79.96,16.871,80.513z M16.446,78.453c0-0.5-0.161-0.926-0.481-1.279c-0.321-0.353-0.715-0.529-1.183-0.529 s-0.862,0.176-1.182,0.529c-0.321,0.353-0.481,0.779-0.481,1.279s0.16,0.924,0.481,1.274c0.32,0.35,0.714,0.525,1.182,0.525 s0.862-0.175,1.183-0.525C16.286,79.377,16.446,78.952,16.446,78.453z"/>
      <path d="M23.324,77.543c0,0.897-0.355,1.478-1.066,1.739l1.419,2.004h-1.539l-1.242-1.788H20.03v1.788h-1.25v-5.603h2.124 c0.871,0,1.492,0.147,1.864,0.441C23.138,76.418,23.324,76.891,23.324,77.543z M21.817,78.208 c0.155-0.139,0.232-0.359,0.232-0.661s-0.081-0.509-0.241-0.621s-0.441-0.168-0.842-0.168h-0.938v1.659h0.914 C21.371,78.417,21.662,78.347,21.817,78.208z"/>
      <path d="M28.598,81.286l-0.521-1.21h-2.349l-0.521,1.21h-1.331l2.421-5.603h1.21l2.42,5.603H28.598z M26.906,77.351l-0.705,1.627 h1.403L26.906,77.351z"/>
    </g>
  </g>
  <g>
    <g>
      <path d="M190.585,80.181c0.615,0,1.117-0.243,1.507-0.729l0.801,0.826c-0.636,0.716-1.385,1.074-2.248,1.074 s-1.574-0.272-2.132-0.817c-0.559-0.545-0.838-1.233-0.838-2.064s0.285-1.524,0.854-2.08s1.265-0.834,2.088-0.834 c0.919,0,1.688,0.35,2.309,1.05l-0.777,0.882c-0.396-0.492-0.887-0.738-1.475-0.738c-0.47,0-0.873,0.154-1.207,0.461 c-0.334,0.308-0.501,0.722-0.501,1.243s0.158,0.939,0.473,1.254S190.136,80.181,190.585,80.181z"/>
      <path d="M197.872,81.287l-0.521-1.21h-2.349l-0.521,1.21h-1.331l2.421-5.603h1.21l2.42,5.603H197.872z M196.18,77.351 l-0.705,1.627h1.403L196.18,77.351z"/>
      <path d="M203.771,75.684h1.25v5.603h-1.25l-2.669-3.511v3.511h-1.25v-5.603h1.17l2.749,3.607L203.771,75.684L203.771,75.684z"/>
      <path d="M208.973,80.181c0.615,0,1.117-0.243,1.507-0.729l0.801,0.826c-0.636,0.716-1.385,1.074-2.248,1.074 s-1.574-0.272-2.132-0.817c-0.559-0.545-0.838-1.233-0.838-2.064s0.285-1.524,0.854-2.08s1.265-0.834,2.088-0.834 c0.919,0,1.688,0.35,2.309,1.05l-0.777,0.882c-0.396-0.492-0.887-0.738-1.475-0.738c-0.47,0-0.873,0.154-1.207,0.461 c-0.334,0.308-0.501,0.722-0.501,1.243s0.158,0.939,0.473,1.254S208.524,80.181,208.973,80.181z"/>
      <path d="M215.747,75.684h1.25v5.603h-1.25v-2.204h-2.228v2.204h-1.25v-5.603h1.25v2.341h2.228V75.684z"/>
      <path d="M222.368,81.287l-0.521-1.21h-2.349l-0.521,1.21h-1.331l2.421-5.603h1.21l2.42,5.603H222.368z M220.676,77.351 l-0.705,1.627h1.403L220.676,77.351z"/>
      <path d="M230.383,75.684h1.25v5.603h-1.25l-2.669-3.511v3.511h-1.25v-5.603h1.17l2.749,3.607L230.383,75.684L230.383,75.684z"/>
      <path d="M235.081,76.686c0,0.315-0.112,0.581-0.336,0.797c-0.225,0.217-0.506,0.325-0.846,0.325s-0.621-0.109-0.846-0.329 c-0.225-0.219-0.337-0.485-0.337-0.797s0.112-0.579,0.337-0.798c0.225-0.219,0.506-0.329,0.846-0.329s0.621,0.11,0.846,0.329 C234.968,76.103,235.081,76.37,235.081,76.686z M233.485,76.682c0,0.147,0.039,0.266,0.116,0.356 c0.078,0.091,0.177,0.136,0.297,0.136s0.219-0.045,0.296-0.136c0.078-0.091,0.116-0.209,0.116-0.356s-0.039-0.267-0.116-0.361 c-0.078-0.093-0.176-0.14-0.296-0.14s-0.219,0.047-0.297,0.14C233.524,76.415,233.485,76.535,233.485,76.682z"/>
    </g>
  </g>
  <g>
    <g>
      <path d="M359.443,52.464V51.39h2.918v3.655c0,0.668-0.172,1.167-0.517,1.499c-0.345,0.331-0.787,0.497-1.327,0.497 c-0.673,0-1.261-0.259-1.764-0.777l0.649-0.898c0.337,0.364,0.689,0.545,1.059,0.545c0.176,0,0.327-0.068,0.453-0.205 c0.125-0.136,0.188-0.341,0.188-0.613v-2.629L359.443,52.464z"/>
      <path d="M368.405,56.219c-0.566,0.553-1.264,0.83-2.092,0.83s-1.525-0.276-2.092-0.83s-0.85-1.241-0.85-2.064 c0-0.823,0.283-1.511,0.85-2.064c0.566-0.553,1.264-0.83,2.092-0.83s1.525,0.277,2.092,0.83c0.566,0.553,0.85,1.241,0.85,2.064 S368.972,55.666,368.405,56.219z M367.98,54.159c0-0.5-0.16-0.926-0.48-1.279c-0.321-0.353-0.715-0.529-1.183-0.529 s-0.861,0.176-1.183,0.529c-0.32,0.353-0.48,0.779-0.48,1.279s0.16,0.924,0.48,1.274c0.321,0.35,0.715,0.525,1.183,0.525 s0.861-0.175,1.183-0.525C367.82,55.084,367.98,54.659,367.98,54.159z"/>
      <path d="M374.858,53.25c0,0.897-0.355,1.478-1.066,1.739l1.419,2.004h-1.539l-1.242-1.788h-0.866v1.788h-1.25V51.39h2.124 c0.871,0,1.492,0.147,1.863,0.441C374.673,52.125,374.858,52.597,374.858,53.25z M373.352,53.915 c0.154-0.139,0.232-0.359,0.232-0.661s-0.08-0.509-0.24-0.621c-0.161-0.112-0.441-0.168-0.842-0.168h-0.938v1.659h0.914 C372.905,54.123,373.196,54.054,373.352,53.915z"/>
      <path d="M380.061,51.39h1.25v5.603h-1.25l-2.67-3.511v3.511h-1.25V51.39h1.17l2.75,3.607V51.39z"/>
      <path d="M386.682,56.993l-0.521-1.21h-2.349l-0.521,1.21h-1.331l2.421-5.603h1.21l2.421,5.603H386.682z M384.99,53.057 l-0.706,1.627h1.403L384.99,53.057z"/>
      <path d="M392.941,52.123c0.534,0.489,0.802,1.169,0.802,2.04s-0.261,1.561-0.781,2.068c-0.521,0.508-1.316,0.762-2.385,0.762 h-1.916V51.39h1.979C391.641,51.39,392.407,51.634,392.941,52.123z M392.023,55.454c0.308-0.289,0.461-0.708,0.461-1.258 s-0.153-0.974-0.461-1.271c-0.308-0.297-0.778-0.445-1.415-0.445h-0.697v3.407h0.794 C391.276,55.887,391.716,55.742,392.023,55.454z"/>
      <path d="M398.817,56.993l-0.521-1.21h-2.349l-0.521,1.21h-1.331l2.421-5.603h1.21l2.421,5.603H398.817z M397.126,53.057 l-0.706,1.627h1.403L397.126,53.057z"/>
      <path d="M406.833,51.39h1.25v5.603h-1.25l-2.67-3.511v3.511h-1.25V51.39h1.17l2.75,3.607V51.39z"/>
      <path d="M411.53,52.392c0,0.315-0.112,0.581-0.337,0.797c-0.225,0.217-0.507,0.325-0.846,0.325c-0.34,0-0.621-0.109-0.846-0.329 c-0.225-0.219-0.337-0.485-0.337-0.797s0.112-0.579,0.337-0.798s0.506-0.329,0.846-0.329c0.339,0,0.621,0.11,0.846,0.329 S411.53,52.076,411.53,52.392z M409.935,52.388c0,0.147,0.039,0.266,0.116,0.356c0.077,0.091,0.177,0.136,0.297,0.136 s0.219-0.045,0.297-0.136c0.077-0.091,0.116-0.209,0.116-0.356s-0.039-0.267-0.116-0.361c-0.078-0.093-0.177-0.14-0.297-0.14 s-0.22,0.047-0.297,0.14C409.974,52.121,409.935,52.241,409.935,52.388z"/>
    </g>
  </g>
  <g>
    <g>
      <path d="M363.228,81.287l-0.521-1.21h-2.349l-0.521,1.21h-1.331l2.421-5.603h1.21l2.421,5.603H363.228z M361.536,77.351 l-0.706,1.627h1.403L361.536,77.351z"/>
      <path d="M369.752,77.544c0,0.897-0.355,1.478-1.066,1.739l1.419,2.004h-1.539l-1.242-1.788h-0.866v1.788h-1.25v-5.603h2.124 c0.871,0,1.492,0.147,1.863,0.441S369.752,76.891,369.752,77.544z M368.245,78.209c0.154-0.139,0.232-0.359,0.232-0.661 s-0.08-0.509-0.24-0.621c-0.161-0.112-0.441-0.168-0.842-0.168h-0.938v1.659h0.914C367.799,78.417,368.09,78.348,368.245,78.209z"/>
      <path d="M373.487,81.287h-2.453v-5.603h2.181c0.379,0,0.706,0.045,0.981,0.136s0.482,0.214,0.621,0.369 c0.251,0.289,0.377,0.615,0.377,0.978c0,0.438-0.142,0.764-0.425,0.978c-0.097,0.075-0.163,0.122-0.2,0.14 c-0.038,0.019-0.104,0.049-0.201,0.092c0.348,0.075,0.624,0.231,0.83,0.469s0.309,0.533,0.309,0.886c0,0.39-0.134,0.735-0.4,1.034 C374.796,81.113,374.257,81.287,373.487,81.287z M372.284,77.952h0.594c0.347,0,0.604-0.038,0.773-0.112 c0.168-0.075,0.252-0.236,0.252-0.485s-0.077-0.413-0.232-0.493c-0.154-0.08-0.416-0.12-0.785-0.12h-0.602L372.284,77.952 L372.284,77.952z M372.284,80.229h0.858c0.357,0,0.626-0.044,0.806-0.132c0.179-0.088,0.269-0.262,0.269-0.521 s-0.096-0.43-0.285-0.513s-0.493-0.124-0.909-0.124h-0.738v1.29H372.284z"/>
      <path d="M376.557,75.684h1.25v5.603h-1.25V75.684z"/>
      <path d="M381.559,76.766v4.521h-1.251v-4.521h-1.587v-1.082h4.425v1.082L381.559,76.766z"/>
      <path d="M388.604,77.544c0,0.897-0.355,1.478-1.066,1.739l1.419,2.004h-1.539l-1.242-1.788h-0.866v1.788h-1.25v-5.603h2.124 c0.871,0,1.492,0.147,1.863,0.441S388.604,76.891,388.604,77.544z M387.097,78.209c0.154-0.139,0.232-0.359,0.232-0.661 s-0.08-0.509-0.24-0.621c-0.161-0.112-0.441-0.168-0.842-0.168h-0.938v1.659h0.914C386.65,78.417,386.941,78.348,387.097,78.209z"/>
      <path d="M394.599,80.513c-0.566,0.553-1.264,0.83-2.092,0.83s-1.525-0.276-2.092-0.83s-0.85-1.241-0.85-2.064 c0-0.823,0.283-1.511,0.85-2.064c0.566-0.553,1.264-0.83,2.092-0.83s1.525,0.277,2.092,0.83c0.566,0.553,0.85,1.241,0.85,2.064 C395.448,79.272,395.165,79.96,394.599,80.513z M394.174,78.453c0-0.5-0.16-0.926-0.48-1.279 c-0.321-0.353-0.715-0.529-1.183-0.529s-0.861,0.176-1.183,0.529c-0.32,0.353-0.48,0.779-0.48,1.279s0.16,0.924,0.48,1.274 c0.321,0.35,0.715,0.525,1.183,0.525s0.861-0.175,1.183-0.525C394.014,79.378,394.174,78.953,394.174,78.453z"/>
    </g>
  </g>
  <g>
    <g>
      <path d="M80.861,110.31v-5.603h0.946v4.705h2.557v0.898L80.861,110.31z"/>
      <path d="M92.493,109.537c-0.566,0.553-1.267,0.83-2.1,0.83s-1.534-0.276-2.1-0.83s-0.85-1.243-0.85-2.068 c0-0.825,0.283-1.515,0.85-2.068s1.267-0.83,2.1-0.83s1.534,0.276,2.1,0.83s0.85,1.243,0.85,2.068 C93.342,108.294,93.059,108.984,92.493,109.537z M91.799,106.03c-0.382-0.396-0.851-0.593-1.407-0.593s-1.025,0.198-1.407,0.593 c-0.382,0.396-0.573,0.875-0.573,1.438c0,0.564,0.191,1.043,0.573,1.439c0.382,0.396,0.851,0.593,1.407,0.593 s1.024-0.198,1.407-0.593c0.382-0.396,0.573-0.875,0.573-1.439C92.373,106.905,92.181,106.426,91.799,106.03z"/>
      <path d="M99.499,109.452c0.326,0,0.606-0.055,0.842-0.164c0.235-0.109,0.481-0.285,0.737-0.525l0.609,0.625 c-0.593,0.657-1.313,0.986-2.16,0.986s-1.55-0.272-2.108-0.817s-0.837-1.234-0.837-2.068c0-0.833,0.284-1.528,0.854-2.084 c0.569-0.556,1.288-0.833,2.156-0.833s1.594,0.321,2.176,0.962l-0.601,0.657c-0.268-0.256-0.52-0.436-0.758-0.537 s-0.517-0.152-0.837-0.152c-0.566,0-1.042,0.183-1.427,0.549c-0.385,0.366-0.577,0.833-0.577,1.403 c0,0.569,0.191,1.044,0.573,1.427C98.522,109.261,98.975,109.452,99.499,109.452z"/>
      <path d="M106.04,109.036l-0.562,1.274h-1.01l2.469-5.603h1.01l2.469,5.603h-1.01l-0.561-1.274H106.04z M108.46,108.162 l-1.018-2.308l-1.018,2.308H108.46z"/>
      <path d="M113.598,110.31v-5.603h0.946v4.705h2.557v0.898L113.598,110.31z"/>
    </g>
  </g>
  <g>
    <g>
      <path d="M394.327,110.31h-1.059l-2.252-5.603h1.058l1.724,4.184l1.724-4.184h1.058L394.327,110.31z"/>
      <path d="M399.785,104.707h0.946v5.603h-0.946V104.707z"/>
      <path d="M406.387,105.445c-0.275,0-0.501,0.056-0.677,0.168c-0.177,0.112-0.265,0.282-0.265,0.509 c0,0.228,0.088,0.401,0.265,0.521c0.176,0.12,0.552,0.25,1.126,0.389s1.007,0.334,1.299,0.585c0.291,0.251,0.437,0.621,0.437,1.11 s-0.185,0.886-0.553,1.19c-0.369,0.304-0.853,0.457-1.451,0.457c-0.877,0-1.654-0.302-2.333-0.906l0.594-0.713 c0.566,0.492,1.154,0.738,1.764,0.738c0.304,0,0.546-0.065,0.725-0.197c0.18-0.131,0.269-0.304,0.269-0.521 c0-0.216-0.084-0.385-0.252-0.505c-0.169-0.12-0.458-0.229-0.87-0.329c-0.411-0.099-0.724-0.189-0.938-0.272 s-0.403-0.191-0.569-0.325c-0.331-0.251-0.497-0.636-0.497-1.154s0.188-0.918,0.565-1.198c0.377-0.281,0.843-0.421,1.398-0.421 c0.358,0,0.714,0.059,1.066,0.176s0.657,0.283,0.914,0.497l-0.506,0.713c-0.165-0.149-0.39-0.272-0.673-0.369 S406.662,105.445,406.387,105.445z"/>
      <path d="M412.146,104.707h0.946v5.603h-0.946V104.707z"/>
      <path d="M419.168,105.573v4.737h-0.945v-4.737h-1.7v-0.866h4.345v0.866H419.168z"/>
      <path d="M425.092,109.036l-0.562,1.274h-1.01l2.469-5.603h1.01l2.469,5.603h-1.01l-0.561-1.274H425.092z M427.513,108.162 l-1.019-2.308l-1.018,2.308H427.513z"/>
      <path d="M436.851,104.707h0.946v5.603h-1.026l-3.174-4.088v4.088h-0.946v-5.603h0.946l3.254,4.184V104.707z"/>
      <path d="M443.872,105.573v4.737h-0.945v-4.737h-1.7v-0.866h4.345v0.866H443.872z"/>
      <path d="M452.938,104.707v0.89h-2.989v1.483h2.685v0.842h-2.685v1.499h3.086v0.89h-4.032v-5.603h3.935V104.707z"/>
    </g>
  </g>
  <g>
    <path d="M12.324,182.754c0.325,0,0.605-0.055,0.84-0.164s0.48-0.284,0.736-0.524l0.608,0.624c-0.592,0.656-1.311,0.984-2.156,0.984 s-1.547-0.272-2.104-0.816s-0.836-1.232-0.836-2.064s0.284-1.525,0.852-2.08s1.285-0.832,2.152-0.832s1.591,0.32,2.172,0.96 l-0.6,0.656c-0.267-0.256-0.519-0.435-0.756-0.536c-0.237-0.101-0.516-0.152-0.836-0.152c-0.565,0-1.04,0.183-1.424,0.548 s-0.576,0.832-0.576,1.4s0.191,1.043,0.572,1.424C11.349,182.563,11.801,182.754,12.324,182.754z"/>
    <path d="M20.34,182.838c-0.565,0.552-1.264,0.828-2.096,0.828s-1.531-0.276-2.096-0.828c-0.565-0.552-0.848-1.24-0.848-2.064 c0-0.824,0.283-1.512,0.848-2.064c0.565-0.552,1.264-0.828,2.096-0.828s1.531,0.276,2.096,0.828s0.848,1.24,0.848,2.064 C21.188,181.597,20.905,182.285,20.34,182.838z M19.648,179.338c-0.381-0.395-0.85-0.592-1.404-0.592s-1.022,0.197-1.404,0.592 s-0.572,0.874-0.572,1.436s0.191,1.042,0.572,1.436s0.849,0.592,1.404,0.592s1.023-0.197,1.404-0.592 c0.381-0.395,0.572-0.874,0.572-1.436S20.029,179.732,19.648,179.338z"/>
    <path d="M22.379,183.61v-5.592h0.944v4.696h2.552v0.896H22.379z"/>
    <path d="M31.587,182.838c-0.565,0.552-1.264,0.828-2.096,0.828s-1.531-0.276-2.096-0.828s-0.848-1.24-0.848-2.064 c0-0.824,0.283-1.512,0.848-2.064s1.264-0.828,2.096-0.828s1.531,0.276,2.096,0.828s0.848,1.24,0.848,2.064 C32.436,181.597,32.153,182.285,31.587,182.838z M30.896,179.338c-0.381-0.395-0.85-0.592-1.404-0.592s-1.022,0.197-1.404,0.592 s-0.572,0.874-0.572,1.436s0.191,1.042,0.572,1.436s0.849,0.592,1.404,0.592s1.023-0.197,1.404-0.592 c0.381-0.395,0.572-0.874,0.572-1.436S31.276,179.732,30.896,179.338z"/>
    <path d="M38.092,179.834c0,0.923-0.403,1.504-1.208,1.744l1.464,2.032h-1.2l-1.336-1.88h-1.24v1.88h-0.944v-5.592h2.08 c0.854,0,1.464,0.144,1.832,0.432S38.092,179.199,38.092,179.834z M36.835,180.626c0.192-0.166,0.288-0.431,0.288-0.796 s-0.099-0.616-0.296-0.752c-0.197-0.136-0.549-0.204-1.056-0.204h-1.2v2h1.176C36.281,180.874,36.644,180.791,36.835,180.626z"/>
    <path d="M45.875,178.75c0.539,0.488,0.808,1.167,0.808,2.036c0,0.87-0.261,1.558-0.784,2.064s-1.323,0.76-2.4,0.76h-1.856v-5.592 h1.92C44.566,178.018,45.337,178.261,45.875,178.75z M45.731,180.81c0-1.28-0.733-1.92-2.2-1.92h-0.944v3.832h1.048 c0.677,0,1.196-0.161,1.556-0.484C45.552,181.915,45.731,181.439,45.731,180.81z"/>
    <path d="M51.828,178.018v0.888h-2.984v1.48h2.68v0.84h-2.68v1.496h3.08v0.888H47.9v-5.592H51.828z"/>
    <path d="M57.875,182.754c0.325,0,0.605-0.055,0.84-0.164s0.48-0.284,0.736-0.524l0.608,0.624c-0.592,0.656-1.311,0.984-2.156,0.984 s-1.547-0.272-2.104-0.816s-0.836-1.232-0.836-2.064s0.284-1.525,0.852-2.08s1.285-0.832,2.152-0.832s1.591,0.32,2.172,0.96 l-0.6,0.656c-0.267-0.256-0.519-0.435-0.756-0.536s-0.516-0.152-0.836-0.152c-0.565,0-1.04,0.183-1.424,0.548 s-0.576,0.832-0.576,1.4s0.191,1.043,0.572,1.424C56.9,182.563,57.353,182.754,57.875,182.754z"/>
    <path d="M62.003,182.338l-0.56,1.272h-1.008l2.464-5.592h1.008l2.464,5.592h-1.008l-0.56-1.272H62.003z M64.419,181.466 l-1.016-2.304l-1.016,2.304H64.419z"/>
    <path d="M68.092,183.61h-0.944v-5.592h1.472l1.688,3.512l1.688-3.512h1.464v5.592h-0.944v-4.368l-1.952,3.88h-0.528l-1.944-3.88 V183.61z"/>
    <path d="M75.011,178.018h0.944v5.592h-0.944V178.018z"/>
    <path d="M79.199,178.754c-0.274,0-0.5,0.056-0.676,0.168s-0.264,0.281-0.264,0.508c0,0.227,0.088,0.4,0.264,0.52 c0.176,0.12,0.551,0.25,1.124,0.388s1.005,0.333,1.296,0.584s0.436,0.62,0.436,1.108s-0.184,0.884-0.552,1.188 c-0.368,0.304-0.851,0.456-1.448,0.456c-0.875,0-1.651-0.301-2.328-0.904l0.592-0.712c0.565,0.491,1.152,0.736,1.76,0.736 c0.304,0,0.545-0.065,0.724-0.196c0.179-0.13,0.268-0.304,0.268-0.52s-0.084-0.384-0.252-0.504s-0.458-0.229-0.868-0.328 s-0.723-0.189-0.936-0.272c-0.213-0.083-0.403-0.19-0.568-0.324c-0.331-0.25-0.496-0.635-0.496-1.152 c0-0.518,0.188-0.916,0.564-1.196s0.841-0.42,1.396-0.42c0.357,0,0.712,0.059,1.064,0.176c0.352,0.117,0.656,0.283,0.912,0.496 l-0.504,0.712c-0.166-0.149-0.39-0.272-0.672-0.368C79.753,178.801,79.474,178.754,79.199,178.754z"/>
    <path d="M86.476,178.018v0.888h-2.984v1.48h2.68v0.84h-2.68v1.496h3.08v0.888h-4.024v-5.592H86.476z"/>
    <path d="M89.892,178.882v4.728h-0.944v-4.728h-1.696v-0.864h4.336v0.864H89.892z"/>
    <path d="M93.403,182.338l-0.56,1.272h-1.008l2.464-5.592h1.008l2.464,5.592h-1.008l-0.56-1.272H93.403z M95.819,181.466 l-1.016-2.304l-1.016,2.304H95.819z"/>
    <path d="M98.52,181.538c-0.115-0.118-0.172-0.259-0.172-0.424s0.057-0.305,0.172-0.42s0.254-0.172,0.42-0.172 c0.165,0,0.307,0.057,0.424,0.172c0.118,0.115,0.176,0.255,0.176,0.42c0,0.166-0.059,0.307-0.176,0.424 c-0.117,0.117-0.259,0.176-0.424,0.176C98.774,181.714,98.634,181.655,98.52,181.538z M98.52,183.498 c-0.115-0.118-0.172-0.259-0.172-0.424s0.057-0.305,0.172-0.42s0.254-0.172,0.42-0.172c0.165,0,0.307,0.057,0.424,0.172 c0.118,0.115,0.176,0.255,0.176,0.42c0,0.166-0.059,0.307-0.176,0.424c-0.117,0.117-0.259,0.176-0.424,0.176 C98.774,183.674,98.634,183.615,98.52,183.498z"/>
  </g>
  <g>
    <path d="M9.897,51.39v1.098H7.3v1.21h2.469v1.098H7.3v2.196H6.05V51.39H9.897z"/>
    <path d="M14.803,51.39v1.114h-2.79v1.154h2.509v1.066h-2.509v1.163h2.877v1.106h-4.128V51.39H14.803z"/>
    <path d="M18.578,55.887c0.615,0,1.117-0.243,1.507-0.729l0.801,0.826c-0.636,0.716-1.385,1.074-2.248,1.074 c-0.863,0-1.574-0.272-2.132-0.817c-0.559-0.545-0.838-1.233-0.838-2.064s0.285-1.524,0.854-2.08 c0.569-0.556,1.265-0.834,2.088-0.834c0.919,0,1.688,0.35,2.309,1.05l-0.777,0.882c-0.396-0.492-0.887-0.738-1.475-0.738 c-0.47,0-0.873,0.154-1.207,0.461c-0.334,0.308-0.501,0.722-0.501,1.243s0.158,0.939,0.473,1.254S18.129,55.887,18.578,55.887z"/>
    <path d="M25.352,51.39h1.25v5.603h-1.25v-2.204h-2.228v2.204h-1.25V51.39h1.25v2.341h2.228V51.39z"/>
    <path d="M31.973,56.993l-0.521-1.21h-2.349l-0.521,1.21h-1.331l2.421-5.603h1.21l2.42,5.603H31.973z M30.281,53.057l-0.705,1.627 h1.403L30.281,53.057z"/>
  </g>
  <line fill="none" stroke="#000000" stroke-width="0.2315" stroke-miterlimit="10" x1="27.605" y1="190.01" x2="27.605" y2="672.566"/>
  <line fill="none" stroke="#000000" stroke-width="0.2315" stroke-miterlimit="10" x1="147.499" y1="190.01" x2="147.499" y2="672.566"/>
  <line fill="none" stroke="#000000" stroke-width="0.2239" stroke-miterlimit="10" x1="176.669" y1="190.573" x2="176.669" y2="672.566"/>
  <line fill="none" stroke="#000000" stroke-width="0.2315" stroke-miterlimit="10" x1="247.234" y1="190.01" x2="247.234" y2="672.566"/>
  <line fill="none" stroke="#000000" stroke-width="0.2315" stroke-miterlimit="10" x1="333.041" y1="190.01" x2="333.041" y2="672.566"/>
  <line fill="none" stroke="#000000" stroke-width="0.25" stroke-miterlimit="10" x1="261.811" y1="115.573" x2="261.811" y2="171.675"/>
  <line fill="none" stroke="#000000" stroke-width="0.25" stroke-miterlimit="10" x1="3.298" y1="116.053" x2="519.011" y2="116.053"/>
  <line fill="none" stroke="#000000" stroke-width="0.25" stroke-miterlimit="10" x1="0.298" y1="38.955" x2="523.023" y2="38.955"/>
  <line fill="none" stroke="#000000" stroke-width="0.25" stroke-miterlimit="10" x1="3.298" y1="171.355" x2="519.011" y2="171.355"/>
  <rect x="1.487" y="95.214" fill="none" stroke="#000000" stroke-width="2.7442" stroke-miterlimit="10" width="519.997" height="577.936"/>
  <g>
    <circle fill="#FFFFFF" stroke="#000000" stroke-width="0.25" stroke-miterlimit="10" cx="262.222" cy="142.742" r="13.057"/>
    <g>
      <path d="M257.884,147.11l-2.773-7.018h2.031l1.745,4.414l1.745-4.414h2.031l-2.773,7.018H257.884z"/>
      <path d="M268.898,144.929c0,0.69-0.254,1.243-0.762,1.66s-1.152,0.625-1.934,0.625c-0.52,0-1.062-0.093-1.627-0.28 s-1.072-0.462-1.523-0.827l0.859-1.224c0.73,0.564,1.506,0.846,2.33,0.846c0.252,0,0.453-0.05,0.6-0.149 c0.148-0.1,0.221-0.232,0.221-0.397c0-0.165-0.102-0.317-0.305-0.456c-0.205-0.139-0.5-0.269-0.885-0.391 c-0.387-0.121-0.682-0.226-0.887-0.312c-0.203-0.086-0.436-0.212-0.695-0.377c-0.531-0.33-0.795-0.818-0.795-1.465 c0-0.646,0.26-1.174,0.781-1.582s1.193-0.612,2.018-0.612s1.648,0.278,2.475,0.833l-0.73,1.302 c-0.607-0.417-1.213-0.625-1.816-0.625c-0.602,0-0.904,0.165-0.904,0.495c0,0.182,0.096,0.325,0.287,0.429 c0.191,0.104,0.508,0.226,0.949,0.365c0.443,0.139,0.758,0.246,0.945,0.319c0.186,0.074,0.41,0.189,0.67,0.345 C268.656,143.747,268.898,144.239,268.898,144.929z"/>
    </g>
  </g>
  <line fill="none" stroke="#000000" stroke-width="0.2292" stroke-miterlimit="10" x1="462.892" y1="170.573" x2="462.892" y2="672.566"/>
  <line fill="none" stroke="#000000" stroke-width="0.2277" stroke-miterlimit="10" x1="434.225" y1="190.573" x2="434.225" y2="672.566"/>
  <line fill="none" stroke="#000000" stroke-width="0.2315" stroke-miterlimit="10" x1="491.454" y1="190.01" x2="491.454" y2="672.566"/>
  <g>
    <line fill="none" stroke="#000000" stroke-width="0.3198" stroke-miterlimit="10" x1="1.768" y1="240.185" x2="521.206" y2="240.185"/>
    <line fill="none" stroke="#000000" stroke-width="0.3198" stroke-miterlimit="10" x1="2.219" y1="262.939" x2="521.206" y2="262.939"/>
    <line fill="none" stroke="#000000" stroke-width="0.3198" stroke-miterlimit="10" x1="2.219" y1="285.693" x2="521.206" y2="285.693"/>
    <line fill="none" stroke="#000000" stroke-width="0.3198" stroke-miterlimit="10" x1="2.219" y1="308.447" x2="521.206" y2="308.447"/>
    <line fill="none" stroke="#000000" stroke-width="0.3198" stroke-miterlimit="10" x1="2.219" y1="331.201" x2="521.206" y2="331.201"/>
    <line fill="none" stroke="#000000" stroke-width="0.3198" stroke-miterlimit="10" x1="2.219" y1="353.955" x2="521.206" y2="353.955"/>
    <line fill="none" stroke="#000000" stroke-width="0.3198" stroke-miterlimit="10" x1="2.219" y1="376.709" x2="521.206" y2="376.709"/>
    <line fill="none" stroke="#000000" stroke-width="0.3198" stroke-miterlimit="10" x1="2.219" y1="399.463" x2="521.206" y2="399.463"/>
    <line fill="none" stroke="#000000" stroke-width="0.3198" stroke-miterlimit="10" x1="2.219" y1="422.217" x2="521.206" y2="422.217"/>
    <line fill="none" stroke="#000000" stroke-width="0.3198" stroke-miterlimit="10" x1="2.219" y1="444.971" x2="521.206" y2="444.971"/>
    <line fill="none" stroke="#000000" stroke-width="0.3198" stroke-miterlimit="10" x1="2.219" y1="467.725" x2="521.206" y2="467.725"/>
    <line fill="none" stroke="#000000" stroke-width="0.3198" stroke-miterlimit="10" x1="2.219" y1="490.479" x2="521.206" y2="490.479"/>
    <line fill="none" stroke="#000000" stroke-width="0.3198" stroke-miterlimit="10" x1="2.219" y1="513.233" x2="521.206" y2="513.233"/>
    <line fill="none" stroke="#000000" stroke-width="0.3198" stroke-miterlimit="10" x1="2.219" y1="535.987" x2="521.206" y2="535.987"/>
    <line fill="none" stroke="#000000" stroke-width="0.3198" stroke-miterlimit="10" x1="2.219" y1="558.741" x2="521.206" y2="558.741"/>
    <line fill="none" stroke="#000000" stroke-width="0.3198" stroke-miterlimit="10" x1="2.219" y1="581.495" x2="521.206" y2="581.495"/>
    <line fill="none" stroke="#000000" stroke-width="0.3198" stroke-miterlimit="10" x1="2.219" y1="604.249" x2="521.206" y2="604.249"/>
    <line fill="none" stroke="#000000" stroke-width="0.3198" stroke-miterlimit="10" x1="2.219" y1="627.003" x2="521.206" y2="627.003"/>
    <line fill="none" stroke="#000000" stroke-width="0.3198" stroke-miterlimit="10" x1="2.219" y1="649.757" x2="521.206" y2="649.757"/>
  </g>
  <g>
    <line fill="none" stroke="#000000" stroke-width="0.25" stroke-miterlimit="10" x1="196.376" y1="171.023" x2="196.376" y2="95.573"/>
    <line fill="none" stroke="#000000" stroke-width="0.25" stroke-miterlimit="10" x1="326.575" y1="171.023" x2="326.575" y2="96.24"/>
  </g>
  <g>
    <path d="M375.645,204.142v1.479h2.088v1.129h-2.088v2.928h-1.3v-6.667h3.528v1.129H375.645z"/>
    <path d="M380.314,209.679h-1.3v-6.667h1.3V209.679z"/>
    <path d="M386.712,209.679h-1.599l-1.799-2.679h-0.17v2.679h-1.3v-6.667h1.929c1.499,0,2.359,0.72,2.359,1.969 c0,1.019-0.54,1.689-1.52,1.889L386.712,209.679z M383.523,206.081c0.83,0,1.27-0.36,1.27-1.029c0-0.649-0.439-0.989-1.249-0.989 h-0.399v2.019H383.523z"/>
    <path d="M388.475,202.893h0.89l1.818,4.357l1.889-4.357h0.9l1.109,6.786h-1.31l-0.6-4.108l-1.829,4.198h-0.36l-1.769-4.198 l-0.67,4.108h-1.309L388.475,202.893z"/>
    <path d="M397.494,208.27l-0.6,1.409h-1.38l2.889-6.806h0.979l2.799,6.806h-1.39l-0.569-1.409H397.494z M398.883,204.822 l-0.97,2.399h1.899L398.883,204.822z"/>
  </g>
  <g>
    <path d="M444.575,206.112v0.21c0,2.148-1.259,3.508-3.248,3.508c-2.019,0-3.498-1.449-3.498-3.448c0-2.039,1.489-3.518,3.538-3.518 c1.239,0,2.229,0.54,2.858,1.569l-1.14,0.61c-0.399-0.66-0.979-0.99-1.749-0.99c-1.239,0-2.169,1-2.169,2.329 c0,1.299,0.93,2.269,2.18,2.269c0.949,0,1.648-0.56,1.749-1.409h-1.569v-1.129H444.575z"/>
    <path d="M452.575,206.341c0,1.959-1.569,3.488-3.558,3.488c-2.02,0-3.568-1.509-3.568-3.468c0-1.958,1.569-3.498,3.568-3.498 S452.575,204.392,452.575,206.341z M446.788,206.341c0,1.27,1,2.299,2.229,2.299c1.219,0,2.219-1.029,2.219-2.299 c0-1.259-0.989-2.289-2.219-2.289S446.788,205.082,446.788,206.341z"/>
    <path d="M455.079,208.55h2.049v1.129h-3.349v-6.667h1.3V208.55z"/>
  </g>
  <g>
    <path d="M472.323,208.27l-0.6,1.409h-1.38l2.889-6.806h0.979l2.799,6.806h-1.39l-0.569-1.409H472.323z M473.712,204.822 l-0.97,2.399h1.899L473.712,204.822z"/>
    <path d="M478.684,202.893h0.89l1.818,4.357l1.889-4.357h0.9l1.109,6.786h-1.31l-0.6-4.108l-1.829,4.198h-0.359l-1.77-4.198 l-0.67,4.108h-1.309L478.684,202.893z"/>
  </g>
  <g>
    <path d="M504.816,209.679h-1.599l-1.799-2.679h-0.17v2.679h-1.3v-6.667h1.929c1.499,0,2.359,0.72,2.359,1.969 c0,1.019-0.54,1.689-1.52,1.889L504.816,209.679z M501.628,206.081c0.83,0,1.27-0.36,1.27-1.029c0-0.649-0.439-0.989-1.249-0.989 h-0.399v2.019H501.628z"/>
    <path d="M512.375,206.341c0,1.959-1.569,3.488-3.558,3.488c-2.02,0-3.568-1.509-3.568-3.468c0-1.958,1.569-3.498,3.568-3.498 S512.375,204.392,512.375,206.341z M506.588,206.341c0,1.27,1,2.299,2.229,2.299c1.219,0,2.219-1.029,2.219-2.299 c0-1.259-0.989-2.289-2.219-2.289S506.588,205.082,506.588,206.341z"/>
  </g>
  <g>
    <path d="M156.145,204.142v1.479h2.298v1.129h-2.298v1.799h2.389v1.129h-3.688v-6.667h3.688v1.129H156.145z"/>
    <path d="M163.053,204.532c-0.34-0.38-0.659-0.54-1.049-0.54c-0.56,0-0.97,0.32-0.97,0.74c0,0.36,0.229,0.55,1.01,0.839 c1.479,0.54,1.919,1.02,1.919,2.079c0,1.289-0.949,2.188-2.299,2.188c-0.989,0-1.709-0.39-2.309-1.269l0.839-0.81 c0.3,0.58,0.8,0.89,1.42,0.89c0.579,0,1.009-0.4,1.009-0.939c0-0.28-0.13-0.52-0.39-0.69c-0.13-0.08-0.39-0.2-0.899-0.38 c-1.219-0.439-1.639-0.909-1.639-1.829c0-1.089,0.899-1.909,2.078-1.909c0.73,0,1.399,0.25,1.959,0.74L163.053,204.532z"/>
    <path d="M165.996,209.679v-5.537h-1.489v-1.129h4.287v1.129h-1.499v5.537H165.996z"/>
    <path d="M170.734,209.02c0,0.44-0.35,0.79-0.779,0.79c-0.44,0-0.79-0.35-0.79-0.79c0-0.43,0.35-0.779,0.79-0.779 C170.384,208.24,170.734,208.59,170.734,209.02z"/>
  </g>
  <g>
    <path d="M68.394,202.863h0.899l4.058,4.638v-4.488h1.3v6.796h-0.899l-4.058-4.637v4.507h-1.3V202.863z"/>
    <path d="M83.03,206.341c0,1.959-1.569,3.488-3.558,3.488c-2.02,0-3.568-1.509-3.568-3.468c0-1.958,1.569-3.498,3.568-3.498 S83.03,204.392,83.03,206.341z M77.243,206.341c0,1.27,1,2.299,2.229,2.299c1.219,0,2.219-1.029,2.219-2.299 c0-1.259-0.989-2.289-2.219-2.289S77.243,205.082,77.243,206.341z"/>
    <path d="M85.114,202.893h0.89l1.818,4.357l1.889-4.357h0.9l1.109,6.786h-1.31l-0.6-4.108l-1.829,4.198h-0.359l-1.77-4.198 l-0.67,4.108h-1.309L85.114,202.893z"/>
    <path d="M92.914,203.013h1.649c0.77,0,1.289,0.13,1.629,0.4c0.37,0.29,0.6,0.81,0.6,1.359c0,0.66-0.2,1.04-0.729,1.349 c0.89,0.19,1.35,0.77,1.35,1.669c0,1.18-0.85,1.889-2.249,1.889h-2.249V203.013z M94.583,205.792c0.67,0,1.01-0.29,1.01-0.87 c0-0.56-0.34-0.859-0.989-0.859h-0.39v1.729H94.583z M94.773,208.63c0.869,0,1.299-0.3,1.299-0.899c0-0.67-0.399-0.95-1.369-0.95 h-0.489v1.849H94.773z"/>
    <path d="M103.481,209.679h-1.599l-1.799-2.679h-0.17v2.679h-1.3v-6.667h1.929c1.499,0,2.359,0.72,2.359,1.969 c0,1.019-0.54,1.689-1.52,1.889L103.481,209.679z M100.293,206.081c0.83,0,1.27-0.36,1.27-1.029c0-0.649-0.439-0.989-1.249-0.989 h-0.399v2.019H100.293z"/>
    <path d="M105.664,204.142v1.479h2.298v1.129h-2.298v1.799h2.389v1.129h-3.688v-6.667h3.688v1.129H105.664z"/>
  </g>
  <g>
    <path d="M10.625,202.863h0.899l4.058,4.638v-4.488h1.3v6.796h-0.899l-4.058-4.637v4.507h-1.3V202.863z"/>
    <path d="M21.429,205.008c0,0.98-0.785,1.747-1.781,1.747c-1.011,0-1.787-0.756-1.787-1.737s0.786-1.752,1.787-1.752 S21.429,204.032,21.429,205.008z M18.531,205.008c0,0.635,0.501,1.151,1.116,1.151c0.61,0,1.111-0.516,1.111-1.151 c0-0.631-0.496-1.146-1.111-1.146S18.531,204.377,18.531,205.008z"/>
  </g>
  <g>
    <path d="M282.845,203.013h1.909c2.108,0,3.578,1.37,3.578,3.338c0,0.979-0.45,1.939-1.21,2.559c-0.64,0.54-1.369,0.77-2.378,0.77 h-1.899V203.013z M284.494,208.55c0.839,0,1.369-0.16,1.778-0.53c0.45-0.4,0.72-1.04,0.72-1.679s-0.27-1.259-0.72-1.659 c-0.43-0.39-0.939-0.54-1.778-0.54h-0.35v4.408H284.494z"/>
    <path d="M289.534,202.863h0.899l4.058,4.638v-4.488h1.3v6.796h-0.899l-4.058-4.637v4.507h-1.3V202.863z"/>
    <path d="M298.624,209.679h-1.3v-6.667h1.3V209.679z"/>
  </g>
  <g>
    <path d="M186.145,204.142v1.479h2.088v1.129h-2.088v2.928h-1.3v-6.667h3.528v1.129H186.145z"/>
    <path d="M190.815,204.142v1.479h2.298v1.129h-2.298v1.799h2.389v1.129h-3.688v-6.667h3.688v1.129H190.815z"/>
    <path d="M199.273,204.802c-0.54-0.53-1.01-0.75-1.629-0.75c-1.22,0-2.18,1.009-2.18,2.289c0,1.35,0.93,2.299,2.239,2.299 c0.59,0,1.05-0.21,1.569-0.729v1.529c-0.59,0.28-1.069,0.39-1.629,0.39c-1.979,0-3.519-1.519-3.519-3.478 c0-1.939,1.579-3.488,3.548-3.488c0.56,0,1.029,0.12,1.6,0.41V204.802z"/>
    <path d="M204.833,205.592v-2.579h1.299v6.667h-1.299v-2.958h-2.818v2.958h-1.3v-6.667h1.3v2.579H204.833z"/>
    <path d="M208.884,208.27l-0.6,1.409h-1.38l2.889-6.806h0.979l2.799,6.806h-1.39l-0.569-1.409H208.884z M210.273,204.822 l-0.97,2.399h1.899L210.273,204.822z"/>
    <path d="M216.865,202.863h0.899l4.058,4.638v-4.488h1.3v6.796h-0.899l-4.058-4.637v4.507h-1.3V202.863z"/>
    <path d="M225.914,208.27l-0.6,1.409h-1.38l2.889-6.806h0.979l2.799,6.806h-1.39l-0.569-1.409H225.914z M227.302,204.822 l-0.97,2.399h1.899L227.302,204.822z"/>
    <path d="M235.942,204.802c-0.54-0.53-1.01-0.75-1.629-0.75c-1.22,0-2.18,1.009-2.18,2.289c0,1.35,0.93,2.299,2.239,2.299 c0.59,0,1.05-0.21,1.569-0.729v1.529c-0.59,0.28-1.069,0.39-1.629,0.39c-1.979,0-3.519-1.519-3.519-3.478 c0-1.939,1.579-3.488,3.548-3.488c0.56,0,1.029,0.12,1.6,0.41V204.802z"/>
    <path d="M238.424,209.02c0,0.44-0.35,0.79-0.779,0.79c-0.44,0-0.79-0.35-0.79-0.79c0-0.43,0.35-0.779,0.79-0.779 C238.075,208.24,238.424,208.59,238.424,209.02z"/>
  </g>
  <line fill="none" stroke="#221E1F" stroke-width="0.2669" stroke-miterlimit="22.9256" stroke-dasharray="0.2636,0.2636" x1="95" y1="759.505" x2="226.715" y2="759.505"/>
  <g>
    <path d="M473.525,183.758h-1.558v-4.682h-1.269v-1.323h4.123v1.323h-1.297V183.758z"/>
    <path d="M477.081,182.714l-0.414,1.044h-1.647l2.305-6.005h1.701l2.26,6.005h-1.666l-0.387-1.044H477.081z M478.17,179.608 l-0.657,1.918h1.297L478.17,179.608z"/>
    <path d="M487.322,183.758h-1.944l-1.485-2.305v2.305h-1.558v-6.005h2.422c0.685,0,1.126,0.162,1.477,0.531 c0.324,0.342,0.513,0.828,0.513,1.323c0,0.9-0.459,1.495-1.313,1.693L487.322,183.758z M484.181,180.445 c0.612,0,0.964-0.279,0.964-0.747c0-0.468-0.36-0.748-0.964-0.748h-0.288v1.495H484.181z"/>
    <path d="M491.3,181.904c0,0.675-0.107,0.999-0.459,1.386c-0.378,0.405-0.9,0.63-1.494,0.63c-0.666,0-1.171-0.288-1.566-0.891 l1.017-1.036c0.046,0.351,0.243,0.585,0.505,0.585c0.297,0,0.44-0.225,0.44-0.702v-0.333v-3.79h1.558V181.904z"/>
    <path d="M494.468,179.076v1h1.756v1.323h-1.756v1.036h1.854v1.323h-3.412v-6.005h3.412v1.323H494.468z"/>
    <path d="M499.931,183.758h-1.558v-4.682h-1.269v-1.323h4.123v1.323h-1.297V183.758z"/>
    <path d="M503.486,182.714l-0.414,1.044h-1.647l2.305-6.005h1.701l2.26,6.005h-1.666l-0.387-1.044H503.486z M504.575,179.608 l-0.657,1.918h1.297L504.575,179.608z"/>
    <path d="M512.036,179.311c-0.351-0.279-0.666-0.405-1.026-0.405c-0.369,0-0.666,0.225-0.666,0.513c0,0.189,0.136,0.342,0.405,0.468 c0.081,0.036,0.145,0.054,0.675,0.216c1.045,0.306,1.477,0.801,1.477,1.666c0,1.351-0.864,2.143-2.34,2.143 c-0.729,0-1.459-0.234-2.089-0.675l0.666-1.261c0.478,0.415,0.918,0.612,1.377,0.612c0.46,0,0.757-0.234,0.757-0.585 c0-0.324-0.207-0.477-0.937-0.693c-0.685-0.198-0.945-0.315-1.17-0.504c-0.298-0.261-0.45-0.648-0.45-1.17 c0-1.207,0.828-2.026,2.043-2.026c0.631,0,1.297,0.171,1.899,0.486L512.036,179.311z"/>
  </g>
  <g>
    <g>
      <path fill="#221E1F" d="M231.741,106.526c0,0.925-0.404,1.507-1.21,1.748l1.467,2.036h-1.202l-1.339-1.884h-1.242v1.884h-0.946 v-5.603h2.084c0.855,0,1.467,0.144,1.835,0.433S231.741,105.89,231.741,106.526z M230.482,107.32 c0.192-0.166,0.289-0.432,0.289-0.798s-0.099-0.617-0.296-0.753s-0.55-0.204-1.058-0.204h-1.202v2.004h1.178 C229.926,107.569,230.29,107.486,230.482,107.32z"/>
      <path fill="#221E1F" d="M239.444,104.707v0.89h-2.99v1.483h2.685v0.842h-2.685v1.499h3.086v0.89h-4.032v-5.603h3.936V104.707z"/>
      <path fill="#221E1F" d="M244.85,105.444c-0.275,0-0.501,0.056-0.677,0.168s-0.264,0.282-0.264,0.509 c0,0.228,0.088,0.401,0.264,0.521c0.176,0.12,0.552,0.25,1.126,0.389s1.007,0.334,1.298,0.585c0.292,0.251,0.437,0.621,0.437,1.11 s-0.185,0.886-0.553,1.19c-0.369,0.304-0.853,0.457-1.451,0.457c-0.876,0-1.654-0.302-2.333-0.906l0.593-0.713 c0.566,0.492,1.154,0.738,1.764,0.738c0.305,0,0.546-0.065,0.726-0.197c0.179-0.131,0.269-0.304,0.269-0.521 c0-0.216-0.084-0.385-0.252-0.505c-0.168-0.12-0.458-0.229-0.87-0.329c-0.411-0.099-0.724-0.189-0.938-0.272 s-0.404-0.191-0.569-0.325c-0.332-0.251-0.497-0.636-0.497-1.154s0.188-0.918,0.565-1.198c0.376-0.281,0.843-0.421,1.398-0.421 c0.358,0,0.713,0.059,1.066,0.176c0.353,0.118,0.657,0.283,0.914,0.497l-0.505,0.713c-0.166-0.149-0.39-0.272-0.673-0.369 S245.125,105.444,244.85,105.444z"/>
      <path fill="#221E1F" d="M251.868,109.027c0.256,0.299,0.604,0.449,1.042,0.449s0.786-0.15,1.042-0.449 c0.256-0.299,0.385-0.705,0.385-1.218v-3.102h0.946v3.142c0,0.807-0.222,1.428-0.665,1.864c-0.444,0.436-1.013,0.653-1.708,0.653 c-0.695,0-1.264-0.218-1.708-0.653s-0.665-1.057-0.665-1.864v-3.142h0.946v3.102C251.483,108.322,251.611,108.728,251.868,109.027 z"/>
      <path fill="#221E1F" d="M259.17,110.31v-5.603h0.946v4.705h2.557v0.898L259.17,110.31z"/>
      <path fill="#221E1F" d="M268.229,105.572v4.737h-0.945v-4.737h-1.7v-0.866h4.345v0.866H268.229z"/>
      <path fill="#221E1F" d="M274.152,109.035l-0.562,1.274h-1.01l2.469-5.603h1.01l2.469,5.603h-1.01l-0.561-1.274H274.152z M276.573,108.161l-1.019-2.308l-1.018,2.308H276.573z"/>
      <path fill="#221E1F" d="M285.95,105.44c0.54,0.489,0.81,1.169,0.81,2.04s-0.262,1.561-0.785,2.068 c-0.523,0.508-1.325,0.762-2.405,0.762h-1.859v-5.603h1.924C284.639,104.707,285.411,104.951,285.95,105.44z M285.807,107.504 c0-1.282-0.735-1.924-2.205-1.924h-0.945v3.84h1.05c0.679,0,1.198-0.162,1.56-0.485 C285.626,108.612,285.807,108.135,285.807,107.504z"/>
      <path fill="#221E1F" d="M295.073,109.536c-0.566,0.553-1.267,0.83-2.101,0.83c-0.833,0-1.533-0.276-2.1-0.83 s-0.85-1.243-0.85-2.068s0.283-1.515,0.85-2.068s1.267-0.83,2.1-0.83c0.834,0,1.534,0.276,2.101,0.83s0.85,1.243,0.85,2.068 C295.923,108.294,295.64,108.983,295.073,109.536z M294.38,106.03c-0.382-0.396-0.852-0.593-1.407-0.593s-1.024,0.198-1.406,0.593 s-0.573,0.875-0.573,1.438c0,0.564,0.191,1.043,0.573,1.439s0.851,0.593,1.406,0.593s1.025-0.198,1.407-0.593 s0.573-0.875,0.573-1.439C294.953,106.905,294.762,106.425,294.38,106.03z"/>
    </g>
  </g>
  <g>
    <path d="M4.935,746.396v1.604h1.781v0.557H4.935v2.658H4.331v-5.374h2.441v0.556H4.935z"/>
    <path d="M8.422,751.214H7.818v-5.374h0.604V751.214z"/>
    <path d="M12.925,751.214h-0.733l-1.62-2.353H10.42v2.353H9.816v-5.374h0.87c0.612,0,0.982,0.081,1.289,0.29 c0.362,0.25,0.596,0.709,0.596,1.192c0,0.838-0.523,1.41-1.354,1.491L12.925,751.214z M10.798,748.329 c0.773,0,1.185-0.346,1.185-1.007c0-0.604-0.419-0.927-1.208-0.927H10.42v1.934H10.798z"/>
    <path d="M14.552,745.542l2.062,4.536l2.111-4.544l0.83,5.68h-0.612l-0.5-3.738l-1.829,3.964l-1.805-3.964l-0.531,3.738h-0.612 L14.552,745.542z"/>
    <path d="M21.464,749.692l-0.645,1.522h-0.653l2.474-5.632l2.417,5.632h-0.661l-0.636-1.522H21.464z M22.632,746.985l-0.919,2.151 h1.813L22.632,746.985z"/>
    <path d="M27.174,745.84h0.693l1.369,2.401l1.386-2.401h0.701l-1.789,3.062v2.312h-0.604v-2.312L27.174,745.84z"/>
    <path d="M34.739,749.692l-0.645,1.522h-0.652l2.473-5.632l2.417,5.632h-0.661l-0.637-1.522H34.739z M35.907,746.985l-0.918,2.151 h1.812L35.907,746.985z"/>
    <path d="M42.955,747.025c-0.524-0.5-1.015-0.709-1.635-0.709c-1.168,0-2.159,1.016-2.159,2.216c0,1.225,0.975,2.216,2.175,2.216 c0.597,0,1.104-0.218,1.62-0.701v0.741c-0.524,0.354-1.031,0.523-1.603,0.523c-1.539,0-2.796-1.249-2.796-2.764 c0-1.53,1.265-2.796,2.804-2.796c0.604,0,1.047,0.146,1.595,0.532V747.025z"/>
    <path d="M44.662,750.658h1.474v0.556h-2.078v-5.374h0.604V750.658z"/>
    <path d="M47.917,749.692l-0.645,1.522H46.62l2.473-5.632l2.417,5.632h-0.661l-0.637-1.522H47.917z M49.084,746.985l-0.918,2.151 h1.812L49.084,746.985z"/>
    <path d="M55.369,751.214h-0.733l-1.619-2.353h-0.153v2.353h-0.604v-5.374h0.87c0.612,0,0.983,0.081,1.289,0.29 c0.363,0.25,0.597,0.709,0.597,1.192c0,0.838-0.524,1.41-1.354,1.491L55.369,751.214z M53.242,748.329 c0.773,0,1.184-0.346,1.184-1.007c0-0.604-0.419-0.927-1.208-0.927h-0.354v1.934H53.242z"/>
    <path d="M56.955,749.692l-0.645,1.522h-0.652l2.473-5.632l2.417,5.632h-0.661l-0.637-1.522H56.955z M58.123,746.985l-0.918,2.151 h1.812L58.123,746.985z"/>
    <path d="M65.171,747.025c-0.524-0.5-1.015-0.709-1.635-0.709c-1.168,0-2.159,1.016-2.159,2.216c0,1.225,0.975,2.216,2.175,2.216 c0.597,0,1.104-0.218,1.62-0.701v0.741c-0.524,0.354-1.031,0.523-1.603,0.523c-1.539,0-2.796-1.249-2.796-2.764 c0-1.53,1.265-2.796,2.804-2.796c0.604,0,1.047,0.146,1.595,0.532V747.025z"/>
    <path d="M66.878,751.214h-0.604v-5.374h0.604V751.214z"/>
    <path d="M73.564,748.531c0,1.522-1.265,2.779-2.788,2.779c-1.547,0-2.804-1.241-2.804-2.771s1.265-2.788,2.804-2.788 C72.299,745.751,73.564,747.009,73.564,748.531z M68.578,748.539c0,1.217,0.982,2.208,2.191,2.208c1.208,0,2.191-0.991,2.191-2.208 c0-1.232-0.975-2.224-2.191-2.224C69.552,746.316,68.578,747.298,68.578,748.539z M70.809,745.413l-0.347-0.258l1.016-1.047 l0.563,0.362L70.809,745.413z"/>
    <path d="M74.667,745.615l4.181,4.391v-4.165h0.604v5.616l-4.181-4.383v4.141h-0.604V745.615z"/>
    <path d="M27.767,759.744l-0.483,1.136h-1.112l2.329-5.486h0.79l2.256,5.486h-1.12l-0.459-1.136H27.767z M28.887,756.964 l-0.782,1.934h1.531L28.887,756.964z M28.726,755.015l-0.427-0.395l1.104-1.072l0.668,0.549L28.726,755.015z"/>
    <path d="M36.104,760.88h-1.289l-1.45-2.159h-0.137v2.159h-1.047v-5.374h1.555c1.208,0,1.901,0.58,1.901,1.587 c0,0.822-0.435,1.362-1.225,1.523L36.104,760.88z M33.535,757.98c0.668,0,1.023-0.29,1.023-0.83c0-0.523-0.354-0.797-1.007-0.797 h-0.322v1.627H33.535z"/>
    <path d="M36.813,755.506h1.329c0.62,0,1.039,0.104,1.313,0.322c0.298,0.233,0.483,0.653,0.483,1.096 c0,0.532-0.161,0.838-0.588,1.088c0.717,0.153,1.087,0.62,1.087,1.346c0,0.95-0.685,1.522-1.812,1.522h-1.812V755.506z M38.158,757.746c0.54,0,0.814-0.233,0.814-0.701c0-0.451-0.274-0.692-0.798-0.692H37.86v1.394H38.158z M38.311,760.034 c0.701,0,1.048-0.242,1.048-0.726c0-0.54-0.322-0.765-1.104-0.765H37.86v1.49H38.311z"/>
    <path d="M42.452,760.88h-1.048v-5.374h1.048V760.88z"/>
    <path d="M44.32,760.88v-4.463H43.12v-0.911h3.457v0.911h-1.208v4.463H44.32z"/>
    <path d="M51.176,760.88h-1.289l-1.45-2.159h-0.137v2.159h-1.047v-5.374h1.555c1.208,0,1.901,0.58,1.901,1.587 c0,0.822-0.435,1.362-1.225,1.523L51.176,760.88z M48.606,757.98c0.668,0,1.023-0.29,1.023-0.83c0-0.523-0.354-0.797-1.007-0.797 h-0.322v1.627H48.606z"/>
    <path d="M57.266,758.189c0,1.58-1.265,2.812-2.868,2.812c-1.627,0-2.876-1.217-2.876-2.796s1.265-2.819,2.876-2.819 S57.266,756.618,57.266,758.189z M52.601,758.189c0,1.023,0.806,1.854,1.797,1.854c0.983,0,1.789-0.83,1.789-1.854 c0-1.015-0.797-1.845-1.789-1.845S52.601,757.174,52.601,758.189z"/>
  </g>
  <g>
    <path d="M294.305,746.396v1.604h1.781v0.557h-1.781v2.658h-0.604v-5.374h2.44v0.556H294.305z"/>
    <path d="M297.793,751.214h-0.604v-5.374h0.604V751.214z"/>
    <path d="M302.296,751.214h-0.733l-1.619-2.353h-0.153v2.353h-0.604v-5.374h0.87c0.612,0,0.982,0.081,1.289,0.29 c0.362,0.25,0.596,0.709,0.596,1.192c0,0.838-0.523,1.41-1.354,1.491L302.296,751.214z M300.169,748.329 c0.773,0,1.185-0.346,1.185-1.007c0-0.604-0.419-0.927-1.209-0.927h-0.354v1.934H300.169z"/>
    <path d="M303.923,745.542l2.062,4.536l2.111-4.544l0.829,5.68h-0.612l-0.499-3.738l-1.829,3.964l-1.805-3.964l-0.531,3.738h-0.612 L303.923,745.542z"/>
    <path d="M310.834,749.692l-0.645,1.522h-0.652l2.474-5.632l2.417,5.632h-0.661l-0.636-1.522H310.834z M312.003,746.985 l-0.919,2.151h1.812L312.003,746.985z"/>
    <path d="M316.545,745.84h0.693l1.369,2.401l1.386-2.401h0.701l-1.789,3.062v2.312h-0.604v-2.312L316.545,745.84z"/>
    <path d="M324.109,749.692l-0.645,1.522h-0.652l2.473-5.632l2.417,5.632h-0.66l-0.637-1.522H324.109z M325.277,746.985l-0.918,2.151 h1.812L325.277,746.985z"/>
    <path d="M332.325,747.025c-0.523-0.5-1.015-0.709-1.635-0.709c-1.169,0-2.159,1.016-2.159,2.216c0,1.225,0.975,2.216,2.175,2.216 c0.597,0,1.104-0.218,1.619-0.701v0.741c-0.523,0.354-1.031,0.523-1.603,0.523c-1.539,0-2.796-1.249-2.796-2.764 c0-1.53,1.265-2.796,2.804-2.796c0.604,0,1.047,0.146,1.595,0.532V747.025z"/>
    <path d="M334.032,750.658h1.475v0.556h-2.078v-5.374h0.604V750.658z"/>
    <path d="M337.287,749.692l-0.645,1.522h-0.652l2.473-5.632l2.417,5.632h-0.66l-0.637-1.522H337.287z M338.455,746.985l-0.918,2.151 h1.812L338.455,746.985z"/>
    <path d="M344.739,751.214h-0.733l-1.619-2.353h-0.153v2.353h-0.604v-5.374h0.87c0.612,0,0.983,0.081,1.289,0.29 c0.362,0.25,0.597,0.709,0.597,1.192c0,0.838-0.524,1.41-1.354,1.491L344.739,751.214z M342.612,748.329 c0.773,0,1.184-0.346,1.184-1.007c0-0.604-0.419-0.927-1.208-0.927h-0.354v1.934H342.612z"/>
    <path d="M346.325,749.692l-0.645,1.522h-0.652l2.473-5.632l2.417,5.632h-0.66l-0.637-1.522H346.325z M347.493,746.985l-0.918,2.151 h1.812L347.493,746.985z"/>
    <path d="M354.541,747.025c-0.523-0.5-1.015-0.709-1.635-0.709c-1.169,0-2.159,1.016-2.159,2.216c0,1.225,0.975,2.216,2.175,2.216 c0.597,0,1.104-0.218,1.619-0.701v0.741c-0.523,0.354-1.031,0.523-1.603,0.523c-1.539,0-2.796-1.249-2.796-2.764 c0-1.53,1.265-2.796,2.804-2.796c0.604,0,1.047,0.146,1.595,0.532V747.025z"/>
    <path d="M356.248,751.214h-0.604v-5.374h0.604V751.214z"/>
    <path d="M362.935,748.531c0,1.522-1.265,2.779-2.787,2.779c-1.547,0-2.804-1.241-2.804-2.771s1.265-2.788,2.804-2.788 C361.67,745.751,362.935,747.009,362.935,748.531z M357.948,748.539c0,1.217,0.982,2.208,2.191,2.208 c1.208,0,2.191-0.991,2.191-2.208c0-1.232-0.976-2.224-2.191-2.224C358.923,746.316,357.948,747.298,357.948,748.539z M360.18,745.413l-0.347-0.258l1.016-1.047l0.563,0.362L360.18,745.413z"/>
    <path d="M364.038,745.615l4.181,4.391v-4.165h0.604v5.616l-4.182-4.383v4.141h-0.604V745.615z"/>
    <path d="M311.909,755.506h1.538c1.7,0,2.885,1.104,2.885,2.691c0,0.789-0.362,1.562-0.975,2.062 c-0.516,0.435-1.104,0.62-1.918,0.62h-1.53V755.506z M313.238,759.97c0.677,0,1.104-0.129,1.434-0.428 c0.363-0.322,0.58-0.838,0.58-1.354s-0.217-1.015-0.58-1.337c-0.346-0.314-0.757-0.435-1.434-0.435h-0.282v3.553H313.238z"/>
    <path d="M318.345,756.417v1.191h1.854v0.911h-1.854v1.45h1.926v0.91h-2.973v-5.374h2.973v0.911H318.345z"/>
    <path d="M322.333,759.97h1.651v0.91h-2.699v-5.374h1.048V759.97z"/>
    <path d="M325.756,756.417v1.191h1.854v0.911h-1.854v1.45h1.926v0.91h-2.973v-5.374h2.973v0.911H325.756z"/>
    <path d="M333.86,758.004v0.169c0,1.732-1.016,2.828-2.618,2.828c-1.628,0-2.82-1.168-2.82-2.779c0-1.645,1.2-2.836,2.853-2.836 c0.999,0,1.796,0.435,2.304,1.265l-0.918,0.491c-0.322-0.531-0.79-0.798-1.41-0.798c-0.999,0-1.748,0.806-1.748,1.878 c0,1.047,0.749,1.828,1.756,1.828c0.766,0,1.329-0.451,1.41-1.136h-1.265v-0.91H333.86z"/>
    <path d="M335.608,759.744l-0.483,1.136h-1.112l2.328-5.486h0.79l2.256,5.486h-1.12l-0.459-1.136H335.608z M336.728,756.964 l-0.781,1.934h1.531L336.728,756.964z"/>
    <path d="M340.022,755.506h1.539c1.7,0,2.884,1.104,2.884,2.691c0,0.789-0.362,1.562-0.975,2.062 c-0.516,0.435-1.104,0.62-1.917,0.62h-1.531V755.506z M341.352,759.97c0.677,0,1.104-0.129,1.435-0.428 c0.362-0.322,0.58-0.838,0.58-1.354s-0.218-1.015-0.58-1.337c-0.347-0.314-0.758-0.435-1.435-0.435h-0.281v3.553H341.352z"/>
    <path d="M350.882,758.189c0,1.58-1.265,2.812-2.868,2.812c-1.628,0-2.876-1.217-2.876-2.796s1.265-2.819,2.876-2.819 S350.882,756.618,350.882,758.189z M346.217,758.189c0,1.023,0.806,1.854,1.797,1.854c0.982,0,1.788-0.83,1.788-1.854 c0-1.015-0.797-1.845-1.788-1.845S346.217,757.174,346.217,758.189z"/>
  </g>
  <line fill="none" stroke="#221E1F" stroke-width="0.2669" stroke-miterlimit="22.9256" stroke-dasharray="0.2636,0.2636" x1="386" y1="759.505" x2="517.714" y2="759.505"/>
</svg>